<svg id="Layer_1" data-name="Layer 1" xmlns="http://www.w3.org/2000/svg" viewBox="0 0 343.89 232.29"><defs><style>.cls-1{fill:#4b4c4b;}.cls-2{fill:#a09f9f;}.cls-3{fill:#444;}.cls-4{fill:#868686;}.cls-5{fill:#606061;}.cls-6{fill:#111;}.cls-7{fill:#fff;}</style></defs><title>Artboard 1</title><path d="M50.63,93.48C21.1,83.75,2.54,70.4.88,55.38A31.07,31.07,0,0,0,0,62.71a168.88,168.88,0,0,0,13.4,66.41c8.09,5.57,23.77,15,47.21,23.55C54.22,135,50.83,115.06,50.63,93.48Z"/><path d="M275.82,155.21c6.8-17.44,10.65-37.44,11.08-59.45-30.16,8.81-70.09,14.1-114.45,14.1h-.17V171C215.41,170.92,249.83,163.84,275.82,155.21Z"/><path d="M288.31,91.52c1.26-.38,2.54-.76,3.78-1.16,30.87-10,48.57-23.53,48.57-37.18a17.58,17.58,0,0,0-1.87-7.7c-3.78-6-9.54-11.52-16.91-16.4-7.76-4.77-17.77-9.19-29.79-13.08C260.15,5.68,217.67,0,172.45,0S84.74,5.68,52.81,16C21.94,26,4.24,39.53,4.24,53.18s17.7,27.2,48.57,37.18c31.93,10.32,74.42,16,119.64,16,42.85,0,83.24-5.11,114.52-14.43,0-.14,0-.28,0-.42Z"/><path class="cls-1" d="M270.09,82.52c1.07-.33,2.15-.64,3.19-1,26.1-8.44,41.07-19.9,41.07-31.44a14.88,14.88,0,0,0-1.58-6.51c-3.2-5.12-8.07-9.74-14.3-13.87a118.14,118.14,0,0,0-25.2-11.06c-27-8.73-62.93-13.53-101.17-13.53S97.95,9.93,70.95,18.66C44.85,27.1,29.88,38.56,29.88,50.1s15,23,41.07,31.44c27,8.73,62.93,13.53,101.17,13.53,36.24,0,70.38-4.32,96.84-12.2,0-.12,0-.23,0-.35Z"/><path class="cls-2" d="M265.26,83.27c1-.31,2-.61,3-.93,24.54-7.93,38.61-18.7,38.61-29.55a14,14,0,0,0-1.48-6.12c-3-4.81-7.58-9.16-13.45-13a111,111,0,0,0-23.68-10.4c-25.38-8.2-59.16-12.72-95.1-12.72S103.44,15,78.06,23.24C53.52,31.17,39.45,41.95,39.45,52.8S53.52,74.42,78.06,82.35c25.38,8.2,59.16,12.72,95.1,12.72,34.06,0,66.17-4.06,91-11.47,0-.11,0-.22,0-.33Z"/><path class="cls-3" d="M248.8,80c.81-.25,1.63-.49,2.42-.74,19.8-6.4,31.16-15.09,31.16-23.85a11.3,11.3,0,0,0-1.2-4.94,35.85,35.85,0,0,0-10.85-10.53,89.65,89.65,0,0,0-19.12-8.39c-20.49-6.62-47.74-10.27-76.75-10.27S118.2,24.91,97.71,31.53c-19.8,6.4-31.16,15.09-31.16,23.85S77.91,72.84,97.71,79.23c20.49,6.62,47.75,10.27,76.76,10.27,27.49,0,53.4-3.28,73.47-9.25,0-.09,0-.18,0-.27Z"/><path class="cls-4" d="M195.9,68.58l.79-.24c6.5-2.1,10.22-5,10.22-7.83a3.69,3.69,0,0,0-.39-1.62A11.74,11.74,0,0,0,203,55.44a29.7,29.7,0,0,0-6.27-2.75C190,50.51,181,49.32,171.51,49.32s-18.46,1.2-25.19,3.36c-6.5,2.1-10.22,5-10.22,7.83s3.73,5.73,10.22,7.83c6.72,2.17,15.67,3.37,25.19,3.37a87.59,87.59,0,0,0,24.11-3v-.09Z"/><path class="cls-5" d="M189.19,67.32l.58-.18c4.71-1.52,7.41-3.59,7.41-5.67a2.66,2.66,0,0,0-.28-1.17,8.5,8.5,0,0,0-2.58-2.5,21.2,21.2,0,0,0-4.55-2,61.76,61.76,0,0,0-18.25-2.44,61.77,61.77,0,0,0-18.25,2.44c-4.71,1.52-7.41,3.59-7.41,5.67s2.7,4.15,7.41,5.67a61.77,61.77,0,0,0,18.25,2.44A63.42,63.42,0,0,0,189,67.38s0,0,0-.06Z"/><path class="cls-6" d="M182.23,64l.33-.1c2.69-.87,4.24-2.05,4.24-3.24a1.51,1.51,0,0,0-.16-.67,4.88,4.88,0,0,0-1.47-1.43,12.19,12.19,0,0,0-2.6-1.14,39.68,39.68,0,0,0-20.89,0c-2.69.87-4.24,2.05-4.24,3.24s1.54,2.37,4.24,3.24a35.3,35.3,0,0,0,10.44,1.4,36.37,36.37,0,0,0,10-1.26v0Z"/><path d="M84.64,194.26a129,129,0,0,1-22.41-37.33,226.48,226.48,0,0,1-46.15-21.88c23.71,50.13,71.45,85.9,128,94.83A109.78,109.78,0,0,1,84.64,194.26Z"/><path d="M168.79,170.92V109.84c-44.8-.3-84.87-6-114.64-15.24.32,22,4,42.08,10.68,59.57C90.67,163.08,125.28,170.57,168.79,170.92Z"/><path d="M66.55,158.41c18.08,43.2,54.7,69.83,102.24,71v-55C126.43,174.07,92.4,167,66.55,158.41Z"/><path d="M343.54,58.07c-3.61,14.56-23.19,27.38-53.12,36.63-.32,21.55-3.82,41.42-10.35,59.06,25.53-9,42.31-19.2,50.56-25a168.9,168.9,0,0,0,13.27-66.09A31.4,31.4,0,0,0,343.54,58.07Z"/><path d="M172.28,229.37c47.15-1.12,83.59-27.33,101.81-69.93-26,8.32-59.85,15-101.81,15Z"/><path d="M256.43,194.26a110,110,0,0,1-65,36.74c60.34-6.58,111.74-43.49,136.57-96.23-9.83,6.31-26.3,15.36-49.54,23.23A128.58,128.58,0,0,1,256.43,194.26Z"/><path class="cls-7" d="M276.73,66.22c-.29-13.49-13.4-32.83-32.21-40.59-24.37-10-49.14-7.39-50.17-.37-.7,4.72,5.61,7,13.48,7.54,26.38,1.9,45.76,18.47,48.75,34.89C259.08,81.48,277.05,81.35,276.73,66.22Z"/><path class="cls-7" d="M85.88,44.62c-2.63,3.93-1.28,13.13,3.49,18.6C96,70.78,98.62,69.3,99.67,68s-2.06-3.9-4.16-5.83c-3.84-3.53-5-11.32-2.52-16.65C95,41.05,88.84,40.22,85.88,44.62Z"/></svg>