<svg id="Layer_1" data-name="Layer 1" xmlns="http://www.w3.org/2000/svg" viewBox="0 0 421.83 329.97"><defs><style>.cls-1{fill:#71cac6;}.cls-2{fill:#fff;}</style></defs><title>logo_world</title><path class="cls-1" d="M372.33,297.9c30.7-10.11,50.63-21.63,51-21.84h0c10.35-21.89,15-43.58,15.29-69.07H383.47a.51.51,0,0,1,0,.16c.58,35.17-3.17,65.48-11.17,90.75" transform="translate(-40.58 -102.12)"/><path class="cls-1" d="M129.3,298.21c-12.74-36.87-13.71-74.63-13.78-91.22H64.21a172.15,172.15,0,0,0,16.23,71.45l.21-.36c.36.2,18.13,10.24,48.65,20.12" transform="translate(-40.58 -102.12)"/><path class="cls-1" d="M363.16,300.8c8.92-25.44,13.13-56.7,12.5-93.54a1.65,1.65,0,0,1,0-.28H254.79V317.34A391.29,391.29,0,0,0,363.16,300.8" transform="translate(-40.58 -102.12)"/><path class="cls-1" d="M247,317.34V207H123.38c.24,27.9,3.55,62.88,15.37,94.14A397,397,0,0,0,247,317.34" transform="translate(-40.58 -102.12)"/><path class="cls-1" d="M132.64,307.12a346.51,346.51,0,0,1-46.7-17.88c22.2,40,59.73,71,105.24,85.6A107.08,107.08,0,0,1,172.53,363c-16.93-13.39-30.35-32.18-39.89-55.89" transform="translate(-40.58 -102.12)"/><path class="cls-1" d="M142.35,310c16.94,38.33,48.21,69,104.62,70.38V324.82A404.51,404.51,0,0,1,142.35,310" transform="translate(-40.58 -102.12)"/><path class="cls-1" d="M338.25,355.88a107.08,107.08,0,0,1-25.38,18.24c45.21-15.12,82.6-46.27,104.56-86.3a339.89,339.89,0,0,1-48.13,18.92q-11.22,29.79-31,49.14" transform="translate(-40.58 -102.12)"/><path class="cls-1" d="M254.79,380.32c32.12-.75,58.31-10.69,77.84-29.68q16.87-16.38,27.16-41.07a398.24,398.24,0,0,1-105,15.25Z" transform="translate(-40.58 -102.12)"/><path class="cls-2" d="M310.3,302c.26-.31.44-.55.63-.78s.41-.47.44-.71a2,2,0,0,1,1.3-1.46,1.44,1.44,0,0,0,.68-.75,12.09,12.09,0,0,0,.63-1.65,3.85,3.85,0,0,0,.31-1.56,4.12,4.12,0,0,1,.21-1.14,4.66,4.66,0,0,0,.1-1.15c-.16-1-.33-1.95-.57-2.91a9.66,9.66,0,0,0-.53-1.77,8.94,8.94,0,0,0-.76-1.59c-1.05-1.57-1.48-3.47-2.89-4.84a3.65,3.65,0,0,1-.46-.63,26,26,0,0,0-3.46-4.64c-.65-.62-1.51-1-2-1.7,0-.07-.21,0-.24-.11-.5-.57-1.35-.55-1.93-1a.75.75,0,0,0-1.07.18,4.65,4.65,0,0,1-1,.94,1.9,1.9,0,0,0-.78,1.07,1.69,1.69,0,0,1-.45.67,6.19,6.19,0,0,0-1.7,1.79c0,.13-.23.19-.32.29a24.82,24.82,0,0,0-3.05,3.23,7.39,7.39,0,0,1-.88.84,8.74,8.74,0,0,0-1.51,1.77,2.68,2.68,0,0,1-1.33,1.2,1.39,1.39,0,0,0-.84.81c-.55,1.7-2,2.89-3,4.3-.42.6-1,1.12-1.43,1.67l-.65.78a7.37,7.37,0,0,0-1.35,1.64,5.07,5.07,0,0,1-1,1.44c-.29.34-.62.68-.91,1-.49.65-1,1.27-1.49,1.95s-.18.89.44,1.12c.44.15.84.26,1.26.37,1.28.41,2.57.81,3.85,1.18a2.63,2.63,0,0,0,1.54.24,1.64,1.64,0,0,1,.6.1,16.54,16.54,0,0,0,2.09.59,6,6,0,0,1,2.86.63.84.84,0,0,0,.32.11,20.15,20.15,0,0,1,3.51.6,11.57,11.57,0,0,0,4.72.21c1.12-.1,2.19-.28,3.28-.45s2.27-.39,3.38-.65c.68-.15,1.31-.49,2-.65.5-.11.89-.29,1-.76l.45.11m11.93,16.47a1.73,1.73,0,0,0-1.44.21c-.18.1-.45.06-.65.18-.76.42-1.83.36-2.43,1.18a1.62,1.62,0,0,1-.7.47c-.67.21-1.36.34-2,.54a5.38,5.38,0,0,0-.81.42c-.5-.46-1-.1-1.38.18a1.42,1.42,0,0,1-1.7.21.48.48,0,0,0-.42,0,16,16,0,0,1-2.4.49c-.83.31-1.74.19-2.55.58a3.36,3.36,0,0,1-1.28.08c-.23,0-.59-.1-.65,0-.55.63-1.25.41-1.88.32a5.69,5.69,0,0,0-1.65.1,2.38,2.38,0,0,1-1.87-.15,1,1,0,0,1-1.38.15c-.71-.39-1.49,0-2.24-.26-.19-.06-.49.16-.71.24-.91-.6-1-.6-1.31.28-.4-.16-.84-.29-1.18.15-.06.06-.26.13-.32.08-.44-.37-.94-.08-1.45,0l-.26-.94c-.15-.58-.36-.71-1-.65-.2,0-.41.1-.6.11a2.48,2.48,0,0,1-.7,0,5.74,5.74,0,0,1-1.06-.33,9.09,9.09,0,0,1-1-.65,1.53,1.53,0,0,0-.18.24l-.19.23c-.45-.19-1-.39-1.45-.55a1.65,1.65,0,0,0-1.7.42l-.6-.58c-.31,0-.47.49-.81.16a.42.42,0,0,0-.34,0c-.6.32-.94,0-1.28-.37-.49-.58-.55-.57-1.22-.19a.73.73,0,0,1-.55.06,7.47,7.47,0,0,1-1.23-.65,1,1,0,0,0-.84-.29c-.16,0-.42-.26-.58-.42s-.26-.44-.42-.65a.58.58,0,0,0-.76-.18,2.09,2.09,0,0,1-2.27-.11.59.59,0,0,0-.42-.1,1.08,1.08,0,0,1-1.17-.42,1.12,1.12,0,0,0-.89-.32,5.7,5.7,0,0,1-1.87-.5,2,2,0,0,0-2.12,0c-.26.16-.84-.07-1.23-.2s-.94-.49-1.43-.7c-1.51-.67-3-1.3-4.64-2a1.76,1.76,0,0,0,.06-.41c-.23-.84-.55-1-1.33-.6a.85.85,0,0,1-.89.06c-1-.47-2-.91-3.05-1.36a1.33,1.33,0,0,1-.63-.63,16.38,16.38,0,0,0-1.41-1.59c-.23-.24-.42-.52-.63-.8-.52-.67-1.06-1.33-1.69-2.16-.11.44-.18.7-.24,1a8.92,8.92,0,0,1-2.22-1.85,10.29,10.29,0,0,0-.88-.79,1.48,1.48,0,0,1-.31-.21,9,9,0,0,0-3-2.32,4.94,4.94,0,0,1-1-.94c-.36-.37-.34-.49-.15-1.36.18,0,.34-.1.63-.16a7,7,0,0,0-.67-2.69,1.82,1.82,0,0,1-.21-2c1,0,1.44.83,2.16,1.3,0-.07.1-.15.1-.2-.33-.88-.63-1.77-1-2.61a6.36,6.36,0,0,0-1.33-1.78,12.52,12.52,0,0,1-1.26-2s0-.13.11-.26l1.95.94c-.23-.86-1.09-1-1.33-1.75.26-.36.53-.37.89,0a2.72,2.72,0,0,0,1.93.68.83.83,0,0,0-.39-.91,3.4,3.4,0,0,1-1.35-1.64,3.82,3.82,0,0,1-1.4-3,1.59,1.59,0,0,0-.24-.6c.94-.16,1.56.47,2.31.67.31-1.33.55-1.66,2.14-1.53,0-.26,0-.54.08-.84a1.13,1.13,0,0,1,1.15-.11.79.79,0,0,0,.67,0c.45-.36.83-.11,1.3,0a13.12,13.12,0,0,1,2.56,1.07,3,3,0,0,1,.32.15,25.32,25.32,0,0,0,3.36,2.19,6.08,6.08,0,0,0,1.2.86c1.18.45,1.88,1.43,2.84,2.13s1.25.6,2-.21c1.3-1.49,2.61-2.92,3.89-4.4.78-.89,1.46-1.85,2.19-2.77a5.33,5.33,0,0,1,.37-.47c.33-.39.63-.79,1-1.18.59-.67,1.15-1.33,1.77-2a13.3,13.3,0,0,0,2.08-2.5,1,1,0,0,1,.19-.28,17.76,17.76,0,0,0,1.9-1.75,32.56,32.56,0,0,1,2.89-2.76c.91-1,1.92-1.87,2.79-2.86a11.33,11.33,0,0,0,2.14-2.34,6.09,6.09,0,0,0,1.82-1.54l2.31-2.43a7.63,7.63,0,0,0,.94-1,.81.81,0,0,0-.58-1.33,1.72,1.72,0,0,1-1.07-.67,4.3,4.3,0,0,0-1-.7c-.31-.21-.63-.41-1-.58-1.61-1-3.26-1.93-4.89-2.89-.63-.39-1.26-.83-1.91-1.22a6.78,6.78,0,0,0-1.95-.94,4.43,4.43,0,0,1-1.43-.83c-.44-.34-.86-.75-1.38-1.22l1.12-.18c0-.63-.49-1-.83-1.35a2.3,2.3,0,0,1-.67-1.12,2.45,2.45,0,0,0-1.12-1.48c-.52-.39-1.17-.68-1.48-1.36.26-.15.52-.26.81-.41-.23-.81.31-1.15,1-1.41.06,0,.19,0,.26-.08a2.29,2.29,0,0,1,1.53-.76,4.27,4.27,0,0,1-1.36-2.92c.75-.24.75-.24,1.22.73.08,0,.23,0,.24,0,.31-.6.83-.57,1.41-.44,1,.23,1.95.41,2.92.54a7.17,7.17,0,0,0,1.3,0,14.29,14.29,0,0,0,4.58.67c.83.28,1.82.6,2.82.89,1.9.58,3.83,1.12,5.71,1.75,1,.33,1.9.84,2.87,1.23.76.32,1.56.58,2.35.88a7.58,7.58,0,0,1,.73.31c.91.44,1.82.89,2.76,1.31,1.46.65,2.94,1.27,4.43,1.92a8.76,8.76,0,0,1,.79.37c1.14.67,2.26,1.4,3.44,2a33,33,0,0,1,4.46,2.74,27,27,0,0,0,2.58,1.9,24.22,24.22,0,0,1,4.27,3.28c1.31,1.22,2.46,2.64,3.72,4,.1.13.21.26.32.39a35.89,35.89,0,0,1,3.12,4.3,10.32,10.32,0,0,0,1.43,1.72,6,6,0,0,1,1.07,1.54c.83,1.53,1.67,3,2.55,4.54.49.86,1,1.7,1.54,2.55a1.26,1.26,0,0,1,.2.39,5.9,5.9,0,0,0,1,2.22,18.9,18.9,0,0,1,2,4.93,38.65,38.65,0,0,1,1.33,7.68,17,17,0,0,1-.34,4.54c-.08.39-.13.79-.21,1.17a27.44,27.44,0,0,1-1.82,5.29c-.11.33-.29.62-.42.92a27.28,27.28,0,0,1-3.7,5.86c-.75.91-1.43,1.88-2.19,2.76a21.39,21.39,0,0,1-1.62,1.57c-.42.41-.84.84-1.27,1.27a3.53,3.53,0,0,1-.54.55,3.54,3.54,0,0,0-1.4,1.92" transform="translate(-40.58 -102.12)"/><path class="cls-2" d="M381.74,369.16a1.85,1.85,0,0,0-1.65,1.1c0,.08,0,.16-.13.23-.92.68-1.22,1.79-1.91,2.63a18.5,18.5,0,0,0-1.3,2,10.8,10.8,0,0,1-.75,1,5.88,5.88,0,0,0-1.46,2.74c0,.07-.08.13-.16.26-.24-.07-.49-.1-.7-.16a1.25,1.25,0,0,0-.57,1.41c.11.7-.08.92-.78,1.09l-1.1.19a2.46,2.46,0,0,1-.52-2.3,1.11,1.11,0,0,0-.26-1.17c-.36,0-.41.33-.47.6-.24.89-.62,1.1-1.53.81a3.74,3.74,0,0,0-.29.39,2.22,2.22,0,0,0-.24.41l-1.18-.81a4.13,4.13,0,0,0-.63.68.52.52,0,0,1-.66.39c-.33,0-.62-.19-.63-.57a2.21,2.21,0,0,1,.08-.65c.16-.53.39-1.05.52-1.61a1.85,1.85,0,0,1,.65-1.07c.55-.49.29-1.17-.49-1.33-.08,0-.21,0-.23,0-.34-.79-1.15-.63-1.82-.88-.14.28-.27.5-.45.86-.28-.29-.52-.52-.78-.78-.37.23-.39.52-.29.91a2.89,2.89,0,0,1-.37,1.88,5.86,5.86,0,0,0-.78-.24.57.57,0,0,1-.55-.57c0-.84-.54-1.54-.58-2.35,0-.2-.13-.42-.06-.58.37-.86-.15-1.43-.7-2a3.76,3.76,0,0,0,.08-2.79.69.69,0,0,0,.19-.07,3,3,0,0,1,.33.18c.58.36.78.26,1.07-.31.6-1.12,1.22-2.24,1.85-3.34a.74.74,0,0,1,.24-.34,23.32,23.32,0,0,0,3.21-3.81c1.49-1.87,3-3.75,4.54-5.63a15.74,15.74,0,0,0,2.5-3.83,1.75,1.75,0,0,1,.24-.36c1.31-1.91,2.73-3.81,3.94-5.79a17.34,17.34,0,0,0,2-3.29,6.77,6.77,0,0,1,1-1.59c.78-1.14,1.57-2.25,2.33-3.39.54-.84,1-1.74,1.51-2.58,1.15-1.69,2.32-3.36,3.49-5,.73-1.09,1.43-2.17,2.18-3.28.18-.26.34-.52.53-.76.81-1.06,1.66-2.11,2.47-3.17l5.86-7.71c.36-.49.73-1,1.1-1.43,0-.06,0-.13.08-.16,1.22-.71,1.59-2.11,2.58-3a7.17,7.17,0,0,1,.84-.71,17.55,17.55,0,0,0,2.48-2.14,7.22,7.22,0,0,1,3.23-2c.55-.15,1-.57,1.51-.47.29.34.53.63.81.94a3.1,3.1,0,0,1,.55-.29c.15,0,.37,0,.44,0s.1.31.08.45c-.11.31-.24.62-.39,1,.23.18.41.34.63.5.58-.26,1.09-.67,1.82-.37,0,.31-.08.7.06.94a1.48,1.48,0,0,1-.18,2,.41.41,0,0,0-.06.4,7.16,7.16,0,0,1,0,1.67,1.41,1.41,0,0,1-.44,1.06,7.59,7.59,0,0,0-1.51,3,1.64,1.64,0,0,1-.57,1c-.28.23-.53.5-.23.94a1.25,1.25,0,0,1-.07.86c-.46,1.12-.93,2.24-1.46,3.33a14.65,14.65,0,0,1-1.19,1.66c-.1.13-.29.24-.32.39-.37,1.38-1.7,2.14-2.35,3.33a1.82,1.82,0,0,0-.27.44,24.43,24.43,0,0,1-2,3.93,1.7,1.7,0,0,0-.13,1.61,4.27,4.27,0,0,0,1-.15,3.58,3.58,0,0,1,2.14-.18c.13,0,.26.06.34,0,.76-.15,1.51-.34,2.27-.45a2.65,2.65,0,0,1,.94.07c.19,0,.42.21.57.15.86-.39,1.82,0,2.69-.29.19-.08.49.06.73.15a1,1,0,0,0,1.41-.39c.2-.24.42-.46.75-.36a1.12,1.12,0,0,0,.91-.16,3.62,3.62,0,0,1,1.9-.23,2.15,2.15,0,0,0,1.18-.28,2.42,2.42,0,0,1,1.74-.34,11.77,11.77,0,0,0,1.85-.1l5.73,0a1.68,1.68,0,0,1,.31.08c.06.44.1,1,.75,1a.51.51,0,0,1,.2.18,1.76,1.76,0,0,0,1.3.93c.13,0,.37.06.39.16.28.81,1.17.88,1.77,1.26,0,.62-.1,1.17.39,1.64.26.26-.06.65-.45.68-.75,0-.81.11-.53.76.18.44.21.44-.13,1.05l-.58-.26a.48.48,0,0,0-.16.06c-.11.24-.24.47-.37.73-.24.58-.49,1.17-1.2,1.33a.57.57,0,0,0-.18.07c-1,.73-2,1.44-3,2.21a2.57,2.57,0,0,1-1.07.55c-.47.1-.94.34-1.43.42a5.64,5.64,0,0,0-2,.6.35.35,0,0,1-.26,0,3.54,3.54,0,0,0-2.09.08,2.23,2.23,0,0,1-.87,0,2.71,2.71,0,0,0-1.79.21.9.9,0,0,1-.42,0,6.12,6.12,0,0,0-3.72.73,8.92,8.92,0,0,1-1.53.63c-.46.13-.81.32-.89.8a2.46,2.46,0,0,0-.86-.24c-.26,0-.49.29-.68.49s-.33.45-.11.67a.89.89,0,0,0,.68.24c1.44-.55,3-.23,4.46-.55.21,0,.42-.13.67-.21a8.79,8.79,0,0,1,3.07-.47,4.06,4.06,0,0,1,.5.18c-.44.28-.75.54-1.25.44a.21.21,0,0,0-.14,0c-1,.42-2.08.11-3,.68a2.82,2.82,0,0,1-.78.16c-.89.21-1.8.5-2.69.65-1.44.24-2.94.32-4.37.6a18.24,18.24,0,0,1-3.38.37c-.19,0-.37.16-.57.21s-.65.19-.86-.31a6.76,6.76,0,0,1,1-.49,3,3,0,0,0,1.4-.67.67.67,0,0,1,.58-.08c.49.26,1,0,1.49,0,0-.26,0-.47,0-.65a1.8,1.8,0,0,0-1.67-.21,8.73,8.73,0,0,1-2.61.36c-1.23.13-1.66.79-1.17,2a10.53,10.53,0,0,1-1.09,1,1.06,1.06,0,0,0-.4,1c0,2,0,4,0,6,0,1.64-.1,3.28-.1,4.9a4.14,4.14,0,0,1-.4,2.21,1.5,1.5,0,0,0-.13.67c0,1.28.11,2.58.11,3.88s0,2.3,0,3.47a37.41,37.41,0,0,0,0,5.06c0,.65,0,1.3,0,1.95a2.28,2.28,0,0,0,0,.75,7.11,7.11,0,0,1-.06,3.1,5.09,5.09,0,0,0,0,1.49,1.14,1.14,0,0,1-.44,1.27c-.29.24-.54.52-.81.78a1.37,1.37,0,0,0-.32,1.18c0,.31.13.62.13.91a1.4,1.4,0,0,1-.19.78,5.63,5.63,0,0,0-.93,2.61,4.72,4.72,0,0,1-.19,1.07.89.89,0,0,1-.93.65,1,1,0,0,0-.55.15c-.81.54-1.05.49-1.54-.36,0,0,0,0,0,0-1-.32-1.31.29-1.72,1.1a3,3,0,0,1-.32-.68c-.06-.39,0-.78-.1-1.17s-.37-.7-.91-.6a1.75,1.75,0,0,1-.44.1,2.27,2.27,0,0,1-.52-.23c.08-.13.13-.28.23-.41s.33-.26.41-.42q.32-.56-.39-.83a1.23,1.23,0,0,1-.32.23,2.64,2.64,0,0,0-1.7,1.69c-.1.23-.37.39-.6.63a3.53,3.53,0,0,1,0-2.68c.42.13.65-.06.91-.44a5.81,5.81,0,0,0,.59-2.13c-.16,0-.37,0-.39,0-.24.47-.42,1-.65,1.49l-.83-.32c-.44.31-.55,1-1.35,1.1,0-.28,0-.54-.08-.79a1.71,1.71,0,0,0,0-.65.8.8,0,0,0-.42-.47c-.08,0-.31.18-.45.29s-.42.46-.65.7c-.39-.42-.75-.81-1.1-1.18a.4.4,0,0,1-.1-.24,8.21,8.21,0,0,1-.26-2.24,12.57,12.57,0,0,0,0-1.92,2.47,2.47,0,0,1,.19-1.23,3.76,3.76,0,0,0,.26-1.95,5.94,5.94,0,0,1,.06-2.4,8.06,8.06,0,0,0-.08-2c0-.75-.11-1.49-.1-2.24s.21-1.33.28-2a8.18,8.18,0,0,0,0-1.25,6.84,6.84,0,0,1-.11-1.91,1.92,1.92,0,0,0-.2-1,.58.58,0,0,0-.39-.34.69.69,0,0,0-.47.26,2.79,2.79,0,0,0-.36.68" transform="translate(-40.58 -102.12)"/><path class="cls-2" d="M421.55,407.1l-1.27.57c-.06-.24-.18-.46-.21-.67s-.08-.57-.18-.83-.39-.57-.81-.31a.89.89,0,0,1-.23.1c-.73.19-.73.19-.58.84,0,.06,0,.11,0,.29l-1-.28c-.07-.6.68-.91.31-1.53l-1.74.42-.83-.52a2,2,0,0,1-.42-.26c-.16-.08-.33-.29-.44-.26-.6.16-1-.24-1.56-.33a1,1,0,0,0-1,.41c-.31-.55-.52-1.23-1-1.49s-.57-.65-.86-.94a1.48,1.48,0,0,1-.24-.5l-1.09-.24c-.67-1-.65-1,.29-1.53,0-.57-.49-.91-.81-1.32-.1-.13-.24-.26-.26-.41a1,1,0,0,0-1.07-.89c-.1,0-.21-.15-.28-.34l.94.19c0-1.07-.75-1.7-.21-2.55l-.84-.11a2.54,2.54,0,0,0-.21-.55c.18-.1.33-.2.52-.29-.31-.19-.58-.41-1-.24a.43.43,0,0,1-.58-.36c-.11-.42-.39-.83-.08-1.28a.84.84,0,0,0,.11-.58,1.2,1.2,0,0,1,.52-1.4,2,2,0,0,0,.71-2.21.81.81,0,0,1,.13-.84c.26-.26,0-.58-.08-.86-.21-.54-.62-1.05,0-1.61,0,0,0-.11,0-.16a2.28,2.28,0,0,1,.81-2.13c.13-.08.07-.31.11-.47.19-.68.41-1.35.6-2a2.91,2.91,0,0,0,.11-.32,8,8,0,0,1,1.41-3.05c.52-.81,1-1.69,1.43-2.51a3.74,3.74,0,0,1,1.23-1.51c.13-.1.29-.28.28-.39-.08-.58.39-.92.57-1.43l.37,0c.7.11.88,0,1.23-.52a9.77,9.77,0,0,1,.73-1.15c.67-.84,1.41-1.64,2.06-2.5a14,14,0,0,0,.94-1.49c.41.11.67-.21,1-.6.62-.75,1.32-1.44,2-2.14.06-.1.26-.1.39-.15a1.36,1.36,0,0,0,.47-.18c.76-.59,1.49-1.2,2.26-1.75.58-.42,1.23-.78,1.85-1.15l1.58-.92a2.39,2.39,0,0,0,.6-.47,2.13,2.13,0,0,1,1.14-.78,3.63,3.63,0,0,0,.68-.49,5.41,5.41,0,0,1,1.07-.7,4.35,4.35,0,0,0,2.19-1.49,1,1,0,0,1,.91-.39,7.72,7.72,0,0,0,1.48-.18c.45-.08.89-.28,1.35,0a.3.3,0,0,0,.16,0c1-.18,1.56.49,2.32.88a2.36,2.36,0,0,0-.11.75c0,.21.11.54.32.62s.44-.07.67-.18a3.23,3.23,0,0,0,.5-.42,3.22,3.22,0,0,0,1.43,1.51c.06,0,.18.08.19.15.11.63.63.65,1.27.65a5.73,5.73,0,0,1-.21.76c-.18.46-.52.88-.24,1.43a.6.6,0,0,1-.18.54c-.68.58-1.07,1.44-1.85,2a1.06,1.06,0,0,0-.31.29,5.17,5.17,0,0,1-2.11,1.69,7.65,7.65,0,0,0-1.66,1.36,31.39,31.39,0,0,0-3.49,3.1,10.45,10.45,0,0,1-2.13,2.09,6.62,6.62,0,0,0-1.51,1.57,11.14,11.14,0,0,1-2.6,2.94c-.08,0-.1.18-.15.26-.57.89-1.1,1.8-1.67,2.68a14.33,14.33,0,0,0-2.17,4c-.41,1.35-1.14,2.61-1.54,4a9.35,9.35,0,0,0,.07,6.64,3,3,0,0,0,3.12,1.59,7.63,7.63,0,0,0,2.89-1.23,3.46,3.46,0,0,1,1.78-.84,1.32,1.32,0,0,0,.75-.55,9.82,9.82,0,0,1,2.73-2.24c.58-.36,1.12-.73,1.67-1.12A16.16,16.16,0,0,1,439.2,386c1-.32,2-.44,3-.75a4.64,4.64,0,0,1,2-.34c.6.06.94-.41,1.36-.67a3.65,3.65,0,0,0,1.56-1.54,2.66,2.66,0,0,1,1.48-1.26c.15-.07.36-.15.42-.28a3.81,3.81,0,0,1,1.53-1.38,3.64,3.64,0,0,0,1.3-1.33,1.56,1.56,0,0,1,1.17-.78,12,12,0,0,0,2-.75c.23-.1.37-.39.63-.63a2.43,2.43,0,0,0,2.35-1.35c.19.42.34.71.44,1a3.6,3.6,0,0,1,.23,2.6.5.5,0,0,0,.24.71.47.47,0,0,0,.7-.31,5.39,5.39,0,0,1,1.38-1.82,4.89,4.89,0,0,1,.52-.34c.39.62,0,1.18,0,1.74s-.19.91-.26,1.33c.58.31.63-.29,1-.42a.8.8,0,0,1-.06,1,16,16,0,0,1-2.19,3.34,5,5,0,0,0-.57.94,2.57,2.57,0,0,1-.29.44c-.31.37-.65.75-.92,1.05.13.39.18.66.26.92,0,0-.07.1-.13.21l-.57-.26c0,.08-.13.18-.13.23.36.66,0,1.23-.36,1.75-.65,1-1.41,2-2.18,3a13.17,13.17,0,0,1-1.18,1.17l-.39-.31c-.29.16-.52.31-.29.7a1,1,0,0,1-.26,1.15,14.58,14.58,0,0,0-1.69,2.45c-.47.67-1.06,1.27-1.56,1.92a4.25,4.25,0,0,0-.5.78,1,1,0,0,1-.94.73.78.78,0,0,0-.65.88c.13,1.85-1,3.2-1.9,4.63-.29.49-.62,1-.91,1.46a1.42,1.42,0,0,0-.21,1.49.86.86,0,0,1,0,.67c-.23.55-.34,1.15-.54,1.7a7.15,7.15,0,0,1-1.05,1.4c-.11.16-.26.31-.37.49-.93,1.56-1.87,3.12-2.79,4.69-.39.68-.72,1.4-1.1,2.08-.21.37-.47.71-.7,1.07-.6.93-1.25,1.84-1.8,2.81-.28.5-.62,1-.89,1.49a8.09,8.09,0,0,0-.49,2.11,5,5,0,0,0-.1.62c-.26-.32-.42-.55-.6-.73s-.68-.24-.81.16a4.76,4.76,0,0,0-.24,1.15c0,.54-.19,1-.86,1.1-.36.07-.6.52-1.12.34-.08,0-.41.28-.44.44,0,.36-.21.42-.49.57s-.39.52-.6.84c-.54.08-.68-.42-.73-.73-.08-.55-.1-1-.84-1.1-.2,0-.34-.36-.49-.52-.86.47-1.69.92-2.58,1.4-.16-.23-.37-.41-.37-.58a2.81,2.81,0,0,0-.91-1.61,2.11,2.11,0,0,1-.46-1.9,2.42,2.42,0,0,0,0-.91c0-.24-.14-.52-.07-.73a11.7,11.7,0,0,1,1.12-3.17,9.34,9.34,0,0,0,.63-1.14l.65-.07c0-.1.06-.13.08-.19l1.1-1.82c.16-.23.36-.44.55-.66s.1-.45-.06-.68a2.62,2.62,0,0,0-1.51-1.12,1.85,1.85,0,0,0-.63,1.46c0,.36-.13.62-.6.55,0-.08,0-.18,0-.24a2.93,2.93,0,0,0,.49-1.82.52.52,0,0,1,.16-.41c.47-.34.34-.81.26-1.2.45-.39.83-.75,1.27-1.15.41.6.88,1,.53,1.79a1.58,1.58,0,0,0,.31,1.62,4.06,4.06,0,0,0,.84-.6,5.12,5.12,0,0,0,.79-1.18,1,1,0,0,0,0-1c-.16-.29,0-.78.1-1.25a8.57,8.57,0,0,0-.81-.31c-.37-.13-.55-.31-.33-.68a1.92,1.92,0,0,0,.1-.33c.14-.6-.1-.81-.73-.66a1.91,1.91,0,0,0-.28.08l-.83-1.59a4.15,4.15,0,0,1-.6,0,2.53,2.53,0,0,1-1.74-.86,2,2,0,0,0-1.38-.83c-.39,0-.75-.47-1.17-.78" transform="translate(-40.58 -102.12)"/><path class="cls-2" d="M317.25,334.43c0,.84,0,.84.31,1.25.13-.41.28-.79.45-1.38l-.76.13m40.13-.36a10.72,10.72,0,0,0-2.66-2.22,4.35,4.35,0,0,0-2.34-.92c-.2,0-.4-.2-.6-.31a3.79,3.79,0,0,0-.62-.34c-1-.39-2.06-.68-3.05-1.14a9.65,9.65,0,0,0-4-.83c-1.59,0-3.2.21-4.79.34a1.52,1.52,0,0,0-.49.19,9.23,9.23,0,0,1-1.57.49,6.2,6.2,0,0,0-3.38,1.56,9.19,9.19,0,0,0-3,3.72,4.27,4.27,0,0,1-.32.6,1.76,1.76,0,0,0,.16,2.19c.83.89,1.7,1.72,2.52,2.6s1.85,2,2.79,2.94a10.21,10.21,0,0,0,1.27,1.27,9.19,9.19,0,0,1,2.06,2.14,2.38,2.38,0,0,0,1.62,1.2,11.61,11.61,0,0,0,3.42.18,4.75,4.75,0,0,1,2.65.11,5.64,5.64,0,0,0,1.66.18,2.91,2.91,0,0,0,.81-.26,6,6,0,0,1,1.38-.52,11,11,0,0,0,3.72-1,1.69,1.69,0,0,1,.76-.16,8.29,8.29,0,0,0,2.23-.71,5.68,5.68,0,0,1,.79-.28c1-.13,1.59-.88,2.3-1.44a.94.94,0,0,0,.32-.76c-.23-.7.34-1.06.5-1.58.86.08,1,0,1-.65a5.7,5.7,0,0,0-1-3.34c-.24.16-.37.29-.62.47-.24-.55-.46-1.07-.71-1.57a6.12,6.12,0,0,0-.7-1c-.2-.24-.5-.39-.71-.62a1.35,1.35,0,0,0-1.49-.49m-41.85-7c.24.36.36.5.5.71.94-.68.86-2,1.85-2.66.26.89-.57,1.27-.86,2,.16.21.34.47.54.75a3.92,3.92,0,0,0,1.56-1.53c.33-.5.67-.92,1.45-.62a3.74,3.74,0,0,0,.49-.83,3.74,3.74,0,0,1,1.23-1.61c.7-.68,1.28-1.48,2-2.09a17.07,17.07,0,0,1,2.32-2.12,26.17,26.17,0,0,0,2.19-1.67c.65-.47,1.36-.87,2-1.35a7.09,7.09,0,0,0,1.22-1.09,3.81,3.81,0,0,1,1.7-.79c1-.36,2-.6,2.94-.91a25.13,25.13,0,0,1,5.41-1.07c.57,0,1.15-.13,1.74-.15a5.85,5.85,0,0,1,.92.11c.15,0,.33.11.39,0,.5-.34,1-.1,1.48-.06s1.17.15,1.74.19a18.64,18.64,0,0,1,6,1.69c.37.15.75.24,1.09.4a8,8,0,0,1,1.1.63c.18.1.33.28.49.36l3.88,1.87a22.91,22.91,0,0,1,4,2.55,32.68,32.68,0,0,1,3.21,2.91,11.78,11.78,0,0,1,1.57,2.3,1.34,1.34,0,0,0,1,.81c.75.15.94.44.67,1.15a2.7,2.7,0,0,0,.11,1.88c.34.88.54,1.79.83,2.66.21.66.57,1.28.78,1.95a6.67,6.67,0,0,1,.24,1.41c0,.47,0,.94,0,1.43a1.74,1.74,0,0,1-.47,1.33,1.18,1.18,0,0,0-.24.68c-.1.42-.18.83-.26,1.25-.1.6-.21,1.2-.31,1.82a11.67,11.67,0,0,1-1.93,4.77c-.14.21-.29.42-.45.63s-.2.29-.29.29c-.91,0-1.12.75-1.61,1.18-1.35,1.2-2.21,2.84-3.88,3.76-1.49,1.59-3.59,2.27-5.45,3.29-.54.29-1.25.36-1.66.91a.41.41,0,0,1-.21.1,5.56,5.56,0,0,0-2.65,1.18c-.06,0-.13.08-.18.06-.65-.06-1.19.42-1.8.47a10.78,10.78,0,0,0-2.29.58,3,3,0,0,1-1.2.15,7.46,7.46,0,0,0-3,.41,1.25,1.25,0,0,0-.55.5,6,6,0,0,0-.44.76c-1.25-.18-1.25-.18-2.09.88-.21-.11-.47-.18-.6-.36a2.27,2.27,0,0,0-1.53-.81,3,3,0,0,1-1.43-.75,6.28,6.28,0,0,0-.65-.47c0,.52,0,.88,0,1.32a1.91,1.91,0,0,1-1.46-.78,4.13,4.13,0,0,0-1.2-1c-.1-.08-.41,0-.52.11a4.49,4.49,0,0,0-.45.65,10.46,10.46,0,0,1-2.74-1.1c-.44-.26-.76-.68-1.38-.7-.2,0-.44-.34-.62-.55l-.65-.66a1.26,1.26,0,0,0,.34,1.82c.54.39,1.12.75,1.67,1.12a2,2,0,0,1,.52.65c-.6-.23-1.09-.79-1.74-.26-.58-.41-1.09-.78-1.77-1.25a3,3,0,0,0-1.85-2.17,6.91,6.91,0,0,1-1.25-1,22.36,22.36,0,0,0-3.07-2.89,1.13,1.13,0,0,1-.31-.31,1.31,1.31,0,0,0-1.56-.6c-.41.11-.92-.21-1.51-.36a2.33,2.33,0,0,0,.24.68,4.54,4.54,0,0,0,.78.81,8.87,8.87,0,0,1,1.43,2.3,2.86,2.86,0,0,1,.11.91,1.76,1.76,0,0,1-.39-.13c-1.1-.88-2.16-1.75-3.23-2.63a9.23,9.23,0,0,1-3.23-5.48,6.1,6.1,0,0,0-.79-2.21,5.76,5.76,0,0,1-.81-2.81,7.73,7.73,0,0,1,0-1.93,47.72,47.72,0,0,1,1.38-7c.44-1.8.68-3.64,1-5.45a6.23,6.23,0,0,1,.31-.94" transform="translate(-40.58 -102.12)"/><path class="cls-2" d="M334.58,361.14c.31-.32.49-.49.84-.34a8.47,8.47,0,0,0,3,.33c.36,0,.76-.13.86.47a15,15,0,0,1-4.71-.45" transform="translate(-40.58 -102.12)"/><path class="cls-2" d="M381.59,382.54c.78,1.09.62,2.16-.28,2.56-.26-.47.18-.84.21-1.27s0-.86.06-1.3" transform="translate(-40.58 -102.12)"/><path class="cls-2" d="M325.44,358.74a2.26,2.26,0,0,1-1.83-1.38c1,.18,1.15,1.09,1.83,1.38" transform="translate(-40.58 -102.12)"/><path class="cls-2" d="M332.13,360.34a.7.7,0,0,1,.24.07l.29.26c-.18.21-.33.13-.54-.33" transform="translate(-40.58 -102.12)"/><path class="cls-2" d="M317.25,334.43l.76-.13c-.18.58-.33,1-.45,1.38-.28-.41-.28-.41-.31-1.25" transform="translate(-40.58 -102.12)"/><path class="cls-2" d="M163.62,171.4a27.21,27.21,0,0,0,2.89,1.56c1.51.63,2.84,1.61,4.28,2.37.14.07.24.23.39.32.31.24.6.62.94.71a3.05,3.05,0,0,1,1.64,1c0-.37.1-.57,0-.7-.18-.29-.42-.52-.63-.79-.33-.45-.63-.94-1-1.38-.86-1-2.19-1.33-3.18-2.11a5.72,5.72,0,0,0-1.43-.65l-3.25-1.38-.7,1m-11,18.89a1.63,1.63,0,0,0,.28.19,28,28,0,0,0,4.38,1.95c.68.26,1.33.57,2,.78.88.26,1.77.45,2.63.68a6.5,6.5,0,0,0,2.43.21c.86-.08,1.3-.49,1.35-1.12a4.28,4.28,0,0,0-.63-2.69,5.3,5.3,0,0,0-1.9-1.61c-1.31-.76-2.56-1.64-4.25-1.38-.94-.29-1.85.15-2.76.23a8.33,8.33,0,0,0-3,1.38c-.18.1-.31.4-.41.62a5.07,5.07,0,0,0-.2.76m-11.9-18.92c-.29.28-.5.65-.86.79s-.6.88-1.19,1c-.06,0-.06.16-.11.23a2.38,2.38,0,0,1-.39.42c-.33.31-.68.6-1,.91-.84.81-1.66,1.59-2.43,2.42a12.24,12.24,0,0,0-2.34,2.68,19,19,0,0,1-1.25,1.82c-.37.49-.84.93-1.2,1.43a17.08,17.08,0,0,0-1.52,2.27,34.41,34.41,0,0,0-1.33,3.2,2.6,2.6,0,0,0,0,2.14,4.85,4.85,0,0,0,.5-.7c.5-1,1-1.93,1.48-2.89a27.4,27.4,0,0,1,2.55-3.51,38.64,38.64,0,0,1,5.35-5.32c1.25-1.05,2.47-2.17,3.7-3.23.58-.47,1.25-.86,1.87-1.28.34-.21.73-.37,1.07-.6.78-.52,1.56-1.07,2.37-1.64l-.28-.57.67-.21c.28-.08.55-.13.86-.21,1-.29,1.93-.63,2.92-.88,1.75-.39,3.5-.75,5.29-1a1.77,1.77,0,0,0,1.15-.78c-.6-.52-.78-.52-4.11,0-.29-.47-.7-.55-1.2-.15a1.6,1.6,0,0,1-.68.16,6.53,6.53,0,0,0-2.09.54,6.23,6.23,0,0,1-3,.78,4.1,4.1,0,0,0-3.13,1.36s-.16.15-.21.13c-.63-.16-.7.36-.88.71a.88.88,0,0,1-.16.18l-.41-.11m-47.48-8.62a1.59,1.59,0,0,0,1.92.57,1.65,1.65,0,0,1,.65-.13c1,.13,1.92.26,2.89.45.31,0,.57.36.84.34a6.29,6.29,0,0,1,1.56.18c1.15.23,2.32.37,3.49.49a27.09,27.09,0,0,0,3.43.19c1.93-.08,3.85-.28,5.78-.44a3.38,3.38,0,0,0,3.13-1.95c.1-.24.33-.41.44-.63.31-.52.83-1.07.83-1.61a7.71,7.71,0,0,1,.34-2.73c.08-.21,0-.45,0-.67a12.64,12.64,0,0,0-.7-3.65c-.47-1.59-1.07-3.13-1.67-4.69-.39-1-.88-1.88-1.33-2.82a21.72,21.72,0,0,0-1.09-2.3c-.92-1.56-1.91-3.1-2.94-4.61a20.67,20.67,0,0,0-1.78-2.21,3.29,3.29,0,0,0-.89-.67.67.67,0,0,0-.62.11,16.89,16.89,0,0,0-.79,1.49c-.07.1-.07.26-.13.29-.86.26-1,1.12-1.48,1.69-.84,1-1.44,2.17-2.26,3.23a24.91,24.91,0,0,0-2,3.26,9.54,9.54,0,0,1-1.53,2.32,7.56,7.56,0,0,0-.89,1.25c-.59.88-1.15,1.75-1.72,2.63-.49.71-1,1.43-1.48,2.16-.8,1.27-1.54,2.56-2.32,3.83a18.45,18.45,0,0,0-1,1.64,18.12,18.12,0,0,0-.71,2.06c-.15.47.16.7.58.76s.94.1,1.48.15M125.6,226c-.76-1.53-.76-1.53-1.8-1.18-.23-.44-.45-.86-.65-1.28-.49-.89-.49-.89-1.46-1-.45-.47,0-1.27-.66-1.7l-.49.65c-.42,0-.5-.24-.47-.57.08-1.54,0-3.1.24-4.63a18.82,18.82,0,0,0-.21-4.28c-.14-1.62,0-3.28-.19-4.9a7.11,7.11,0,0,0-.33-2.73,2,2,0,0,1,.08-1.09A9.77,9.77,0,0,1,120,202a3.32,3.32,0,0,0,.18-1.74.77.77,0,0,1,.08-.41c.62-2.14,1.25-4.28,1.85-6.36-.19-.24-.5-.47-.45-.57.11-.33.33-.78.62-.89a.85.85,0,0,0,.5-.47c.79-1.54,1.56-3.08,2.35-4.64a.61.61,0,0,0,0-.52c-.32.37-.68.75-1,1.15s-.59.84-.86,1.27-.45.88-.73,1.3a3.06,3.06,0,0,1,.24-1.79c.11-.36.42-.73,0-1.07s-.78,0-1.15.13a.89.89,0,0,0-.42.31.75.75,0,0,1-.84.28,2.37,2.37,0,0,0-.84.18,20.28,20.28,0,0,1-3.67.93,17.07,17.07,0,0,0-1.95.52,6.26,6.26,0,0,1-1.64.21,13.33,13.33,0,0,0-3.5.08,12.93,12.93,0,0,1-2.51,0c-.83,0-1.64,0-2.47.07-.45,0-.89.06-1.33.06s-.71,0-1.06,0c-.07,0-.19,0-.24,0-.55.47-1.1,0-1.65,0-1.53-.18-3.05-.36-4.56-.6-1.31-.23-2.61-.54-3.93-.79-.54-.1-1-.08-1.57-.2s-1.28-.34-1.95-.5c-.34-.07-.7-.07-1-.11a3.42,3.42,0,0,1-.92-.11,6,6,0,0,0-2.45-.5,9.56,9.56,0,0,1-1.87-.45c-2.34-.47-4.66-.93-7-1.41-.54-.11-1-.34-1.54-.44a10.91,10.91,0,0,0-1.31,0c-.7-.57-.75-.58-1.48,0a2.19,2.19,0,0,0-2.69-.92c-.06,0-.13,0-.16,0-.94-1-2.29-1.3-3.57-1.7-1.54-.5-3.07-1.09-4.59-1.69-1.31-.52-2.69-.91-4-1.38-.76-.28-1.53-.6-2.27-.94a21.58,21.58,0,0,1-3.13-1.51,9.77,9.77,0,0,1-2.4-2.21,7.84,7.84,0,0,0-2.5-1.95c-.1-.07-.23-.07-.32-.13-.68-.45-.84-.7-.21-1.33.11-.15.23-.33.42-.55-.34-.32-.67-.65-1-1-.7-.65-1.38-1.3-2-2a.9.9,0,0,1-.24-.89,5.66,5.66,0,0,0-.28-1.66c-.11-.65-.21-1.32-.26-2a.64.64,0,0,1,.29-.47A2.5,2.5,0,0,0,42,161a1.06,1.06,0,0,1,.5-.62.63.63,0,0,0,.39-1c1-.23.78-1.05,1-1.64.39-.26.71-.52,1.09-.73a8.32,8.32,0,0,1,1-.44c.6-.23.71-.39.6-1,0-.29-.11-.6-.15-.91a2.09,2.09,0,0,1,1.41-1.82,7.93,7.93,0,0,1,1.46.1,1.17,1.17,0,0,1,1.56-.24c.65.36,1.23,0,1.85-.06s.92-.07,1.41-.1a5,5,0,0,1,1.28-.11,10.45,10.45,0,0,1,1.82.34,1.12,1.12,0,0,0,.92-.13c.45-.55,1.12-.44,1.69-.47a4.69,4.69,0,0,1,3.55,1.14,14.27,14.27,0,0,0,5.71,2.65,10.89,10.89,0,0,0,.72-.93c.27-.42.5-.88.75-1.33s.45-.91.68-1.36a3.07,3.07,0,0,1,.42-.63,9.15,9.15,0,0,0,1.51-2.45,3.05,3.05,0,0,1,.62-.84,4.29,4.29,0,0,0,.4-.52,11.35,11.35,0,0,1,1-1.66,18.78,18.78,0,0,1,1.25-1.72,10.16,10.16,0,0,0,1.1-1.8s0-.07,0-.08c.7-.81,1.43-1.62,2.11-2.45.11-.11.31-.26.31-.39,0-1,.87-1.54,1.38-2.26.08-.11.24-.2.29-.32a9.13,9.13,0,0,1,1.84-2.53c.57-.7,1-1.46,1.48-2.19.1-.13.23-.24.34-.37a12.94,12.94,0,0,0,1.87-2.17,3.71,3.71,0,0,1,1.48-1.36,5.09,5.09,0,0,0,.79-.78c.42-.49.83-1,1.27-1.46.18-.19.36-.39.52-.58a4.11,4.11,0,0,1,1.41-1.49c.83-.42.7-1.25-.15-1.72-1.23-.68-2.47-1.33-3.68-2-.91-.52-1.79-1.1-2.68-1.62a10.45,10.45,0,0,0-1.36-.62,6.11,6.11,0,0,0-1.8-.62,21.23,21.23,0,0,1-2.29-.49c-1.31-.24-2.61-.52-3.91-.76a6.22,6.22,0,0,0-2.61.23,5.68,5.68,0,0,1-2.61.08,1.78,1.78,0,0,0-.75.13l-2.21.55a2.23,2.23,0,0,1,.36-1.51.83.83,0,0,0,0-1,1.65,1.65,0,0,0-.07-.16,4.24,4.24,0,0,1-.19-4.07c.15-.37.37-.7.5-1.07a3.37,3.37,0,0,0,.16-.89c0-.32.08-.58.54-.65.23,0,.42-.26.6-.44s.44-.63.75-.8a1.15,1.15,0,0,0,.73-1.06,6.06,6.06,0,0,1,1.65-.83c1.14-.19,1.95-1,3-1.36a14.65,14.65,0,0,0,1.9-.78,9.29,9.29,0,0,1,3.2-.6c1.31-.16,2.61.18,3.91,0a9.16,9.16,0,0,1,4.12.63,1.24,1.24,0,0,0,.67.11,2.61,2.61,0,0,1,1.57.23,4.9,4.9,0,0,0,2.06.11,6.74,6.74,0,0,1,3.41.23c.49.19,1,.36,1.54.54.1,0,.23,0,.24.1.26.58.87.62,1.36.78a8.44,8.44,0,0,1,2.3,1.38,8.23,8.23,0,0,0,2.14,1.15,6.29,6.29,0,0,1,1.54,1,5.69,5.69,0,0,0,.6.49c.65.33,1.33.65,2,1,.42.19.86.39,1.26.6s1,.52,1.43.79c.58.08,1.22.16,1.84.26a3.07,3.07,0,0,0,.87.13c1.19-.1,1.67.65,2.09,1.51.16.37.29.73.83.76a.63.63,0,0,1,.37.31,2,2,0,0,1,.23.89c-.11.91.52,1.43,1.19,1.82a3,3,0,0,1,.88.75c.28.31.68.5,1,.81.45.47.91,1,1.38,1.49a5,5,0,0,0,.44.52,31.69,31.69,0,0,1,2.9,3.2c.5.55.89,1.23,1.36,1.83a10.36,10.36,0,0,0,.72.76c.06,0,.18.08.19.15.52,1.43,1.91,2.34,2.45,3.8a12.11,12.11,0,0,0,1.15,2c.58.91,1.15,1.83,1.72,2.76.44.75.88,1.53,1.3,2.29.16.32.2.7.34,1,.34.75.76,1.46,1.09,2.21s.73,1.74,1,2.61c.49,1.36,1,2.73,1.38,4.11a19.1,19.1,0,0,1,.55,2.73c.37,2.74.37,5.52.5,8.28,0,1,0,1.93,0,2.89a5.76,5.76,0,0,1-.14.73,7.93,7.93,0,0,0-.29,1.33,16,16,0,0,1-1.54,5.44c-.36.93-.65,1.88-1,2.82a3.42,3.42,0,0,0,.06.58,4.62,4.62,0,0,0,.86-.23c.37-.21.71-.5,1.09-.73s.78-.39,1.15-.62.42-.26.63-.39l.79-.52a13.52,13.52,0,0,0,2.16-1.23c.24-.21.7-.19,1.07-.26a6.53,6.53,0,0,0,1-.15c1.07-.42,2.24-.36,3.34-.68l1-.28c1.61-.36,3.2-.71,4.8-1,.39-.07.84.08,1.23,0a14.81,14.81,0,0,1,2.94,0,11.18,11.18,0,0,1,2.43.5c1.28.41,2.55.88,3.8,1.35a20.42,20.42,0,0,1,2.63,1.18,14.69,14.69,0,0,1,3.34,2.56c.46.47.8,1.09,1.57,1.27.33.06.59.52.84.81.42.44.84.86,1.23,1.35.54.68,1.25,1.23,1.79,1.9a16.92,16.92,0,0,1,2.53,4.43,8.66,8.66,0,0,1,.47,3.34c0,.94,0,1.87,0,2.79a12.15,12.15,0,0,1-.26,1.85c0,.26-.06.54-.06.81a.64.64,0,0,0,.65.81,8.26,8.26,0,0,0,.53,3,8,8,0,0,1,.29,5.5,15.7,15.7,0,0,1-2.19,4.77,11.73,11.73,0,0,1-2.74,2.39c-.08,0-.19.06-.21.11-.41.78-1.36.84-1.93,1.38a1,1,0,0,1-.72.23c-1.2-.26-2.27.26-3.39.44-.13,0-.23.06-.34.06-1.53-.06-3-.06-4.53-.19-.94-.1-1.88-.36-2.84-.55-1.32-.24-2.65-.47-4-.73-.49-.1-.94-.31-1.41-.44-1-.31-2-.57-3-.89a6.14,6.14,0,0,1-1.09-.54,29.1,29.1,0,0,0-2.63-1.36,11.24,11.24,0,0,1-4.24-2.37,4.81,4.81,0,0,0-1.4-.89c-.59-.31-.78-.24-1,.33a14.68,14.68,0,0,0-1,2.71c-.44,1.83-.75,3.7-1.14,5.55-.28,1.43-.67,2.81-.88,4.24a29.4,29.4,0,0,0-.23,3.8,2.67,2.67,0,0,0,.29,1.22,1.56,1.56,0,0,1,.1,1.31,2.2,2.2,0,0,0,.23,1.8c.32.59.6,1.22.92,1.82a.66.66,0,0,1,0,.78c-.73,1-.49,1.69.76,2.09a1.55,1.55,0,0,1-.5,2.09c-.13.08-.18.24-.28.33a1,1,0,0,0-.34,1.31l-1.95.75c-.11,0-.23.15-.33.11-.68-.28-1,.15-1.43.62a3.41,3.41,0,0,0-3.28.07,14,14,0,0,1-.59-1.56c-.06-.29-.16-.59-.45-.62a1.28,1.28,0,0,0-.7.26c-.14.1-.24.29-.37.34-.81.31-.83.88-.7,1.54a5.14,5.14,0,0,1,0,.88,1.15,1.15,0,0,0-.23,0c-.06-.34-.1-.7-.18-1,0-.18-.11-.42-.28-.47s-.36.07-.5.18c-.65.5-1.12.34-1.27-.44a1.61,1.61,0,0,1,0-.68,2.67,2.67,0,0,0-1-2.5,1,1,0,0,1-.46-1c.11-.65-.32-1-1-.92a2.9,2.9,0,0,0-.75.26" transform="translate(-40.58 -102.12)"/><path class="cls-2" d="M158.78,247.74a1.44,1.44,0,0,1-.47-1.51,3.59,3.59,0,0,1,.34-.88c.19-.34.23-.62-.11-.89a1.29,1.29,0,0,1-.36-1.17,14.78,14.78,0,0,1,.13-2.69c.14-.5,0-.83-.47-1.3-.37.19-.75.37-1.12.58a1.2,1.2,0,0,0-.5,1.17c0,.29,0,.58,0,1a1.39,1.39,0,0,1-.65-1.36,2.73,2.73,0,0,1,.55-1.4,6.55,6.55,0,0,0,1.28-2.3,1.81,1.81,0,0,1,.62-.91,3.84,3.84,0,0,0,1.09-1.41,4,4,0,0,1,.73-.92c.75-.68,1.54-1.31,2.27-2a9.22,9.22,0,0,1,1.87-1.77,3.78,3.78,0,0,0,.37-.45c.26-.31.49-.65.76-.94,1.28-1.33,2.56-2.65,3.86-4,1.46-1.48,2.86-3,4.17-4.58a12,12,0,0,1,1.61-1.88,16.87,16.87,0,0,0,2.24-2.58c1.14-1.33,2.22-2.71,3.36-4.06.78-.91,1.64-1.75,2.43-2.66.4-.49.78-1,1.17-1.49,1-1.27,2-2.56,3.1-3.8.88-1,1.88-1.91,2.82-2.87.39-.41.71-.84,1.1-1.23,1-1.07,2-2.12,3-3.18.58-.59,1.14-1.15,1.69-1.75.29-.32.39-.75.79-1.09,1.49-1.25,2.87-2.63,4.36-3.91.88-.79,1.85-1.46,2.76-2.21.75-.6,1.49-1.22,2.22-1.83a12.68,12.68,0,0,1,2.17-1.8c1.23-.62,2.19-1.54,3.39-2.16.81-.42,1.57-.91,2.34-1.36a2.21,2.21,0,0,1,1.36-.32,4.13,4.13,0,0,0,3.23-1.09,1.35,1.35,0,0,1,1-.23,3.93,3.93,0,0,0,1.83-.47,3,3,0,0,1,1.54-.49c.1,0,.28,0,.34-.06.44-.47,1-.36,1.56-.39a3.38,3.38,0,0,0,1.35-.39,5.8,5.8,0,0,1,2-.47c.34.39.6.88,1,1.09a4,4,0,0,0,1.49.18,5.11,5.11,0,0,0-.21,3.7c.16,0,.34.13.55.18a1,1,0,0,1,.68.6,1.35,1.35,0,0,0,.13.31,1.26,1.26,0,0,1,.11,1.78,5.91,5.91,0,0,1-1.46,1.88.4.4,0,0,0-.15.2c-1.17,2.29-3.08,4.07-4.61,6.1a8.78,8.78,0,0,1-.79.79c-1.18,1.23-2.38,2.48-3.6,3.7-1.05,1.07-2.22,2-3.15,3.18-1.57,1.95-3.36,3.72-5,5.63-.44.55-.83,1.15-1.27,1.72s-.7.83-1.06,1.23c-.89.91-1.36,2.11-2.42,2.91a.84.84,0,0,1-.1.15c-1.67,2.14-3.33,4.28-5,6.44-.83,1.06-1.72,2.09-2.55,3.15-1.06,1.35-2.11,2.71-3.16,4.07s-2.19,3-3.36,4.46c-.75,1-1.69,1.8-2.39,2.81a33.2,33.2,0,0,1-2.24,2.71c-.65.78-1.33,1.52-2,2.29-.37.45-.73.94-1.12,1.41a3.41,3.41,0,0,1-.41.55,3.79,3.79,0,0,0-1.12,1.69,1.17,1.17,0,0,1-.39.54c-.75.32-1.09,1-1.69,1.49a2.38,2.38,0,0,0-.63.91,9,9,0,0,1-1.85,2.58,2,2,0,0,0-.68,1.59,3.49,3.49,0,0,1-1.2,2.45,5.91,5.91,0,0,1-3.2,1.85,5.35,5.35,0,0,0-1.1.55.62.62,0,0,1,0-.84,1,1,0,0,0,0-1.35c-.24-.34-.45-.41-.81-.18a1.75,1.75,0,0,0-.18.16c-.92,1-1.85,2-2.74,3-.5.57-.91.62-1.3,0a8.07,8.07,0,0,1-.71-1.53,2.37,2.37,0,0,1,.08-1.15c.08-.34,0-.59-.31-.7a1.29,1.29,0,0,1-.81-.93c0-.13-.26-.21-.36-.29-.78.18-.84,1.12-1.67,1.28a2.27,2.27,0,0,0-1-1.46,1.09,1.09,0,0,0-1.51,0c-.21.21-.42.45-.68.73-.13-.19-.19-.36-.29-.47-.76-.75-.36-1.48,0-2.24a7.09,7.09,0,0,0,.5-1.59.86.86,0,0,0-.41-1,1.45,1.45,0,0,0-1.35.18,3,3,0,0,0-1.23,1.88,8.36,8.36,0,0,1-.44,1" transform="translate(-40.58 -102.12)"/><path class="cls-2" d="M202.83,269.16a.91.91,0,0,1-.31-1.07c.06-.39,0-.75-.52-.84a24.34,24.34,0,0,0-3.52,5.11.7.7,0,0,1,0-.94,21.06,21.06,0,0,0,1.05-1.85c.29-.63.15-.73-.37-1.18s-1.38-.81-1.43-1.74a.9.9,0,0,0-.5-.62c-.1,0-.41.24-.59.39s-.29.36-.5.47c-.54.33-1.12.6-1.74.92a5.19,5.19,0,0,1-.65-.91,1.06,1.06,0,0,1,0-.78c.23-.54.55-1,.78-1.53a2.14,2.14,0,0,0,.11-.91.56.56,0,0,0-.37-.39.6.6,0,0,0-.49.24,4.52,4.52,0,0,0-.65,1.1c-.29.78-1,1-1.77,1.61,0-.49,0-.78,0-1.07a2,2,0,0,1,.2-.47c.18-.44.32-1-.15-1.23a1.45,1.45,0,0,0-1.56-.15,1.78,1.78,0,0,0-.89.79,2.12,2.12,0,0,1-.44.57c-.31-.31-.54-.65-.37-1a3.47,3.47,0,0,0,.19-1.9,8.11,8.11,0,0,1,.44-2.48c.36-1.91.76-3.83,1.14-5.75a6.41,6.41,0,0,0,0-1c-.44-.11-.49.16-.62.39-.5.88-1,1.75-1.57,2.63,0,0-.1.07-.28.13.13-.31.19-.58.31-.8.5-.76,1-1.53,1.54-2.29.28-.45.54-.94.83-1.38.94-1.31,1.9-2.65,2.86-3.94.49-.65,1.05-1.23,1.57-1.85s1.07-1.27,1.59-1.9c.86-1,1.69-2,2.58-2.9s2-1.85,3-2.77c.06-.07.15-.15.23-.15,1-.19,1.48-1,2.29-1.49s1.56-1,2.34-1.53c1.88-1.22,3.75-2.43,5.63-3.64,1-.62,2-1.17,2.91-1.77.42-.26.75-.63,1.15-.92.79-.58,1.59-1.14,2.4-1.74.45-.34.91-.72,1.36-1.06a4.48,4.48,0,0,1,3.46-.65,1.9,1.9,0,0,0,1.75-.58,1.08,1.08,0,0,1,1.09-.34,19.34,19.34,0,0,0,2.42.21c.1,0,.19-.06.31-.1,1.22-.54,2.42-1.07,3.62-1.57a3,3,0,0,1,1-.13c.63,0,1.07.21,1.14.93,0,.26.24.52.36.81l1.33-.23c-.16.5-.29.91-.41,1.33s-.18.88-.26,1.33c0,.13-.11.26-.16.39-.33,1-.18,1.1.86,1.05a2.11,2.11,0,0,1,1.28.41,1,1,0,0,1,.06,1.25c-.24.42-.39.89-.63,1.31s-.5.73-.75,1.12a6.56,6.56,0,0,0-.57,1.05,11.53,11.53,0,0,1-2.69,4,1.28,1.28,0,0,0-.34.39,12.45,12.45,0,0,1-2.24,2.47,6,6,0,0,0-.79.91,22,22,0,0,1-3.68,4c-.57.57-1,1.23-1.59,1.82-1.7,1.8-3.46,3.55-5.11,5.39-1.33,1.46-2.58,3-3.85,4.53-.84,1.06-1.66,2.13-2.48,3.2-.1.13-.23.26-.32.41a16,16,0,0,1-2.83,3.46c-.86.88-1.83,1.67-2.71,2.52a8.69,8.69,0,0,1-2.82,1.85c-.2.08-.36.31-.55.42-.37.21-.75.39-1.12.57" transform="translate(-40.58 -102.12)"/><path class="cls-2" d="M192.39,182.13c-.94-.93-2-.58-3.05-.13a1.72,1.72,0,0,0,.23-.6,1.07,1.07,0,0,0-.36-.58c-.33-.37-.52-.34-1.64.08l-.75-.45-.75.28c0-1,.06-1.91,0-2.84a6.88,6.88,0,0,0-.18-1.15,10.53,10.53,0,0,0-.24-1.23,1.18,1.18,0,0,0-.31-.54c-.26-.16-.42.08-.57.26s-.31.34-.45.5c-.42-.13-.6-.36-.52-.71a4.55,4.55,0,0,0-.1-2.32,8.14,8.14,0,0,0-.47-1.74,1.11,1.11,0,0,1,.24-1.2,2.12,2.12,0,0,0,.55-1.56.53.53,0,0,1,.11-.39c.45-.49.91-.94,1.38-1.4.21-.23.52-.42.62-.7a2.31,2.31,0,0,1,.84-1.15c1.22-1,2.42-2.08,3.65-3.08a8.37,8.37,0,0,1,1.56-.81c.6-.28,1,.15,1.52.36.11.07.18.13.36.26,1-.23,2-.52,3-.71a6.41,6.41,0,0,1,1.36,0c.62,0,1.23.08,1.85.11a6.12,6.12,0,0,1,1.82.11c.79.34,1.88.39,2.17,1.46,0,.1.11.24.2.26,1,.18,1.33,1.22,2.31,1.31.19,0,.31.24.5.37a3.5,3.5,0,0,0,.6.47c1.09.58,1.26.92,1,2.11-.65.06-.65.06-1.69-.55a.78.78,0,0,0-.11,1.18,2.83,2.83,0,0,1,.44,2,4.48,4.48,0,0,1-.24.8c-.16.39-.37.76-.5,1.15a1.14,1.14,0,0,1-1,.84,4.2,4.2,0,0,0-2,1,41.37,41.37,0,0,0-4,3.59l-.06.07c-1.38,1-2.73,2-4.11,3-1,.71-2.11,1.41-3.28,2.19" transform="translate(-40.58 -102.12)"/><path class="cls-2" d="M235.12,213.56a2.19,2.19,0,0,0,.31-.07s0-.21,0-.21a.64.64,0,0,0-.31,0s0,.13,0,.26m-2,1.3a9.16,9.16,0,0,0,.28-1.14c.21-.88,0-1.25-.86-1.66-.16-.07-.31-.11-.37-.23-.6-.75-1.46-1.23-2-2.06a2.75,2.75,0,0,0-.72-.5,3.59,3.59,0,0,1,1.22-1.88,1.27,1.27,0,0,0,.37-1c-.31,0-.57-.11-.84-.16s-.52-.15-.47-.47c0,0,0-.06,0-.08a3.79,3.79,0,0,1,1.1-.45c.58-.06.29.68.78.86.5-.58,1-1.14.83-1.91a24.55,24.55,0,0,0,2.29-1,9.58,9.58,0,0,0,1.31-1,.59.59,0,0,1,.88,0,.63.63,0,0,0,.92,0,1.29,1.29,0,0,1,1.4-.2A.84.84,0,0,0,240,202c.47-.21.87-.49,1.31-.73.42.11.88.23,1.3.36a1.09,1.09,0,0,1,.81.73,3.56,3.56,0,0,0,.34.73l.66-.29a6.6,6.6,0,0,1,.91-.39,2.38,2.38,0,0,1,2.82.76.75.75,0,0,0,1,.32,1.29,1.29,0,0,1,.6-.1c.58,0,.75.24.6.76a9.5,9.5,0,0,1-.46,1.1,3.62,3.62,0,0,0-.31,1.9.58.58,0,0,0,.65.63c.18,0,.5.1.53.19.13.76.8,1.48.36,2.34a2.84,2.84,0,0,0-.23.55,2.7,2.7,0,0,1-1.48,1.77,10,10,0,0,1-1.77.89,5.91,5.91,0,0,1-.76.16,1.53,1.53,0,0,0-1.4,1c-.21.6-.57.71-1.2.75-1,0-2,.29-3.07.45-.16-.11-.34-.31-.58-.5-.58-.5-.58-.52-1.31-.1a.46.46,0,0,1-.73-.2,2.46,2.46,0,0,0-.2-.36c-.31-.45-.52-.47-.88-.1-.06,0-.08.1-.13.13-.26.26-.52.71-.81.71a2.14,2.14,0,0,1-1.38-.39,1.34,1.34,0,0,0-1.69-.16c-.1.07-.21.11-.29.16l-.19-.23" transform="translate(-40.58 -102.12)"/><path class="cls-2" d="M235.12,213.56c0-.13,0-.26,0-.26a.64.64,0,0,1,.31,0s0,.18,0,.21a2.19,2.19,0,0,1-.31.07" transform="translate(-40.58 -102.12)"/></svg>