<svg id="Layer_1" data-name="Layer 1" xmlns="http://www.w3.org/2000/svg" viewBox="0 0 362.66 105.82"><defs><style>.cls-1{fill:#fff;fill-rule:evenodd;}</style></defs><title>Artboard 1</title><path class="cls-1" d="M250,54.69a1.24,1.24,0,0,0-.87.58c-.09.13-.27.2-.36.33-.37.55-1.09.82-1.21,1.57a1.05,1.05,0,0,1-.3.55c-.36.35-.77.65-1.14,1a3.44,3.44,0,0,0-.39.53c-.47-.15-.67.24-.84.56s-.49.75-1,.68a.37.37,0,0,0-.29.1c-.36.51-1,.68-1.4,1.1s-1.07.68-1.47,1.19c-.17.23-.54.31-.82.45s-.4.12-.42.22c-.15.61-.68.66-1.12.82a3.61,3.61,0,0,0-1,.56,1.57,1.57,0,0,1-1.26.49.77.77,0,0,1-.87.55c-.6-.05-1,.42-1.54.51-.14,0-.26.26-.38.39-.79-.13-.85-.09-.78.6-.32,0-.64.07-.72.47,0,.06-.13.17-.18.16-.41-.11-.64.23-1,.43L230.1,68c-.29-.35-.47-.38-.86-.12-.12.08-.23.19-.36.26a1.78,1.78,0,0,1-.47.2,3.43,3.43,0,0,1-.8.11,5.58,5.58,0,0,1-.83-.15l0,.22,0,.21c-.38,0-.75,0-1.13.08a1.15,1.15,0,0,0-1,.83L224,69.4c-.18.11-.15.48-.48.38-.06,0-.18,0-.22.11-.27.41-.59.31-1,.14-.52-.24-.54-.21-.86.26a.49.49,0,0,1-.33.22,4.34,4.34,0,0,1-1-.06.72.72,0,0,0-.65.07c-.1.07-.35,0-.52-.11a4.94,4.94,0,0,1-.48-.3.41.41,0,0,0-.57.12,1.46,1.46,0,0,1-1.53.63.38.38,0,0,0-.3.06.76.76,0,0,1-.89.09.8.8,0,0,0-.71.05,3.78,3.78,0,0,1-1.37.24,1.42,1.42,0,0,0-1.4.63c-.12.19-.57.22-.87.25s-.77,0-1.16,0l-3.68.09a.86.86,0,0,0-.1-.3c-.42-.5-.68-.51-1.05,0a.62.62,0,0,1-.56.32c-.81,0-1.63,0-2.44,0a1.09,1.09,0,0,1-.62-.24,10.72,10.72,0,0,0-1.43-.65c-.23-.1-.45-.22-.67-.34l-1.81-.94.17.76a6.27,6.27,0,0,1-2.05-.57,6.6,6.6,0,0,0-.84-.27,1.09,1.09,0,0,1-.25,0,6.93,6.93,0,0,0-2.71-.66,3.07,3.07,0,0,1-1-.32c-.35-.14-.38-.22-.54-.89l.35-.3a5.26,5.26,0,0,0-1.3-1.63,1.46,1.46,0,0,1-.79-1.28c.64-.29,1.21.11,1.83.21,0-.06,0-.13,0-.16-.5-.5-1-1-1.5-1.47a5.18,5.18,0,0,0-1.45-.8,9.8,9.8,0,0,1-1.49-.94s0-.12,0-.23l1.58,0c-.43-.52-1.06-.36-1.44-.77.05-.33.23-.43.57-.31a1.84,1.84,0,0,0,1.48-.14.66.66,0,0,0-.56-.5,2.55,2.55,0,0,1-1.41-.69,3,3,0,0,1-1.87-1.6,1.7,1.7,0,0,0-.36-.33c.56-.4,1.17-.16,1.73-.26-.26-1-.19-1.31.88-1.71l-.22-.6a.77.77,0,0,1,.71-.45.56.56,0,0,0,.43-.21c.19-.4.5-.34.86-.37a9,9,0,0,1,2-.08c.08,0,.18,0,.25,0a18.36,18.36,0,0,0,2.9.45,4.22,4.22,0,0,0,1.06.2,9.09,9.09,0,0,1,2.56.56c.79.17,1,0,1.21-.77.35-1.41.75-2.8,1.09-4.21.21-.85.34-1.72.51-2.58l.09-.44c.08-.37.16-.74.25-1.11.16-.63.31-1.28.51-1.9a9.46,9.46,0,0,0,.54-2.35.88.88,0,0,1,0-.25,10.68,10.68,0,0,0,.66-1.79,24,24,0,0,1,1-2.8c.28-.94.63-1.86.88-2.81a8.65,8.65,0,0,0,.63-2.26,4.46,4.46,0,0,0,.69-1.63c.23-.8.47-1.59.7-2.38a5.06,5.06,0,0,0,.29-1c0-.54-.31-.88-.82-.72a1.2,1.2,0,0,1-.9-.12,4,4,0,0,0-.86-.18l-.81-.11-4.14-.44c-.55-.06-1.1-.16-1.64-.23a4.9,4.9,0,0,0-1.59,0,3,3,0,0,1-1.19-.12c-.41-.09-.81-.24-1.31-.4l.67-.47c-.19-.45-.62-.51-1-.67a1.66,1.66,0,0,1-.8-.56,1.87,1.87,0,0,0-1.21-.65,2.7,2.7,0,0,1-1.41-.48l.39-.51c-.42-.49-.18-.89.18-1.28,0,0,.12-.08.13-.13a1.75,1.75,0,0,1,.76-1,3.24,3.24,0,0,1-1.85-1.56c.41-.4.41-.4,1,.11.05,0,.14-.06.15-.1,0-.51.35-.65.78-.75.7-.15,1.4-.34,2.09-.55a4.85,4.85,0,0,0,.82-.43,10.06,10.06,0,0,0,3.21-1l2.12-.27c1.44-.2,2.86-.43,4.3-.59.75-.08,1.51,0,2.27,0s1.22-.1,1.83-.15l.58,0c.74,0,1.48,0,2.22,0l3.52-.07a5.32,5.32,0,0,1,.64,0c1,.1,1.95.24,2.93.29a25.18,25.18,0,0,1,3.79.48,20.81,20.81,0,0,0,2.31.49,17.29,17.29,0,0,1,3.85.91c1.27.41,2.48,1,3.72,1.54l.35.16a28.08,28.08,0,0,1,3.44,2,6.88,6.88,0,0,0,1.49.73,4.62,4.62,0,0,1,1.2.71c1,.79,2.09,1.56,3.14,2.32.61.44,1.23.84,1.85,1.26a1.11,1.11,0,0,1,.25.19,4.71,4.71,0,0,0,1.4,1.21A14.36,14.36,0,0,1,246.93,28a29.34,29.34,0,0,1,3.38,4.82A13,13,0,0,1,251.57,36c.08.29.17.57.24.86a20.48,20.48,0,0,1,.55,4.18c0,.25,0,.51,0,.77A20.46,20.46,0,0,1,251.9,47c-.19.85-.31,1.72-.52,2.57-.13.54-.37,1-.54,1.57s-.27.84-.41,1.27a2.89,2.89,0,0,1-.17.54A2.67,2.67,0,0,0,250,54.69Zm-13.15-7.52c.05-.29.1-.51.13-.73a1.52,1.52,0,0,0,.06-.63,1.44,1.44,0,0,1,.37-1.41,1,1,0,0,0,.2-.71,9.19,9.19,0,0,0-.12-1.33,3,3,0,0,0-.32-1.15,3.9,3.9,0,0,1-.23-.85,3.33,3.33,0,0,0-.32-.81c-.41-.62-.85-1.22-1.3-1.81a10.12,10.12,0,0,0-.94-1,6.24,6.24,0,0,0-1-.85c-1.19-.74-2.1-1.91-3.47-2.39a3,3,0,0,1-.49-.29,20.26,20.26,0,0,0-3.79-2.1,9.52,9.52,0,0,1-1.87-.53s-.13,0-.19,0c-.52-.23-1.05,0-1.58-.06a.53.53,0,0,0-.65.46,3.36,3.36,0,0,1-.35,1,1.37,1.37,0,0,0-.15,1,1.22,1.22,0,0,1-.08.6,4.61,4.61,0,0,0-.53,1.76c0,.09-.08.19-.11.29a17.35,17.35,0,0,0-.93,3.16,6.19,6.19,0,0,1-.29.84,7,7,0,0,0-.42,1.7,1.94,1.94,0,0,1-.46,1.23,1,1,0,0,0-.28.81c.19,1.34-.35,2.58-.55,3.87-.09.54-.25,1.07-.38,1.6-.06.25-.11.49-.17.74a5.86,5.86,0,0,0-.35,1.54,4,4,0,0,1-.18,1.3c-.09.33-.19.66-.25,1a17.94,17.94,0,0,0-.33,1.8c-.05.49.16.66.65.62.32,0,.63-.09.95-.13l2.89-.4a1.87,1.87,0,0,0,1.08-.31.87.87,0,0,1,.41-.12A11.58,11.58,0,0,0,223,54.5a4.1,4.1,0,0,1,2.05-.46.52.52,0,0,0,.25,0,13.67,13.67,0,0,1,2.49-.69A8.12,8.12,0,0,0,231,52c.69-.41,1.34-.88,2-1.35s1.34-1,2-1.49c.39-.32.69-.76,1.09-1.07a.88.88,0,0,0,.44-.86Z"/><path class="cls-1" d="M305.39,70.67a1.34,1.34,0,0,0-.72,1.27.49.49,0,0,1,0,.19,9.89,9.89,0,0,0-.4,2.4,15.61,15.61,0,0,0-.19,1.77c0,.31-.06.63-.13.94a4.39,4.39,0,0,0-.05,2.32c0,.05,0,.12,0,.23l-.5.12a1,1,0,0,0,.1,1.14c.3.44.26.65-.15,1l-.64.48a1.91,1.91,0,0,1-1.11-1.4c-.15-.44-.12-.45-.55-.72-.22.15-.16.34-.12.56.14.68,0,.95-.73,1,0,.12-.05.24-.06.36a3.28,3.28,0,0,0,0,.35l-1-.19a2.36,2.36,0,0,0-.17.66c0,.27-.07.42-.3.48a.49.49,0,0,1-.62-.19,1.5,1.5,0,0,1-.16-.47c-.07-.42-.1-.85-.19-1.26a1.45,1.45,0,0,1,.06-.92c.22-.51-.18-.9-.74-.77-.06,0-.15.07-.17,0-.48-.44-1-.07-1.47,0,0,.23,0,.43,0,.74l-.76-.3c-.18.27-.08.48.1.73a2.14,2.14,0,0,1,.38,1.39,3.52,3.52,0,0,0-.58.08.44.44,0,0,1-.55-.21c-.26-.59-.85-.89-1.15-1.42-.08-.13-.22-.25-.22-.38,0-.71-.58-.93-1.13-1.17a3,3,0,0,0-.85-1.94l.1-.09h.27c.49.06.59-.06.6-.54,0-1,.06-1.91.1-2.86a.8.8,0,0,1,0-.31,16.77,16.77,0,0,0,.85-3.6c.37-1.75.75-3.51,1.12-5.26a11.62,11.62,0,0,0,.38-3.41,1.63,1.63,0,0,1,0-.32c.24-1.73.53-3.46.68-5.2a13.2,13.2,0,0,0,.2-2.86,5.43,5.43,0,0,1,.12-1.4c.13-1,.3-2,.41-3,.08-.75.07-1.5.16-2.24.18-1.51.4-3,.6-4.53.13-1,.22-1.95.34-2.92,0-.23.06-.47.11-.7.19-1,.39-2,.57-2.92q.66-3.56,1.3-7.11l.24-1.32s0-.1,0-.13c.55-.88.35-1.94.7-2.87a4.62,4.62,0,0,1,.31-.76,11.89,11.89,0,0,0,.91-2.23,5.34,5.34,0,0,1,1.47-2.36c.3-.25.44-.69.82-.79l.83.4a2.12,2.12,0,0,1,.26-.37c.08-.07.23-.14.31-.11a.41.41,0,0,1,.19.29c0,.25,0,.5.07.78l.57.14c.29-.36.5-.79,1.08-.82.1.2.16.51.34.63a1.15,1.15,0,0,1,.51,1.4.4.4,0,0,0,.09.29,5.13,5.13,0,0,1,.57,1.13,1.16,1.16,0,0,1,.06.86,5.91,5.91,0,0,0,0,2.52,1.33,1.33,0,0,1,0,.86c-.12.24-.19.51.16.72.15.09.22.39.23.61.07.91.14,1.82.14,2.73a9.51,9.51,0,0,1-.23,1.5c0,.13-.11.26-.08.37.21,1.05-.41,2-.44,3a2.19,2.19,0,0,0,0,.38,18.17,18.17,0,0,1,0,3.33,1.35,1.35,0,0,0,.44,1.14,3.33,3.33,0,0,0,.6-.42,2.64,2.64,0,0,1,1.35-.79.57.57,0,0,0,.24-.08c.44-.34.86-.7,1.31-1a2.3,2.3,0,0,1,.64-.25c.14,0,.35,0,.42-.07.44-.54,1.18-.58,1.66-1,.11-.11.35-.11.53-.13.51-.05.68-.19.79-.71.05-.23.13-.44.37-.48a.76.76,0,0,0,.54-.39,2.54,2.54,0,0,1,1.17-.76,1.4,1.4,0,0,0,.67-.55,1.77,1.77,0,0,1,1-.79,7.94,7.94,0,0,0,1.17-.64c1.24-.62,2.49-1.21,3.73-1.81a1,1,0,0,1,.22-.05c.19.29.37.63.83.48a.22.22,0,0,1,.17.06,1.35,1.35,0,0,0,1.15.22c.1,0,.27-.07.31,0,.45.47,1.06.24,1.56.32.2.43.32.82.79,1,.25.09.18.46-.08.61-.47.27-.48.33-.1.69s.29.24.28.76h-.48s-.07.05-.07.09a6,6,0,0,0,0,.62,1.38,1.38,0,0,1-.37,1.29.32.32,0,0,0-.08.1c-.41.81-.84,1.61-1.23,2.44a1.76,1.76,0,0,1-.52.71c-.28.22-.5.53-.79.74a4,4,0,0,0-1.09,1,.23.23,0,0,1-.16.09,2.38,2.38,0,0,0-1.34.71,1.49,1.49,0,0,1-.55.31,1.91,1.91,0,0,0-1.11.7.58.58,0,0,1-.27.15,4.3,4.3,0,0,0-2.19,1.67,5.48,5.48,0,0,1-.79.9.8.8,0,0,0-.31.83c-.24,0-.49,0-.65.11s-.21.35-.29.54-.05.42.15.49.43.05.52,0c.76-.83,1.87-1.09,2.72-1.77a5.06,5.06,0,0,0,.37-.35,5.89,5.89,0,0,1,1.86-1.28,1.49,1.49,0,0,1,.4,0c-.21.32-.33.6-.67.68,0,0-.1,0-.12,0-.48.58-1.32.73-1.73,1.4-.1.15-.3.23-.45.35-.52.43-1,.91-1.55,1.3-.86.62-1.8,1.14-2.64,1.77a12.83,12.83,0,0,1-2.09,1.31c-.12.06-.18.23-.3.32s-.35.33-.66.05a4.62,4.62,0,0,1,.48-.63,2.28,2.28,0,0,0,.7-.89.43.43,0,0,1,.34-.24c.42,0,.63-.29,1-.5l-.24-.43a1.26,1.26,0,0,0-1.15.38,6.39,6.39,0,0,1-1.59,1.07c-.78.47-.82,1.06-.11,1.71a8.52,8.52,0,0,1-.39,1,.82.82,0,0,0,.06.79c.65,1.37,1.32,2.73,2,4.1.53,1.12,1,2.26,1.54,3.38a3.43,3.43,0,0,1,.47,1.63,1,1,0,0,0,.12.5c.45.87.92,1.73,1.36,2.61s.77,1.57,1.12,2.37a35.24,35.24,0,0,0,1.66,3.46c.25.42.42.89.62,1.33a1.87,1.87,0,0,0,.26.52,5.43,5.43,0,0,1,1,2.13,3.52,3.52,0,0,0,.53,1,.88.88,0,0,1,.13,1,6.66,6.66,0,0,0-.27.78,1,1,0,0,0,.17.91,4.81,4.81,0,0,1,.38.58,1,1,0,0,1,.13.58,4.36,4.36,0,0,0,.25,2.07,5.24,5.24,0,0,1,.21.8.61.61,0,0,1-.38.73.67.67,0,0,0-.31.28c-.35.62-.53.66-1.12.23,0,0,0,0,0,0-.74.07-.76.61-.76,1.28a2.24,2.24,0,0,1-.43-.36c-.17-.24-.29-.52-.45-.77s-.47-.36-.8-.12c-.08.06-.15.17-.25.2a1.8,1.8,0,0,1-.41,0,2.1,2.1,0,0,1,0-.35,2.92,2.92,0,0,0,.12-.42c0-.32-.16-.47-.52-.44a1,1,0,0,1-.14.25,2,2,0,0,0-.56,1.69,2,2,0,0,1-.19.62,2.76,2.76,0,0,1-.85-1.84c.33-.05.41-.25.45-.59a4.45,4.45,0,0,0-.32-1.63c-.09.05-.24.1-.24.14,0,.39,0,.78.07,1.21l-.66,0c-.17.35,0,.84-.5,1.17-.11-.18-.22-.34-.32-.52a1.89,1.89,0,0,0-.24-.44.68.68,0,0,0-.43-.19c-.06,0-.14.22-.19.35s-.13.44-.2.68l-1.1-.47a.3.3,0,0,1-.14-.12,6.93,6.93,0,0,1-.91-1.45,8.92,8.92,0,0,0-.66-1.3,2.08,2.08,0,0,1-.28-.9,2.79,2.79,0,0,0-.47-1.41,5.14,5.14,0,0,1-.74-1.66,6.33,6.33,0,0,0-.69-1.33c-.25-.51-.57-1-.8-1.5s-.3-1-.48-1.45a5.66,5.66,0,0,0-.44-.84,5.36,5.36,0,0,1-.7-1.28,1.57,1.57,0,0,0-.44-.6.43.43,0,0,0-.37-.1.49.49,0,0,0-.23.32A2.64,2.64,0,0,0,305.39,70.67Z"/><path class="cls-1" d="M343.78,84.12l-.65.78c-.13-.14-.26-.25-.37-.38a5.53,5.53,0,0,0-.37-.51c-.21-.21-.44-.27-.63,0a.68.68,0,0,1-.12.15c-.4.35-.4.35-.09.75a1,1,0,0,1,.05.21l-.73.13c-.25-.39.15-.84-.29-1.14l-1,.84-.71-.1-.36,0c-.12,0-.3-.1-.37,0-.33.29-.75.16-1.13.26s-.4.32-.49.58c-.39-.27-.72-.68-1.1-.72a3.42,3.42,0,0,1-.89-.37c-.11,0-.19-.16-.31-.27l-.79.17c-.75-.45-.77-.5-.32-1.12-.21-.37-.61-.47-1-.64a.76.76,0,0,1-.29-.19.71.71,0,0,0-1-.28c-.07,0-.19,0-.3-.13l.67-.17c-.33-.74-1-.93-1-1.68l-.59.19-.32-.31.23-.36c-.27,0-.5-.1-.72.14a.32.32,0,0,1-.5-.05c-.21-.25-.52-.45-.47-.86a.6.6,0,0,0-.12-.42,1,1,0,0,1-.11-1.13,1.54,1.54,0,0,0-.27-1.71.64.64,0,0,1-.18-.62c.08-.27-.16-.42-.33-.57-.33-.29-.75-.52-.56-1.08,0,0,0-.08,0-.12a1.72,1.72,0,0,1-.16-1.7c0-.09-.07-.23-.09-.36-.09-.52-.17-1-.26-1.57a1.54,1.54,0,0,0,0-.25,6,6,0,0,1-.08-2.52c.07-.72.08-1.45.11-2.17a2.75,2.75,0,0,1,.3-1.42.42.42,0,0,0,.06-.35c-.25-.37-.06-.75-.1-1.15l.24-.09c.5-.15.6-.25.64-.74,0-.34,0-.69.09-1,.16-.79.38-1.57.54-2.36a12.63,12.63,0,0,0,.12-1.31c.3-.05.37-.35.44-.72.15-.7.38-1.39.59-2.08,0-.09.15-.15.22-.22a1.12,1.12,0,0,0,.25-.28c.3-.63.57-1.28.89-1.9.24-.47.54-.91.83-1.36s.49-.74.72-1.12a1.67,1.67,0,0,0,.23-.52,1.61,1.61,0,0,1,.48-.88,2.41,2.41,0,0,0,.29-.56,4.39,4.39,0,0,1,.47-.82,3,3,0,0,0,.94-1.7c0-.28.21-.43.47-.55a5.66,5.66,0,0,0,.9-.58c.27-.2.5-.47.88-.43a.19.19,0,0,0,.12,0c.56-.43,1.18-.15,1.79-.14a2,2,0,0,0,.15.56c.09.15.27.33.41.33s.28-.2.38-.34a2.2,2.2,0,0,0,.2-.45,2.32,2.32,0,0,0,1.42.58c.06,0,.16,0,.18,0,.28.39.62.24,1,0,0,.24.09.41.11.58,0,.37,0,.77.3,1.06a.46.46,0,0,1,.07.41,17.32,17.32,0,0,1-.56,1.91,1,1,0,0,0-.12.29,3.64,3.64,0,0,1-.82,1.82,5.35,5.35,0,0,0-.63,1.45,21.72,21.72,0,0,0-1.25,3.21,8.39,8.39,0,0,1-.7,2.1,4.82,4.82,0,0,0-.48,1.54,8,8,0,0,1-.73,2.81c0,.06,0,.16,0,.24-.07.78-.12,1.56-.21,2.34a11.5,11.5,0,0,0-.11,3.41c.19,1,.14,2.13.3,3.17a7.33,7.33,0,0,0,2.22,4.51,2.07,2.07,0,0,0,2.54.12,5.31,5.31,0,0,0,1.47-1.74,2.58,2.58,0,0,1,.89-1.14,1,1,0,0,0,.31-.61,7.08,7.08,0,0,1,1.05-2.39c.25-.42.49-.85.72-1.28a11.63,11.63,0,0,1,2-2.85c.53-.53,1.17-.93,1.7-1.45a3.21,3.21,0,0,1,1.22-.87c.42-.14.49-.58.67-.88a2.77,2.77,0,0,0,.52-1.54,1.89,1.89,0,0,1,.55-1.33.57.57,0,0,0,.19-.32,2.71,2.71,0,0,1,.54-1.41,2.63,2.63,0,0,0,.42-1.33,1.15,1.15,0,0,1,.5-.9A8.1,8.1,0,0,0,355.75,53a1.9,1.9,0,0,0,.21-.64,1.75,1.75,0,0,0,1.11-1.66c.25.23.44.38.61.55a2.78,2.78,0,0,1,1,1.7.4.4,0,0,0,.39.42c.29,0,.38-.23.36-.44a3.89,3.89,0,0,1,.3-1.67,2.55,2.55,0,0,1,.22-.4c.46.31.41.8.54,1.2s.18.68.26,1c.5,0,.34-.4.52-.6a.62.62,0,0,1,.27.67,12.39,12.39,0,0,1-.32,3,3.67,3.67,0,0,0-.07.82,2.46,2.46,0,0,1,0,.38c-.09.36-.19.72-.26,1,.2.24.34.4.47.56s0,.08,0,.18h-.45c0,.08,0,.17,0,.19a1.34,1.34,0,0,1,.33,1.31c-.09.92-.26,1.83-.43,2.74a9.65,9.65,0,0,1-.39,1.19l-.36-.1c-.13.2-.23.38,0,.57a.71.71,0,0,1,.22.86,11.53,11.53,0,0,0-.31,2.2c-.08.6-.26,1.19-.38,1.79a2.84,2.84,0,0,0-.07.69.75.75,0,0,1-.37.8.58.58,0,0,0-.13.8c.69,1.22.41,2.48.28,3.75,0,.43-.1.85-.13,1.28a1.14,1.14,0,0,0,.36,1.09.7.7,0,0,1,.22.45c0,.45.16.89.2,1.34a4.8,4.8,0,0,1-.21,1.28c0,.15-.07.3-.09.44-.1,1.36-.2,2.71-.28,4.07,0,.59,0,1.18,0,1.77,0,.32-.07.63-.1,1-.09.82-.22,1.65-.26,2.48,0,.44-.08.87-.08,1.3a6.27,6.27,0,0,0,.36,1.6c0,.12.07.23.14.46-.28-.14-.46-.24-.64-.31s-.51,0-.47.37a3.88,3.88,0,0,0,.23.85c.14.39.2.72-.2,1-.22.16-.23.55-.62.58-.06,0-.19.32-.14.43s0,.36-.14.55-.08.48-.11.76c-.33.24-.59-.07-.71-.27-.23-.35-.39-.67-.91-.49-.13,0-.34-.14-.48-.2l-1.22,1.76c-.18-.11-.38-.16-.45-.28-.25-.46-.7-.6-1.11-.82a1.61,1.61,0,0,1-.93-1.14,2.28,2.28,0,0,0-.29-.62c-.09-.16-.26-.31-.29-.48a8.77,8.77,0,0,1-.3-2.51c0-.31,0-.63,0-1l.38-.24c0-.07,0-.11,0-.15,0-.53.07-1.06.12-1.59,0-.21.09-.41.13-.62s-.08-.35-.27-.45a1.81,1.81,0,0,0-1.34-.29,1.43,1.43,0,0,0,.06,1.2c.13.23.13.45-.21.56,0-.05-.09-.11-.09-.17a2.3,2.3,0,0,0-.28-1.4.4.4,0,0,1,0-.31c.21-.4,0-.67-.21-.92l.45-1.17c.45.27.89.4.92,1a1.3,1.3,0,0,0,.74,1,3.2,3.2,0,0,0,.35-.67,3.92,3.92,0,0,0,.13-1.07.81.81,0,0,0-.34-.69c-.21-.16-.22-.55-.34-.89-.18,0-.41,0-.64,0s-.46,0-.43-.36a.86.86,0,0,0,0-.25c-.1-.45-.33-.53-.7-.23a1.47,1.47,0,0,0-.15.15l-1.05-.82c-.1,0-.25.11-.41.15a1.76,1.76,0,0,1-1.41,0,1.4,1.4,0,0,0-1.16-.13C344.53,84.37,344.16,84.19,343.78,84.12Z"/><path class="cls-1" d="M248.4,62.63,249,63c.4-.76-.07-1.62.34-2.4.47.53,0,1,.09,1.62l.6.35A2.88,2.88,0,0,0,250.5,61c.05-.45.14-.85.74-.88a3,3,0,0,0,0-.71,2.94,2.94,0,0,1,.28-1.49c.23-.68.36-1.41.64-2.07a12.46,12.46,0,0,1,.81-2.17,17.93,17.93,0,0,0,.89-1.83c.27-.53.6-1,.86-1.55a6.06,6.06,0,0,0,.45-1.12c.13-.5.54-.75.86-1.08.51-.54,1.07-1,1.61-1.53a17,17,0,0,1,3.16-2.43c.37-.21.72-.45,1.09-.64a4,4,0,0,1,.64-.21c.1,0,.25,0,.28-.1.19-.39.6-.38.92-.51s.81-.26,1.21-.41a13.34,13.34,0,0,1,4.46-.72c.28,0,.55-.07.83-.06a7.83,7.83,0,0,1,.94.08c.15,0,.29.09.44.09l3.13.07a15.43,15.43,0,0,1,3.47.47,23.17,23.17,0,0,1,3,1,8.8,8.8,0,0,1,1.79,1.08,1,1,0,0,0,.93.23c.54-.14.76,0,.82.57a2,2,0,0,0,.7,1.25c.5.5.92,1.06,1.4,1.57s.8.7,1.15,1.08a4.62,4.62,0,0,1,.61.89c.18.31.29.66.45,1a1.34,1.34,0,0,1,.13,1,1.14,1.14,0,0,0,.05.55c.07.31.17.61.26.92s.25.9.38,1.35a9,9,0,0,1,.31,3.86c0,.19-.06.38-.09.57s0,.27-.09.29c-.61.25-.49.85-.67,1.31-.48,1.24-.51,2.64-1.28,3.78-.45,1.55-1.59,2.67-2.48,4-.26.38-.7.64-.79,1.14a.24.24,0,0,1-.12.14c-.68.35-.93,1-1.33,1.63,0,0,0,.09-.08.1-.46.16-.63.66-1,.89a8.28,8.28,0,0,0-1.3,1.11,2.17,2.17,0,0,1-.74.48,5.2,5.2,0,0,0-1.84,1.22,1,1,0,0,0-.19.52,5.28,5.28,0,0,0,0,.66c-.87.26-.87.26-1.06,1.25-.17,0-.38,0-.52-.05a1.61,1.61,0,0,0-1.25-.08,2,2,0,0,1-1.19-.06,4.65,4.65,0,0,0-.58-.11l.46.88a1.36,1.36,0,0,1-1.21-.07,3,3,0,0,0-1.09-.28c-.09,0-.26.13-.3.25a2.55,2.55,0,0,0-.08.58,7,7,0,0,1-2.15.11c-.37,0-.72-.22-1.13,0-.14.06-.39-.11-.59-.18l-.64-.25a1,1,0,0,0,.82,1.14c.48.1,1,.15,1.45.24a1.4,1.4,0,0,1,.55.28c-.46,0-1-.2-1.2.36L266.93,80a2.28,2.28,0,0,0-1.91-.92,4.69,4.69,0,0,1-1.16-.31,16.4,16.4,0,0,0-2.95-1,.91.91,0,0,1-.3-.11.92.92,0,0,0-1.21.08c-.23.2-.67.15-1.11.22a2,2,0,0,0,.38.39,3.76,3.76,0,0,0,.77.31,6.48,6.48,0,0,1,1.69,1.13c.16.1.22.34.38.59a1.21,1.21,0,0,1-.3,0l-3-.78a7.07,7.07,0,0,1-3.9-2.73,4.71,4.71,0,0,0-1.25-1.26A4.69,4.69,0,0,1,251.64,74a6.85,6.85,0,0,1-.61-1.33,39.89,39.89,0,0,1-1.4-5.24c-.29-1.38-.75-2.69-1.14-4A6,6,0,0,1,248.4,62.63ZM278,54.34a7.31,7.31,0,0,0-2.46-.68,3.07,3.07,0,0,0-1.83.09c-.14.06-.33,0-.5,0a3.41,3.41,0,0,0-.5,0c-.79.06-1.58.19-2.37.19a6.74,6.74,0,0,0-2.87.68c-1,.5-2,1.14-3,1.73-.11.06-.16.2-.25.28a5.4,5.4,0,0,1-.88.83,4.54,4.54,0,0,0-1.68,2.12,7,7,0,0,0-.7,3.46,3.71,3.71,0,0,1,0,.51,1.35,1.35,0,0,0,.83,1.44c.82.35,1.66.65,2.49,1L267,67.06a6.79,6.79,0,0,0,1.24.47,6.84,6.84,0,0,1,2,.81,1.73,1.73,0,0,0,1.46.31,8,8,0,0,0,2.29-.94A3.33,3.33,0,0,1,275.8,67a4,4,0,0,0,1.14-.4c.18-.08.3-.28.44-.43a3.91,3.91,0,0,1,.74-.78,7.54,7.54,0,0,0,2.09-1.84,1.36,1.36,0,0,1,.44-.36c.54-.26.8-.8,1.22-1.18a5.12,5.12,0,0,1,.43-.44c.63-.4.76-1.1,1-1.71a.7.7,0,0,0,0-.61c-.38-.4-.13-.83-.18-1.23.57-.22.65-.31.44-.77a4.41,4.41,0,0,0-1.73-2l-.25.51c-.34-.29-.64-.59-1-.84a4.44,4.44,0,0,0-.8-.5c-.21-.1-.46-.1-.67-.19A.94.94,0,0,0,278,54.34Zm-26,12.8c.29.55.29.55.61.76,0-.32-.09-.62-.15-1.08Z"/><path class="cls-1" d="M272,80c.08-.31.14-.48.43-.49a5.78,5.78,0,0,0,2.08-.72c.21-.1.45-.31.7.06A10.43,10.43,0,0,1,272,80Z"/><path class="cls-1" d="M309.68,79.85c.87.5,1.1,1.28.66,1.84-.32-.25-.16-.63-.28-.93Z"/><path class="cls-1" d="M265.26,81.18a1.65,1.65,0,0,1-1.65-.37C264.31,80.62,264.72,81.19,265.26,81.18Z"/><path class="cls-1" d="M270.14,80.18a.5.5,0,0,1,.18,0l.29.08C270.55,80.43,270.44,80.42,270.14,80.18Z"/><path class="cls-1" d="M252,67.14l.45-.33c.07.47.11.77.15,1.08C252.25,67.7,252.25,67.7,252,67.14Z"/><path class="cls-1" d="M98.5,84.44c-1.21-.41-1.21-.41-1.55.31l-1-.32c-.72-.23-.72-.23-1.25.26-.47,0-.66-.7-1.26-.56l.11.59c-.21.22-.37.14-.55,0-.8-.85-1.68-1.63-2.4-2.55A15.25,15.25,0,0,0,88.1,80c-1-.79-1.82-1.69-2.78-2.46a6.06,6.06,0,0,0-1.66-1.26c-.23-.08-.39-.38-.56-.6a9.92,9.92,0,0,1-.56-.86,2.54,2.54,0,0,0-.86-1,.69.69,0,0,1-.19-.25L79,69.27c-.24,0-.52,0-.55,0a1.2,1.2,0,0,1-.18-.79.6.6,0,0,0,0-.52c-.46-1.21-.91-2.44-1.37-3.65a.46.46,0,0,0-.31-.25c0,.37.08.74.15,1.11A9.93,9.93,0,0,0,77,66.24c.11.35.25.69.35,1.06a2.44,2.44,0,0,1-.86-1.06c-.13-.25-.18-.61-.59-.55s-.4.41-.51.67a.78.78,0,0,0,0,.38.53.53,0,0,1-.26.59,1.41,1.41,0,0,0-.33.54,14.71,14.71,0,0,1-1.32,2.4,13.33,13.33,0,0,0-.69,1.28,4.47,4.47,0,0,1-.7,1,8.68,8.68,0,0,0-1.71,1.88A9.85,9.85,0,0,1,69,75.73c-.39.46-.8.88-1.2,1.32-.21.24-.41.5-.62.73s-.36.35-.54.53-.14.08-.14.12c0,.54-.52.61-.83.87-.86.7-1.72,1.4-2.61,2.06S61.5,82.45,60.71,83c-.31.22-.57.51-.88.72s-.84.49-1.25.76A6.43,6.43,0,0,0,58,85a2.16,2.16,0,0,1-.54.43,4.2,4.2,0,0,0-1.49,1,8,8,0,0,1-1.18.74l-4.27,2.91c-.32.21-.69.35-1,.57a5.79,5.79,0,0,0-.68.67c-.67.07-.69.09-.77.74-.84-.12-1.72.25-1.84.93,0,0-.07.06-.11.06a5.21,5.21,0,0,0-2.71,1c-1.05.55-2.13,1-3.22,1.52s-1.84.94-2.77,1.39c-.54.26-1.09.48-1.65.69a15.46,15.46,0,0,1-2.39.86,6.87,6.87,0,0,1-2.41.09,5.69,5.69,0,0,0-2.31.29c-.08,0-.15.08-.23.1-.59.13-.8.07-.84-.57,0-.14,0-.29-.09-.51h-1c-.7,0-1.4,0-2.11,0a.71.71,0,0,1-.61-.34,4.25,4.25,0,0,0-1-.71c-.42-.29-.83-.59-1.22-.91a.49.49,0,0,1-.11-.4,1.8,1.8,0,0,0-.28-1.4.78.78,0,0,1-.08-.59.47.47,0,0,0-.33-.7c.35-.62-.19-1-.38-1.39,0-.34.07-.66.15-1a5,5,0,0,1,.27-.78c.18-.43.15-.57-.26-.85a5.86,5.86,0,0,1-.58-.41,1.57,1.57,0,0,1-.29-1.69,5,5,0,0,1,.79-.71.81.81,0,0,1,.64-.94c.51-.15.59-.67.89-1s.43-.52.64-.79a3.67,3.67,0,0,1,.58-.73,7.08,7.08,0,0,1,1.1-.78c.18-.09.41-.37.39-.53-.07-.54.32-.82.59-1.15a3.33,3.33,0,0,1,2.4-1.26,10.12,10.12,0,0,0,4.3-1.6c0-.27-.08-.57-.16-.85s-.22-.73-.35-1.09-.28-.71-.4-1.07a2.62,2.62,0,0,1-.14-.55,6.81,6.81,0,0,0-.6-2.07,3,3,0,0,1-.15-.75,2.32,2.32,0,0,0-.09-.49A9.15,9.15,0,0,1,29.63,69a12.12,12.12,0,0,1-.32-1.56A9.3,9.3,0,0,0,28.88,66s0,0,0-.06c-.09-.79-.19-1.59-.28-2.38,0-.12,0-.29-.07-.36-.58-.53-.4-1.26-.55-1.91,0-.1,0-.23,0-.31a7.11,7.11,0,0,1-.48-2.3A17.81,17.81,0,0,0,27,56.73a2.36,2.36,0,0,1,0-.38,9.87,9.87,0,0,0-.26-2.11,2.79,2.79,0,0,1,0-1.49,3.32,3.32,0,0,0,0-.81c0-.48-.11-1-.16-1.44,0-.19,0-.38-.07-.56a3.07,3.07,0,0,1-.11-1.54c.18-.65-.33-1-1-.81-1,.29-2,.6-2.94.87-.73.2-1.49.35-2.22.55a7,7,0,0,0-1,.4,4.5,4.5,0,0,0-1.24.61,13.66,13.66,0,0,1-1.41,1l-2.36,1.64a4.55,4.55,0,0,0-1.18,1.48,4,4,0,0,1-1.25,1.42c-.14.09-.22.3-.31.46-.26.46-.51.92-.8,1.44-.32-.34-.59-.55-.65-1a.65.65,0,0,0-.54-.57l-.12,0a3.38,3.38,0,0,1-2.32-2c-.12-.27-.2-.56-.33-.83a3.45,3.45,0,0,0-.41-.55c-.16-.19-.28-.36-.08-.62a1,1,0,0,0,.06-.53,2.92,2.92,0,0,1-.06-.82.87.87,0,0,0-.22-.92,4.76,4.76,0,0,1,.37-1.31A15.34,15.34,0,0,0,7,45.94a10.21,10.21,0,0,0,.51-1.39,6.55,6.55,0,0,1,1.28-2c.57-.78,1.41-1.27,2-2a6.36,6.36,0,0,1,2.4-1.82c.15-.08.34-.16.41-.29.2-.39.54-.51.9-.7a3.31,3.31,0,0,0,1.09-1A4.72,4.72,0,0,1,17.38,35l1.06-.54c.06,0,.13-.09.17-.07.45.18.79-.14,1.11-.31a6.51,6.51,0,0,1,1.91-.48,5.79,5.79,0,0,0,1.7-.52,4.65,4.65,0,0,1,1.33-.26,4,4,0,0,0,.57-.07c.52-.17,1-.36,1.55-.55l1-.34c.38-.12.76-.23,1.15-.34l1.05-.82a2.55,2.55,0,0,0,.51-.38c.54-.69,1.2-.55,1.87-.32.29.1.55.23.84,0a.41.41,0,0,1,.35,0,1.55,1.55,0,0,1,.6.34,1.4,1.4,0,0,0,1.59.33,2.6,2.6,0,0,1,.85-.07c.31,0,.63-.09.94-.1.51,0,1,0,1.52,0a3.77,3.77,0,0,0,.51,0,23,23,0,0,1,3.18.15c.57,0,1.13.17,1.7.24a6.57,6.57,0,0,0,.77,0c.06,0,.14,0,.19,0,1,.48,2.24.21,3.29.71a8.77,8.77,0,0,0,1.67.42c.79.19,1.58.36,2.36.55s1.27.33,1.9.52c.26.08.49.26.75.35.58.21,1.17.37,1.75.59s1.31.52,1.95.82c1,.46,2,.93,2.94,1.44a15,15,0,0,1,1.77,1.13c1.69,1.25,3.21,2.69,4.78,4.08.54.48,1.05,1,1.56,1.52a3.13,3.13,0,0,1,.33.47,5.54,5.54,0,0,0,.58.84A12.65,12.65,0,0,1,73.21,48c.32.67.7,1.32,1.07,2,.05.1.19.15.35.28a2.61,2.61,0,0,0,.3-.57c.08-.31.09-.63.15-.95s.16-.61.24-.92.06-.37.1-.55.06-.46.11-.68a8.73,8.73,0,0,0,.4-1.78c0-.23.25-.46.39-.69a3.6,3.6,0,0,0,.43-.61c.3-.78.93-1.36,1.29-2.1.11-.23.22-.46.35-.67.6-1,1.2-2,1.83-3.05.15-.25.46-.4.62-.64a9.13,9.13,0,0,1,1.47-1.54,7.33,7.33,0,0,1,1.48-1c.86-.47,1.75-.88,2.64-1.29a13.7,13.7,0,0,1,2-.76,10.39,10.39,0,0,1,3.07-.41,2.27,2.27,0,0,0,1.48-.16c.21-.13.58,0,.87,0,.45,0,.9,0,1.34.06.65.07,1.32,0,1.94.06a12.83,12.83,0,0,1,3.7,1,6.6,6.6,0,0,1,2.06,1.51c.49.51,1,1,1.51,1.48.32.33.59.72.89,1.08.13.16.26.33.4.48a.49.49,0,0,0,.77.07,6.12,6.12,0,0,0,1.94,1.3,6.47,6.47,0,0,1,3.14,2.73A11.4,11.4,0,0,1,113,45.31,8.15,8.15,0,0,1,113,48c0,.06-.07.13-.05.18.23.61-.21,1.14-.2,1.72a.66.66,0,0,1-.23.49c-.74.49-1,1.32-1.45,2a1.31,1.31,0,0,1-.14.21c-.78.76-1.54,1.54-2.36,2.25a20.16,20.16,0,0,1-1.72,1.21c-.8.56-1.59,1.15-2.4,1.7-.29.2-.64.33-1,.51-.67.37-1.32.76-2,1.12a5.49,5.49,0,0,1-.84.29,16.55,16.55,0,0,0-2.06.67,8.08,8.08,0,0,1-3.41,1,4,4,0,0,0-1.18.27c-.47.16-.54.28-.35.71a12.92,12.92,0,0,0,1,1.94c.79,1.19,1.65,2.33,2.48,3.5.63.89,1.21,1.82,1.88,2.67a24.48,24.48,0,0,0,2,2.11,2.13,2.13,0,0,0,.83.48,1.29,1.29,0,0,1,.76.63,1.69,1.69,0,0,0,1.09.83c.49.14,1,.32,1.46.47a.53.53,0,0,1,.4.44c.2.91.68,1.12,1.53.68a1.22,1.22,0,0,1,.89,1.37c0,.1.05.21,0,.32a.74.74,0,0,0,.56.87L107.94,80c0,.08,0,.2-.1.22-.49.21-.44.63-.37,1.07a2.39,2.39,0,0,0-1.6,1.76c-.39-.18-.78-.32-1.14-.52s-.41-.22-.58-.07-.15.32-.19.49,0,.27,0,.38c-.23.57.07.88.51,1.15a3.74,3.74,0,0,1,.48.44l-.1.13c-.22-.15-.43-.32-.65-.45s-.29-.15-.39-.11-.15.24-.16.37c0,.6-.36.76-.87.42a1.44,1.44,0,0,1-.38-.35,2,2,0,0,0-1.86-.78.8.8,0,0,1-.78-.3.59.59,0,0,0-1,0A2.17,2.17,0,0,0,98.5,84.44ZM47.67,68.27A1.13,1.13,0,0,0,49,67.56a1,1,0,0,1,.25-.41c.55-.44,1.11-.86,1.69-1.27.18-.13.48-.12.62-.27a4.79,4.79,0,0,1,.86-.72,25.36,25.36,0,0,0,2-1.58,17.12,17.12,0,0,0,1.8-1.69c.92-1,1.79-2.16,2.66-3.25a2.42,2.42,0,0,0,.49-2.65,4.91,4.91,0,0,1-.12-.56c-.14-.44-.17-1-.47-1.28a6.19,6.19,0,0,1-1.33-1.6c-.08-.14-.25-.23-.37-.35a9.46,9.46,0,0,0-2.34-1.54c-1.1-.59-2.26-1.08-3.42-1.57-.72-.3-1.47-.53-2.2-.79s-1.19-.49-1.8-.64q-2-.49-4-.87a17.33,17.33,0,0,0-2.09-.21,2.3,2.3,0,0,0-.82.12.46.46,0,0,0-.24.38,12.3,12.3,0,0,0,.41,1.2c0,.08.12.18.1.22-.28.59.11,1.11.19,1.66.14,1,.47,1.9.64,2.87a19.45,19.45,0,0,0,.8,2.74,7.31,7.31,0,0,1,.5,2A5.92,5.92,0,0,0,43,58.63c.19.76.38,1.51.57,2.27s.28,1.28.45,1.9c.3,1.08.63,2.14.94,3.22a13,13,0,0,0,.38,1.4,12.71,12.71,0,0,0,.77,1.45c.19.33.45.29.7.09S47.38,68.53,47.67,68.27ZM76.12,47.92a2.63,2.63,0,0,1,0,.87c-.13.38.18.77-.08,1.13,0,0,.07.11.08.16a2.52,2.52,0,0,1,0,.42c0,.34,0,.68,0,1,0,.84,0,1.69.1,2.54a9.25,9.25,0,0,0,.3,2.62,10.62,10.62,0,0,1,.37,1.6c.08.46.09.93.19,1.39a13,13,0,0,0,.49,2A25.22,25.22,0,0,0,78.68,64a2.13,2.13,0,0,0,1.17,1.12,4.08,4.08,0,0,0-.12-.64c-.27-.76-.59-1.51-.84-2.27a20.52,20.52,0,0,1-.65-3.17A28,28,0,0,1,78,53.47c0-1.21,0-2.42.09-3.63a14,14,0,0,1,.23-1.64c0-.3.16-.58.2-.87.1-.68.19-1.38.29-2.1l-.45-.15c.07-.16.14-.31.21-.45s.21-.37.3-.56c.33-.66.63-1.35,1-2,.66-1.12,1.33-2.23,2.06-3.31a1.24,1.24,0,0,0,.15-1c-.58,0-.67.13-2,2.14-.41-.09-.65.08-.69.55,0,.15-.16.29-.25.44a4.63,4.63,0,0,0-.76,1.38,4.27,4.27,0,0,1-1.07,2,2.94,2.94,0,0,0-.83,2.35c0,.06,0,.16,0,.18-.41.25-.16.55-.06.84a.79.79,0,0,1,0,.18Zm16.29,3.67.25,0a21.59,21.59,0,0,0,3.25-1.28c.48-.21,1-.4,1.44-.66s1.12-.68,1.69-1a4.46,4.46,0,0,0,1.33-1.18.92.92,0,0,0,.05-1.28,3.44,3.44,0,0,0-1.78-1.07,3.84,3.84,0,0,0-1.83.16,4.41,4.41,0,0,0-2.88,1.49c-.63.35-.84,1-1.25,1.57A5.85,5.85,0,0,0,92,50.56a1,1,0,0,0,.14.54A4.18,4.18,0,0,0,92.42,51.59ZM87.56,36a20.83,20.83,0,0,0,2.29-.7c1.12-.48,2.3-.65,3.44-1a2.31,2.31,0,0,1,.37,0,2.25,2.25,0,0,0,.87-.13,2.15,2.15,0,0,1,1.37-.31c-.19-.2-.26-.35-.37-.38a6.46,6.46,0,0,0-.74-.1c-.42-.06-.84-.16-1.26-.19a14.29,14.29,0,0,0-2.75.55,4.6,4.6,0,0,0-1.06.41l-2.37,1Z"/><path class="cls-1" d="M127,78.42a1.14,1.14,0,0,1-1.05-.55,3.5,3.5,0,0,1-.32-.62c-.09-.28-.22-.45-.54-.43a1,1,0,0,1-.83-.41,11.63,11.63,0,0,1-1.4-1.48c-.21-.34-.48-.4-.95-.44-.08.3-.17.59-.24.89a.91.91,0,0,0,.38.89c.16.15.31.31.54.55a1,1,0,0,1-1.07-.36,2.09,2.09,0,0,1-.49-1,4.87,4.87,0,0,0-.63-1.88,1.37,1.37,0,0,1-.18-.8,3,3,0,0,0-.23-1.31,2.73,2.73,0,0,1-.14-.87c0-.74,0-1.49,0-2.23a7.68,7.68,0,0,1,0-1.9,1.35,1.35,0,0,0-.05-.44c0-.3-.11-.59-.13-.89-.09-1.37-.17-2.73-.24-4.1-.08-1.53-.21-3.05-.43-4.57a8.89,8.89,0,0,1-.23-1.82,12.88,12.88,0,0,0-.29-2.53c-.16-1.29-.38-2.58-.54-3.87-.11-.89-.15-1.78-.25-2.67-.05-.47-.16-.93-.23-1.39-.19-1.2-.41-2.39-.54-3.6-.11-1-.1-2-.16-3,0-.4-.1-.8-.13-1.21-.08-1.08-.15-2.16-.23-3.25,0-.59-.08-1.19-.13-1.78a6.25,6.25,0,0,1-.2-1c.05-1.44,0-2.89,0-4.34,0-.87.13-1.74.18-2.6,0-.71.08-1.41.11-2.11a9.29,9.29,0,0,1,.1-2.09c.27-1,.25-1.95.51-2.9.17-.64.29-1.3.43-1.94a1.45,1.45,0,0,1,.49-.88,3,3,0,0,0,1-2.26.91.91,0,0,1,.38-.65,2.68,2.68,0,0,0,.65-1.2,2.07,2.07,0,0,1,.51-1.06c.06-.05.14-.14.13-.21,0-.47.3-.71.56-1a2.27,2.27,0,0,0,.46-.9,4.07,4.07,0,0,1,.75-1.32,3.35,3.35,0,0,0,1.09.06c.29-.09.51-.41.84-.7a4.15,4.15,0,0,0,1.92,2l.37-.19a.63.63,0,0,1,.67,0,.68.68,0,0,0,.24.08c.62.07.91.29,1,.87a4.72,4.72,0,0,1,.3,1.76.39.39,0,0,0,0,.19,33.69,33.69,0,0,1,1,5.59,6.87,6.87,0,0,1,0,.83c.07,1.27.16,2.55.23,3.82.06,1.11,0,2.22.17,3.31.28,1.84.35,3.69.6,5.53.07.53.21,1,.3,1.58s.11.8.14,1.2a18.23,18.23,0,0,1,.41,2.78.59.59,0,0,0,0,.13c.34,2,.69,4,1,6,.17,1,.29,2,.46,3q.31,1.9.66,3.79c.25,1.37.54,2.72.77,4.09.15.9.13,1.84.34,2.72s.24,1.73.36,2.59.17,1.48.27,2.23c.06.44.14.88.22,1.32A2.71,2.71,0,0,1,136,60a3.09,3.09,0,0,0,.37,1.47.76.76,0,0,1,.1.49,6.18,6.18,0,0,0,0,1.65,1.74,1.74,0,0,0,.17.81,6.68,6.68,0,0,1,.49,2.31,1.67,1.67,0,0,0,.53,1.2,2.73,2.73,0,0,1,.75,1.91,4.31,4.31,0,0,1-.58,2.63,3.9,3.9,0,0,0-.25.87.48.48,0,0,1-.46-.45.83.83,0,0,0-.74-.7c-.32,0-.44,0-.5.33a.63.63,0,0,0,0,.19c.09,1,.16,2,.27,3,.06.57-.12.8-.66.67a5.05,5.05,0,0,1-1.2-.44,1.81,1.81,0,0,1-.59-.64c-.14-.22-.31-.32-.53-.22a1,1,0,0,1-.91,0c-.09,0-.24,0-.34,0-.29.5.19,1-.13,1.54a1.73,1.73,0,0,0-1.29-.25.73.73,0,0,0-.73.8c0,.23,0,.46,0,.75a1.81,1.81,0,0,0-.4-.1c-.79,0-1-.58-1.23-1.16a5.8,5.8,0,0,0-.62-1.1.67.67,0,0,0-.73-.28,1,1,0,0,0-.56.8,2.3,2.3,0,0,0,.4,1.64A3.9,3.9,0,0,1,127,78.42Z"/><path class="cls-1" d="M160.69,66.57a.74.74,0,0,1-.74-.4c-.18-.24-.39-.41-.73-.18a19.17,19.17,0,0,0,1,4.51c-.39-.07-.43-.28-.49-.51a15.8,15.8,0,0,0-.49-1.52c-.19-.49-.33-.46-.83-.42s-1.14.29-1.67-.17a.71.71,0,0,0-.58-.05c-.08,0-.07.33-.08.51a3.06,3.06,0,0,1,0,.5c-.1.45-.23.9-.36,1.4a3.83,3.83,0,0,1-.83-.13.86.86,0,0,1-.42-.42c-.18-.39-.28-.81-.45-1.2a1.53,1.53,0,0,0-.43-.53.43.43,0,0,0-.41,0,.45.45,0,0,0-.11.38,4,4,0,0,0,.29.92c.28.56.05,1.07,0,1.76-.27-.26-.44-.39-.59-.56a1.31,1.31,0,0,1-.17-.34c-.15-.33-.35-.68-.74-.58a1,1,0,0,0-.86.76,1.31,1.31,0,0,0,0,.87,2.66,2.66,0,0,1,.1.53c-.33,0-.63-.05-.75-.33a2.68,2.68,0,0,0-.94-1.09,6.28,6.28,0,0,1-1.14-1.53c-.87-1.19-1.72-2.4-2.59-3.59a3.62,3.62,0,0,0-.54-.49c-.28.18-.15.35-.1.53.23.73.45,1.47.67,2.2,0,0,0,.08-.07.2a3.54,3.54,0,0,1-.28-.58c-.18-.66-.33-1.33-.5-2-.1-.39-.25-.77-.33-1.16-.26-1.19-.51-2.37-.74-3.57-.11-.59-.15-1.19-.22-1.78s-.18-1.22-.25-1.83c-.11-1-.25-1.91-.3-2.87s0-2,0-3a.4.4,0,0,1,0-.19c.39-.61.19-1.32.33-2s.22-1.35.33-2c.27-1.62.55-3.24.84-4.85.15-.82.34-1.63.48-2.44.06-.36,0-.72.07-1.08.07-.72.17-1.44.24-2.16,0-.42.06-.85.11-1.28a3.13,3.13,0,0,1,1.37-2.15,1.32,1.32,0,0,0,.55-1.21.76.76,0,0,1,.36-.75A14.29,14.29,0,0,0,149,29.53a.56.56,0,0,0,.11-.23c.31-.9.61-1.81.94-2.7a1.82,1.82,0,0,1,.45-.61.71.71,0,0,1,1.07-.11,2.13,2.13,0,0,0,.62.23l.53-.8c.2.34.36.62.54.9s.39.56.58.84c.06.09.1.19.15.28.37.68.51.67,1,.1a1.42,1.42,0,0,1,.87-.46.75.75,0,0,1,.72.62c.11.35.29.67.4,1s.15.66.24,1a5.67,5.67,0,0,0,.29.84,8.76,8.76,0,0,1,.86,3.52,1.29,1.29,0,0,0,0,.38,8.49,8.49,0,0,1,.23,2.47,4.25,4.25,0,0,0,.11.89,16.65,16.65,0,0,1,.34,4c0,.59.16,1.19.21,1.78.14,1.83.22,3.67.4,5.5.14,1.46.35,2.92.56,4.37.14,1,.33,2,.51,3a2.16,2.16,0,0,0,.06.38,12.78,12.78,0,0,1,.48,3.29c.05.91,0,1.82,0,2.74a6.41,6.41,0,0,1-.39,2.43,4.76,4.76,0,0,0,0,.51C160.87,66,160.77,66.28,160.69,66.57Z"/><path class="cls-1" d="M107.8,26.53c-1,0-1.3.72-1.59,1.52-.08-.16-.11-.34-.23-.43a.87.87,0,0,0-.48-.13c-.37,0-.45.1-.78.91l-.61.15-.23.54c-.52-.52-1-1-1.53-1.52a5.29,5.29,0,0,0-.73-.5c-.26-.18-.52-.36-.79-.52a.69.69,0,0,0-.45-.11c-.21,0-.16.25-.14.43s0,.33,0,.5c-.27.16-.48.13-.64-.1a3.67,3.67,0,0,0-1.33-1.16,6.64,6.64,0,0,0-1.2-.66.86.86,0,0,1-.52-.75A1.64,1.64,0,0,0,96,23.58a.41.41,0,0,1-.16-.26c0-.48-.05-1-.08-1.45a1.66,1.66,0,0,0-.07-.68,1.85,1.85,0,0,1-.2-1c0-1.17.06-2.35.14-3.52A5.26,5.26,0,0,1,96,15.38c.15-.45.6-.47,1-.61a2.67,2.67,0,0,1,.32-.06c.36-.63.71-1.31,1.12-2a4.06,4.06,0,0,1,.7-.72l1-.9c.32-.3.58-.73,1-.89.59-.25,1.16-.79,1.89-.38.07,0,.2.07.25,0,.56-.41,1.33-.07,1.88-.52.09-.08.28,0,.43-.06a3.21,3.21,0,0,0,.56-.08c.87-.27,1.14-.17,1.65.59-.29.38-.29.38-1.14.6,0,.42.23.6.59.68a2.23,2.23,0,0,1,1.34.83,2.58,2.58,0,0,1,.3.56c.13.28.23.59.39.86a.85.85,0,0,1,0,1,3,3,0,0,0-.43,1.58,27.23,27.23,0,0,0,0,4,.43.43,0,0,1,0,.06c-.13,1.25-.26,2.5-.41,3.74C108.12,24.59,108,25.5,107.8,26.53Z"/><path class="cls-1" d="M146.08,22.33l-.48-.73c-.38-.57-.69-.66-1.35-.41a.74.74,0,0,1-.31.07,20.05,20.05,0,0,1-2.11,0,2,2,0,0,0-.63.1,2.83,2.83,0,0,1-.42-1.61,1,1,0,0,0-.36-.71l-.5.35c-.17.13-.33.19-.5,0,0,0,0,0,0-.07a2.9,2.9,0,0,1,.31-.83c.25-.33.52.21.86,0-.07-.56-.11-1.12-.63-1.42.22-.6.46-1.14.61-1.71a6,6,0,0,0,.11-1.2c0-.28.13-.45.42-.45s.46-.2.49-.48a.88.88,0,0,1,.6-.82.69.69,0,0,0,.32-.42,10.35,10.35,0,0,0,.23-1.06c.29-.17.57-.35.87-.5a.77.77,0,0,1,.79,0,3.24,3.24,0,0,0,.57.2l.18-.51a4.6,4.6,0,0,1,.23-.66,1.68,1.68,0,0,1,1.84-1.09.53.53,0,0,0,.69-.38,1,1,0,0,1,.25-.36c.3-.28.51-.26.71.09a5.19,5.19,0,0,1,.39.8,2.89,2.89,0,0,0,.88,1.16.42.42,0,0,0,.67,0c.09-.1.31-.21.37-.17.5.33,1.22.35,1.46,1a2.9,2.9,0,0,0,.2.4,2,2,0,0,1,.24,1.7,6.73,6.73,0,0,1-.41,1.39,3.77,3.77,0,0,1-.28.49,1.11,1.11,0,0,0-.16,1.26c.22.42.1.67-.19,1a20.77,20.77,0,0,0-1.29,1.85l-.55,0c-.57,0-.58,0-.72.63-.06.27-.2.36-.46.29l-.31-.09c-.39-.07-.51,0-.49.42,0,0,0,.09,0,.13,0,.27.13.64,0,.8a1.54,1.54,0,0,1-.92.52.94.94,0,0,0-.92.8c0,.08,0,.16-.07.25Zm.28-1.71a.91.91,0,0,0,.13-.21s-.11-.11-.12-.1a.44.44,0,0,0-.14.16S146.28,20.54,146.35,20.61Z"/><path class="cls-1" d="M146.35,20.61c-.07-.07-.14-.13-.14-.15a.44.44,0,0,1,.14-.16s.13.07.12.1A.91.91,0,0,1,146.35,20.61Z"/></svg>