<?xml version="1.0" encoding="utf-8"?>
<!-- Generator: Adobe Illustrator 21.0.0, SVG Export Plug-In . SVG Version: 6.00 Build 0)  -->
<svg version="1.1" id="Layer_1" xmlns="http://www.w3.org/2000/svg" xmlns:xlink="http://www.w3.org/1999/xlink" x="0px" y="0px"
	 viewBox="0 0 356.2 105.8" style="enable-background:new 0 0 356.2 105.8;" xml:space="preserve">
<style type="text/css">
	.st0{fill:#2E2E2E;}
</style>
<title>Artboard 1</title>
<path class="st0" d="M244.3,54.7c-0.4,0.1-0.7,0.3-0.9,0.6c-0.1,0.1-0.3,0.2-0.4,0.3c-0.4,0.5-1.1,0.8-1.2,1.6
	c0,0.2-0.1,0.4-0.3,0.5c-0.4,0.3-0.8,0.7-1.1,1c-0.1,0.2-0.3,0.3-0.4,0.5c-0.5-0.2-0.7,0.2-0.8,0.6c-0.1,0.4-0.6,0.7-1,0.7
	c-0.1,0-0.2,0-0.3,0.1c-0.4,0.5-1,0.7-1.4,1.1s-1.1,0.7-1.5,1.2c-0.2,0.2-0.5,0.3-0.8,0.5s-0.4,0.1-0.4,0.2
	c-0.1,0.6-0.7,0.7-1.1,0.8c-0.4,0.1-0.7,0.3-1,0.6c-0.3,0.3-0.8,0.5-1.3,0.5c-0.1,0.4-0.5,0.6-0.9,0.6c-0.6-0.1-1,0.4-1.5,0.5
	c-0.1,0-0.3,0.3-0.4,0.4c-0.8-0.1-0.9-0.1-0.8,0.6c-0.3,0-0.6,0.1-0.7,0.5c0,0.1-0.1,0.2-0.2,0.2c-0.4-0.1-0.6,0.2-1,0.4l-0.5-0.5
	c-0.3-0.3-0.5-0.4-0.9-0.1c-0.1,0.1-0.2,0.2-0.4,0.3c-0.1,0.1-0.3,0.2-0.5,0.2c-0.3,0.1-0.5,0.1-0.8,0.1c-0.3,0-0.6-0.1-0.8-0.2v0.4
	c-0.4,0-0.8,0-1.1,0.1c-0.5,0-0.9,0.4-1,0.8l-0.6-0.2c-0.2,0.1-0.1,0.5-0.5,0.4c-0.1,0-0.2,0-0.2,0.1c-0.3,0.4-0.6,0.3-1,0.1
	s-0.5-0.2-0.9,0.3c-0.1,0.1-0.2,0.2-0.3,0.2c-0.3,0-0.7,0-1-0.1c-0.2-0.1-0.5-0.1-0.6,0.1c-0.1,0.1-0.4,0-0.5-0.1
	c-0.2-0.1-0.3-0.2-0.5-0.3c-0.2-0.1-0.4-0.1-0.6,0.1c0,0,0,0,0,0l0,0c-0.3,0.5-0.9,0.8-1.5,0.6c-0.1,0-0.2,0-0.3,0.1
	c-0.2,0.2-0.6,0.3-0.9,0.1c-0.2-0.1-0.5-0.1-0.7,0.1c-0.4,0.2-0.9,0.2-1.4,0.2c-0.5-0.1-1.1,0.2-1.4,0.6c-0.1,0.2-0.6,0.2-0.9,0.2
	s-0.8,0-1.2,0l-3.7,0.1c0-0.1,0-0.2-0.1-0.3c-0.4-0.5-0.7-0.5-1.1,0c-0.1,0.2-0.3,0.3-0.6,0.3h-2.4c-0.2,0-0.4-0.1-0.6-0.2
	c-0.5-0.3-0.9-0.5-1.4-0.7c-0.2-0.1-0.4-0.2-0.7-0.3l-1.8-0.9l0.2,0.8c-0.7-0.1-1.4-0.3-2.1-0.6c-0.3-0.1-0.6-0.2-0.8-0.3h-0.2
	c-0.8-0.4-1.8-0.6-2.7-0.7c-0.3,0-0.7-0.2-1-0.3c-0.4-0.1-0.4-0.2-0.5-0.9l0.4-0.3c-0.3-0.6-0.8-1.2-1.3-1.6
	c-0.5-0.2-0.8-0.7-0.8-1.3c0.6-0.3,1.2,0.1,1.8,0.2V65c-0.5-0.5-1-1-1.5-1.5c-0.4-0.3-0.9-0.6-1.4-0.8c-0.5-0.3-1-0.6-1.5-0.9v-0.2
	h1.6c-0.4-0.5-1.1-0.4-1.4-0.8c0.1-0.3,0.2-0.4,0.6-0.3c0.5,0.2,1,0.1,1.5-0.1c-0.1-0.3-0.3-0.5-0.6-0.5c-0.5-0.1-1-0.3-1.4-0.7
	c-0.8-0.2-1.5-0.8-1.9-1.6c-0.1-0.1-0.2-0.2-0.4-0.3c0.6-0.4,1.2-0.2,1.7-0.3c-0.3-1-0.2-1.3,0.9-1.7l-0.2-0.6
	c0.1-0.3,0.4-0.5,0.7-0.5c0.2,0,0.3-0.1,0.4-0.2c0.2-0.4,0.5-0.3,0.9-0.4c0.7-0.1,1.3-0.1,2-0.1h0.2c1,0.2,1.9,0.4,2.9,0.5
	c0.3,0.1,0.7,0.2,1.1,0.2c0.9,0.1,1.7,0.3,2.6,0.6c0.8,0.2,1,0,1.2-0.8c0.4-1.4,0.8-2.8,1.1-4.2c0.2-0.8,0.3-1.7,0.5-2.6l0.1-0.4
	c0.1-0.4,0.2-0.7,0.2-1.1c0.2-0.6,0.3-1.3,0.5-1.9c0.3-0.8,0.5-1.5,0.5-2.3c0-0.1,0-0.2,0-0.2c0.3-0.6,0.5-1.2,0.7-1.8
	c0.3-1,0.6-1.9,1-2.8c0.3-0.9,0.6-1.9,0.9-2.8c0.3-0.7,0.5-1.5,0.6-2.3c0.3-0.5,0.6-1,0.7-1.6c0.2-0.8,0.5-1.6,0.7-2.4
	c0.1-0.3,0.2-0.7,0.3-1c0-0.5-0.3-0.9-0.8-0.7c-0.3,0.1-0.6,0-0.9-0.1c-0.3-0.1-0.6-0.2-0.9-0.2l-0.8-0.1l-4.1-0.4
	c-0.6-0.1-1.1-0.2-1.6-0.2c-0.5-0.1-1.1-0.1-1.6,0c-0.4,0-0.8,0-1.2-0.1c-0.4-0.1-0.8-0.2-1.3-0.4l0.7-0.5c-0.2-0.5-0.6-0.5-1-0.7
	c-0.3-0.1-0.6-0.3-0.8-0.6c-0.3-0.4-0.7-0.6-1.2-0.6c-0.5,0-1-0.2-1.4-0.5l0.4-0.5c-0.4-0.5-0.2-0.9,0.2-1.3c0,0,0.1-0.1,0.1-0.1
	c0.1-0.4,0.4-0.8,0.8-1c-0.8-0.3-1.5-0.8-1.9-1.6c0.4-0.4,0.4-0.4,1,0.1c0.1,0,0.1,0,0.1-0.1c0-0.5,0.4-0.6,0.8-0.8
	c0.7-0.1,1.4-0.3,2.1-0.6c0.3-0.1,0.6-0.3,0.8-0.4c1.1-0.2,2.2-0.5,3.2-1l2.1-0.3c1.4-0.2,2.9-0.4,4.3-0.6c0.8,0,1.5,0,2.3,0
	c0.6,0,1.2-0.1,1.8-0.1h2.8l3.5-0.1c0.2,0,0.4,0,0.6,0c1,0.1,1.9,0.2,2.9,0.3c1.3,0.1,2.5,0.2,3.8,0.5c0.8,0.2,1.5,0.4,2.3,0.5
	c1.3,0.2,2.6,0.5,3.9,0.9c1.3,0.4,2.5,1,3.7,1.5l0.4,0.2c1.2,0.6,2.3,1.3,3.4,2c0.5,0.3,1,0.5,1.5,0.7c0.4,0.2,0.8,0.4,1.2,0.7
	c1,0.8,2.1,1.6,3.1,2.3c0.6,0.4,1.2,0.8,1.9,1.3c0.1,0.1,0.2,0.1,0.2,0.2c0.4,0.5,0.9,0.9,1.4,1.2c1.2,0.7,2.2,1.6,3.1,2.7
	c1.3,1.5,2.4,3.1,3.4,4.8c0.6,1,1,2.1,1.3,3.2c0.1,0.3,0.2,0.6,0.2,0.9c0.3,1.4,0.5,2.8,0.6,4.2v0.8c0.1,1.7-0.1,3.5-0.5,5.2
	c-0.2,0.8-0.3,1.7-0.5,2.6c-0.1,0.5-0.4,1-0.5,1.6s-0.3,0.8-0.4,1.3c0,0.2-0.1,0.4-0.2,0.5C244.3,53.5,244.2,54.1,244.3,54.7z
	 M231.2,47.2c0.1-0.3,0.1-0.5,0.1-0.7c0.1-0.2,0.1-0.4,0.1-0.6c-0.1-0.5,0-1,0.4-1.4c0.2-0.2,0.2-0.5,0.2-0.7c0-0.4,0-0.9-0.1-1.3
	c0-0.4-0.1-0.8-0.3-1.2c-0.1-0.3-0.2-0.6-0.2-0.8c-0.1-0.3-0.2-0.6-0.3-0.8c-0.4-0.6-0.9-1.2-1.3-1.8c-0.3-0.4-0.6-0.7-0.9-1
	c-0.3-0.3-0.6-0.6-1-0.8c-1.2-0.7-2.1-1.9-3.5-2.4c-0.2-0.1-0.3-0.2-0.5-0.3c-1.2-0.8-2.5-1.5-3.8-2.1c-0.6-0.1-1.3-0.3-1.9-0.5
	h-0.2c-0.5-0.2-1.1,0-1.6-0.1c-0.3-0.1-0.6,0.1-0.6,0.4V31c-0.1,0.3-0.2,0.7-0.4,1c-0.2,0.3-0.2,0.7-0.1,1c0,0.2,0,0.4-0.1,0.6
	c-0.3,0.5-0.5,1.1-0.5,1.8c0,0.1-0.1,0.2-0.1,0.3c-0.4,1-0.7,2.1-0.9,3.2c-0.1,0.3-0.2,0.6-0.3,0.8c-0.2,0.5-0.4,1.1-0.4,1.7
	c0,0.5-0.2,0.9-0.5,1.2c-0.2,0.2-0.3,0.5-0.3,0.8c0.2,1.3-0.4,2.6-0.6,3.9c-0.1,0.5-0.2,1.1-0.4,1.6c-0.1,0.2-0.1,0.5-0.2,0.7
	c-0.2,0.5-0.3,1-0.4,1.5c0,0.4,0,0.9-0.2,1.3c-0.1,0.3-0.2,0.7-0.2,1c-0.1,0.6-0.3,1.2-0.3,1.8c-0.1,0.5,0.2,0.7,0.6,0.6
	c0.3,0,0.6-0.1,0.9-0.1l2.9-0.4c0.4,0,0.8-0.1,1.1-0.3c0.1-0.1,0.3-0.1,0.4-0.1c0.5-0.1,1-0.2,1.5-0.4c0.6-0.3,1.3-0.5,2.1-0.5
	c0.1,0,0.2,0,0.2,0c0.8-0.3,1.6-0.5,2.5-0.7c1.2-0.2,2.2-0.7,3.2-1.4c0.7-0.4,1.3-0.9,2-1.3s1.3-1,2-1.5c0.4-0.3,0.7-0.8,1.1-1.1
	c0.3-0.2,0.5-0.5,0.4-0.9L231.2,47.2z"/>
<path class="st0" d="M299.7,70.7c-0.5,0.2-0.8,0.7-0.7,1.3c0,0.1,0,0.1,0,0.2c-0.2,0.8-0.4,1.6-0.4,2.4c-0.1,0.6-0.2,1.2-0.2,1.8
	c0,0.3-0.1,0.6-0.1,0.9c-0.2,0.8-0.2,1.6,0,2.3v0.2l-0.5,0.1c-0.2,0.4-0.2,0.8,0.1,1.1c0.3,0.4,0.3,0.7-0.1,1l-0.6,0.5
	c-0.6-0.3-1-0.8-1.1-1.4c-0.1-0.4-0.1-0.4-0.5-0.7c-0.2,0.2-0.2,0.3-0.1,0.6c0.1,0.7,0,0.9-0.7,1c0,0.1,0,0.2-0.1,0.4
	c0,0.1,0,0.2,0,0.3l-1-0.2c-0.1,0.2-0.1,0.4-0.2,0.7c0,0.3-0.1,0.4-0.3,0.5c-0.2,0.1-0.5,0-0.6-0.2c-0.1-0.1-0.1-0.3-0.2-0.5
	c-0.1-0.4-0.1-0.8-0.2-1.3c-0.1-0.3-0.1-0.6,0.1-0.9c0.2-0.5-0.2-0.9-0.7-0.8c-0.1,0-0.1,0.1-0.2,0c-0.5-0.4-1-0.1-1.5,0v0.7
	l-0.8-0.3c-0.2,0.3-0.1,0.5,0.1,0.7c0.3,0.4,0.4,0.9,0.4,1.4c-0.2,0-0.4,0-0.6,0.1c-0.2,0.1-0.4,0-0.5-0.2c-0.3-0.6-0.9-0.9-1.1-1.4
	c-0.1-0.1-0.2-0.2-0.2-0.4c0-0.7-0.6-0.9-1.1-1.2c0-0.7-0.3-1.4-0.9-1.9l0.1-0.1h0.3c0.5,0.1,0.6-0.1,0.6-0.5c0-1,0.1-1.9,0.1-2.9
	c0-0.1,0-0.2,0-0.3c0.4-1.2,0.7-2.4,0.9-3.6c0.4-1.8,0.8-3.5,1.1-5.3c0.3-1.1,0.4-2.3,0.4-3.4c0-0.1,0-0.2,0-0.3
	c0.2-1.7,0.5-3.5,0.7-5.2c0.2-0.9,0.2-1.9,0.2-2.9c0-0.5,0-0.9,0.1-1.4c0.1-1,0.3-2,0.4-3c0.1-0.8,0.1-1.5,0.2-2.2
	c0.2-1.5,0.4-3,0.6-4.5c0.1-1,0.2-2,0.3-2.9c0-0.2,0-0.5,0.1-0.7c0.2-1,0.4-2,0.6-2.9c0.4-2.4,0.9-4.7,1.3-7.1l0.2-1.3v-0.1
	c0.5-0.9,0.4-1.9,0.7-2.9c0.1-0.3,0.2-0.5,0.3-0.8c0.4-0.7,0.7-1.5,0.9-2.2c0.3-0.9,0.8-1.7,1.5-2.4c0.3-0.2,0.4-0.7,0.8-0.8
	l0.8,0.4c0.1-0.1,0.2-0.3,0.3-0.4c0.1-0.1,0.2-0.1,0.3-0.1c0.1,0.1,0.2,0.2,0.2,0.3c0,0.3,0,0.5,0.1,0.8l0.6,0.1
	c0.3-0.4,0.5-0.8,1.1-0.8c0.1,0.2,0.2,0.5,0.3,0.6c0.5,0.3,0.7,0.9,0.5,1.4c0,0.1,0,0.2,0.1,0.3c0.2,0.4,0.4,0.7,0.6,1.1
	c0.1,0.3,0.2,0.6,0.1,0.9c-0.2,0.8-0.2,1.7,0,2.5c0.1,0.3,0.1,0.6,0,0.9c-0.1,0.2-0.2,0.5,0.2,0.7c0.1,0.1,0.2,0.4,0.2,0.6
	c0.1,0.9,0.1,1.8,0.1,2.7c0,0.5-0.1,1-0.2,1.5c0,0.1-0.1,0.3-0.1,0.4c0.2,1-0.4,2-0.4,3c0,0.1,0,0.3,0,0.4c0.1,1.1,0.1,2.2,0,3.3
	c0,0.4,0.1,0.9,0.4,1.1c0.2-0.1,0.4-0.3,0.6-0.4c0.4-0.4,0.8-0.7,1.4-0.8c0.1,0,0.2,0,0.2-0.1c0.4-0.3,0.9-0.7,1.3-1
	c0.2-0.1,0.4-0.2,0.6-0.2c0.1,0,0.4,0,0.4-0.1c0.4-0.5,1.2-0.6,1.7-1c0.1-0.1,0.4-0.1,0.5-0.1c0.5,0,0.7-0.2,0.8-0.7
	c0-0.2,0.1-0.4,0.4-0.5c0.2,0,0.4-0.2,0.5-0.4c0.3-0.4,0.7-0.6,1.2-0.8c0.3-0.1,0.5-0.3,0.7-0.5c0.2-0.4,0.6-0.7,1-0.8
	c0.4-0.2,0.8-0.4,1.2-0.6c1.2-0.6,2.5-1.2,3.7-1.8h0.2c0.2,0.3,0.4,0.6,0.8,0.5c0.1,0,0.1,0,0.2,0.1c0.3,0.2,0.8,0.3,1.1,0.2
	c0.1,0,0.3-0.1,0.3,0c0.5,0.5,1.1,0.2,1.6,0.3c0.2,0.4,0.3,0.8,0.8,1c0.2,0.1,0.2,0.5-0.1,0.6c-0.5,0.3-0.5,0.3-0.1,0.7
	s0.3,0.2,0.3,0.8h-0.5c0,0-0.1,0-0.1,0.1c0,0.2,0,0.4,0,0.6c0.1,0.5,0,1-0.4,1.3c0,0-0.1,0.1-0.1,0.1c-0.4,0.8-0.8,1.6-1.2,2.4
	c-0.1,0.3-0.3,0.5-0.5,0.7c-0.3,0.2-0.5,0.5-0.8,0.7c-0.4,0.3-0.8,0.6-1.1,1c0,0.1-0.1,0.1-0.2,0.1c-0.5,0.1-1,0.3-1.3,0.7
	c-0.2,0.1-0.3,0.2-0.5,0.3c-0.4,0.1-0.8,0.3-1.1,0.7c-0.1,0.1-0.2,0.1-0.3,0.2c-0.9,0.3-1.7,0.9-2.2,1.7c-0.2,0.3-0.5,0.6-0.8,0.9
	c-0.3,0.2-0.4,0.5-0.3,0.8c-0.2,0-0.4,0-0.6,0.1c-0.2,0.1-0.2,0.3-0.3,0.5c-0.1,0.2,0,0.4,0.1,0.5c0,0,0,0,0,0
	c0.2,0.1,0.4,0.1,0.5,0c0.8-0.8,1.9-1.1,2.7-1.8c0.1-0.1,0.3-0.2,0.4-0.3c0.5-0.5,1.2-1,1.9-1.3c0.1,0,0.3,0,0.4,0
	c-0.2,0.3-0.3,0.6-0.7,0.7h-0.1c-0.5,0.6-1.3,0.7-1.7,1.4c-0.1,0.2-0.3,0.2-0.5,0.3c-0.5,0.4-1,0.9-1.5,1.3
	c-0.9,0.6-1.8,1.1-2.6,1.8c-0.7,0.5-1.4,0.9-2.1,1.3c-0.1,0.1-0.2,0.2-0.3,0.3s-0.4,0.3-0.7,0c0.1-0.2,0.3-0.4,0.5-0.6
	c0.3-0.2,0.5-0.5,0.7-0.9c0.1-0.1,0.2-0.2,0.3-0.2c0.4,0,0.6-0.3,1-0.5l-0.2-0.4c-0.4-0.1-0.9,0.1-1.1,0.4c-0.5,0.4-1,0.8-1.6,1.1
	c-0.8,0.5-0.8,1.1-0.1,1.7c-0.1,0.3-0.2,0.7-0.4,1c-0.1,0.3-0.1,0.6,0.1,0.8c0.6,1.4,1.3,2.7,2,4.1c0.5,1.1,1,2.3,1.5,3.4
	c0.3,0.5,0.5,1.1,0.5,1.6c0,0.2,0,0.3,0.1,0.5c0.5,0.9,0.9,1.7,1.4,2.6s0.8,1.6,1.1,2.4c0.5,1.2,1,2.3,1.7,3.5
	c0.2,0.4,0.4,0.9,0.6,1.3c0.1,0.2,0.1,0.4,0.3,0.5c0.5,0.6,0.8,1.4,1,2.1c0.1,0.4,0.3,0.7,0.5,1c0.2,0.3,0.3,0.7,0.1,1
	c-0.1,0.3-0.2,0.5-0.3,0.8c-0.1,0.3,0,0.7,0.2,0.9c0.1,0.2,0.3,0.4,0.4,0.6c0.1,0.2,0.1,0.4,0.1,0.6c-0.1,0.7,0,1.4,0.2,2.1
	c0.1,0.3,0.2,0.5,0.2,0.8c0.1,0.3-0.1,0.6-0.4,0.7c-0.1,0.1-0.2,0.2-0.3,0.3c-0.4,0.6-0.5,0.7-1.1,0.2l0,0c-0.7,0.1-0.8,0.6-0.8,1.3
	c-0.2-0.1-0.3-0.2-0.4-0.4c-0.2-0.2-0.3-0.5-0.5-0.8c-0.1-0.2-0.5-0.3-0.7-0.2c0,0-0.1,0-0.1,0.1c-0.1,0.1-0.1,0.2-0.2,0.2
	c-0.1,0-0.3,0-0.4,0c0-0.1,0-0.2,0-0.3c0.1-0.1,0.1-0.3,0.1-0.4c0-0.3-0.2-0.5-0.5-0.4c0,0.1-0.1,0.2-0.1,0.2
	c-0.4,0.4-0.6,1.1-0.6,1.7c0,0.2-0.1,0.4-0.2,0.6c-0.5-0.5-0.8-1.1-0.9-1.8c0.3-0.1,0.4-0.2,0.5-0.6c0-0.6-0.1-1.1-0.3-1.6
	c-0.1,0.1-0.2,0.1-0.2,0.1c0,0.4,0,0.8,0.1,1.2h-0.7c-0.2,0.3,0,0.8-0.5,1.2c-0.1-0.2-0.2-0.3-0.3-0.5c-0.1-0.2-0.1-0.3-0.2-0.4
	c-0.1-0.1-0.3-0.2-0.4-0.2c-0.1,0-0.1,0.2-0.2,0.3s-0.1,0.4-0.2,0.7l-1.1-0.5c-0.1,0-0.1-0.1-0.1-0.1c-0.4-0.4-0.7-0.9-0.9-1.4
	c-0.2-0.5-0.4-0.9-0.7-1.3c-0.2-0.3-0.3-0.6-0.3-0.9c0-0.5-0.2-1-0.5-1.4c-0.3-0.5-0.6-1.1-0.7-1.7c-0.2-0.5-0.4-0.9-0.7-1.3
	c-0.2-0.5-0.6-1-0.8-1.5s-0.3-1-0.5-1.4c-0.1-0.3-0.3-0.6-0.4-0.8c-0.3-0.4-0.5-0.8-0.7-1.3c-0.1-0.2-0.2-0.4-0.4-0.6
	c-0.1-0.1-0.2-0.1-0.4-0.1c-0.1,0.1-0.2,0.2-0.2,0.3C299.8,70.3,299.8,70.5,299.7,70.7z"/>
<path class="st0" d="M338.1,84.1l-0.6,0.8c-0.1-0.1-0.3-0.2-0.4-0.4c-0.1-0.2-0.2-0.3-0.4-0.5c-0.2-0.2-0.4-0.3-0.6,0
	c0,0.1-0.1,0.1-0.1,0.2c-0.4,0.3-0.4,0.3-0.1,0.8c0,0.1,0,0.1,0,0.2l-0.7,0.1c-0.2-0.4,0.1-0.8-0.3-1.1l-1,0.8l-0.7-0.1h-0.4
	c-0.1,0-0.3-0.1-0.4,0c-0.3,0.3-0.8,0.2-1.1,0.3s-0.4,0.3-0.5,0.6c-0.4-0.3-0.7-0.7-1.1-0.7c-0.3-0.1-0.6-0.2-0.9-0.4
	c-0.1,0-0.2-0.2-0.3-0.3l-0.8,0.2c-0.8-0.4-0.8-0.5-0.3-1.1c-0.2-0.4-0.6-0.5-1-0.6c-0.1,0-0.2-0.1-0.3-0.2
	c-0.2-0.4-0.6-0.5-0.9-0.3c0,0,0,0-0.1,0l0,0c-0.1,0-0.2,0-0.3-0.1l0.7-0.2c-0.3-0.7-1-0.9-1-1.7l-0.6,0.2l-0.3-0.3l0.2-0.4
	c-0.3,0-0.5-0.1-0.7,0.1c-0.1,0.1-0.3,0.1-0.5,0v-0.1c-0.2-0.2-0.5-0.4-0.5-0.9c0-0.2,0-0.3-0.1-0.4c-0.3-0.3-0.3-0.8-0.1-1.1
	c0.3-0.6,0.2-1.2-0.3-1.7c-0.2-0.2-0.2-0.4-0.2-0.6c0.1-0.3-0.2-0.4-0.3-0.6c-0.3-0.3-0.8-0.5-0.6-1.1v-0.1
	c-0.4-0.5-0.4-1.1-0.2-1.7c0-0.1-0.1-0.2-0.1-0.4c-0.1-0.5-0.2-1-0.3-1.6c0-0.1,0-0.2,0-0.2c-0.2-0.8-0.2-1.7-0.1-2.5
	c0.1-0.7,0.1-1.4,0.1-2.2c0-0.5,0.1-1,0.3-1.4c0.1-0.1,0.1-0.2,0.1-0.3c-0.2-0.4-0.1-0.8-0.1-1.2l0.2-0.1c0.5-0.2,0.6-0.2,0.6-0.7
	c0-0.3,0-0.7,0.1-1c0.2-0.8,0.4-1.6,0.5-2.4c0.1-0.4,0.1-0.9,0.1-1.3c0.3,0,0.4-0.3,0.4-0.7c0.1-0.7,0.4-1.4,0.6-2.1
	c0-0.1,0.1-0.2,0.2-0.2c0.1-0.1,0.2-0.2,0.2-0.3c0.3-0.6,0.6-1.3,0.9-1.9c0.2-0.5,0.5-0.9,0.8-1.4s0.5-0.7,0.7-1.1
	c0.1-0.2,0.2-0.3,0.2-0.5c0.1-0.3,0.2-0.6,0.5-0.9c0.1-0.2,0.2-0.4,0.3-0.6c0.1-0.3,0.3-0.6,0.5-0.8c0.5-0.4,0.8-1,0.9-1.7
	c0-0.3,0.2-0.4,0.5-0.5c0.3-0.2,0.6-0.4,0.9-0.6c0.3-0.2,0.5-0.5,0.9-0.4c0,0,0.1,0,0.1,0c0.6-0.4,1.2-0.2,1.8-0.1
	c0,0.2,0.1,0.4,0.1,0.6c0.1,0.2,0.3,0.3,0.4,0.3s0.3-0.2,0.4-0.3c0.1-0.1,0.2-0.3,0.2-0.5c0.4,0.3,0.9,0.6,1.4,0.6h0.2
	c0.3,0.4,0.6,0.2,1,0c0,0.2,0.1,0.4,0.1,0.6c-0.1,0.4,0.1,0.8,0.3,1.1c0.1,0.1,0.1,0.3,0.1,0.4c-0.1,0.6-0.3,1.3-0.6,1.9
	c-0.1,0.1-0.1,0.2-0.1,0.3c-0.1,0.7-0.4,1.3-0.8,1.8c-0.3,0.4-0.5,0.9-0.6,1.5c-0.5,1.1-0.9,2.1-1.3,3.3c-0.1,0.7-0.4,1.4-0.7,2.1
	c-0.2,0.5-0.4,1-0.5,1.5c-0.1,1-0.3,1.9-0.7,2.8v0.2c-0.1,0.8-0.1,1.6-0.2,2.3c-0.2,1.1-0.2,2.3-0.1,3.4c0.2,1,0.1,2.1,0.3,3.2
	c0.2,1.7,1,3.3,2.2,4.5c0.7,0.6,1.8,0.7,2.5,0.1c0.6-0.5,1.1-1.1,1.5-1.7c0.2-0.5,0.5-0.9,0.9-1.1c0.2-0.2,0.3-0.4,0.3-0.6
	c0.2-0.9,0.5-1.7,1-2.4c0.2-0.4,0.5-0.8,0.7-1.3c0.5-1,1.2-2,2-2.8c0.5-0.5,1.2-0.9,1.7-1.5c0.3-0.4,0.8-0.7,1.2-0.9
	c0.4-0.1,0.5-0.6,0.7-0.9c0.3-0.4,0.5-1,0.5-1.5c0-0.5,0.2-1,0.5-1.3c0.1-0.1,0.2-0.2,0.2-0.3c0-0.5,0.2-1,0.5-1.4
	c0.3-0.4,0.4-0.9,0.4-1.3c0-0.4,0.2-0.7,0.5-0.9c0.4-0.4,0.8-0.8,1.2-1.2c0.1-0.2,0.2-0.4,0.2-0.6c0.7-0.3,1.1-0.9,1.1-1.7
	c0.2,0.2,0.4,0.4,0.6,0.5c0.5,0.4,0.9,1,1,1.7c0,0.2,0.2,0.4,0.4,0.4c0,0,0,0,0,0l0,0c0.2,0,0.4-0.2,0.4-0.4c0,0,0-0.1,0-0.1
	c0-0.6,0.1-1.1,0.3-1.7c0.1-0.1,0.1-0.3,0.2-0.4c0.5,0.3,0.4,0.8,0.5,1.2s0.2,0.7,0.3,1c0.5,0,0.3-0.4,0.5-0.6
	c0.2,0.1,0.3,0.4,0.3,0.7c0,1-0.1,2-0.3,3c-0.1,0.3-0.1,0.5-0.1,0.8c0,0.1,0,0.3,0,0.4c-0.1,0.4-0.2,0.7-0.3,1l0.5,0.6
	c0.1,0.2,0,0.1,0,0.2h-0.5v0.2c0.3,0.3,0.5,0.8,0.3,1.3c-0.1,0.9-0.3,1.8-0.4,2.7c-0.1,0.4-0.2,0.8-0.4,1.2l-0.4-0.1
	c-0.1,0.2-0.2,0.4,0,0.6c0.3,0.2,0.4,0.6,0.2,0.9c-0.2,0.7-0.3,1.5-0.3,2.2c-0.1,0.6-0.3,1.2-0.4,1.8c-0.1,0.2-0.1,0.5-0.1,0.7
	c0.1,0.3-0.1,0.6-0.4,0.8c-0.3,0.2-0.3,0.5-0.1,0.8c0.7,1.2,0.4,2.5,0.3,3.8c0,0.4-0.1,0.8-0.1,1.3c-0.1,0.4,0.1,0.8,0.4,1.1
	c0.1,0.1,0.2,0.3,0.2,0.4c0,0.4,0.2,0.9,0.2,1.3c0,0.4-0.1,0.9-0.2,1.3c0,0.1,0,0.3-0.1,0.4c-0.1,1.4-0.2,2.7-0.3,4.1v1.8
	c0,0.3-0.1,0.6-0.1,1c-0.1,0.8-0.2,1.7-0.3,2.5c0,0.4-0.1,0.9-0.1,1.3c0,0.5,0.2,1.1,0.4,1.6c0,0.2,0.1,0.3,0.1,0.5
	c-0.3-0.1-0.5-0.2-0.6-0.3c-0.2-0.1-0.4,0-0.4,0.2c0,0.1,0,0.1,0,0.2c0,0.3,0.1,0.6,0.2,0.8c0.1,0.4,0.2,0.7-0.2,1
	c-0.2,0.2-0.2,0.6-0.6,0.6c-0.1,0-0.2,0.3-0.1,0.4c0,0.2,0,0.4-0.1,0.6c-0.1,0.2-0.1,0.5-0.1,0.8c-0.3,0.2-0.6-0.1-0.7-0.3
	c-0.2-0.3-0.4-0.7-0.9-0.5c-0.2,0-0.3-0.1-0.5-0.2l-1.2,1.8c-0.2-0.1-0.4-0.2-0.5-0.3c-0.2-0.5-0.7-0.6-1.1-0.8
	c-0.5-0.2-0.8-0.6-0.9-1.1c-0.1-0.2-0.2-0.4-0.3-0.6c-0.1-0.2-0.3-0.3-0.3-0.5c-0.2-0.8-0.3-1.7-0.3-2.5v-1l0.4-0.2v-0.2
	c0-0.5,0.1-1.1,0.1-1.6c0-0.2,0.1-0.4,0.1-0.6c0-0.2-0.1-0.4-0.3-0.4c-0.4-0.3-0.9-0.4-1.3-0.3c-0.2,0.4-0.1,0.8,0.1,1.2
	c0.1,0.2,0.1,0.4-0.2,0.6c0-0.1-0.1-0.1-0.1-0.2c0.1-0.5,0-1-0.3-1.4c0-0.1,0-0.2,0-0.3c0.2-0.4,0-0.7-0.2-0.9l0.5-1.2
	c0.5,0.3,0.9,0.4,0.9,1c0.1,0.4,0.3,0.8,0.7,1c0.1-0.2,0.3-0.4,0.4-0.7c0.1-0.3,0.1-0.7,0.1-1.1c0-0.3-0.1-0.5-0.3-0.7
	c-0.2-0.2-0.2-0.6-0.3-0.9h-0.6c-0.2,0-0.5,0-0.4-0.4c0-0.1,0-0.2,0-0.2c-0.1-0.4-0.3-0.5-0.7-0.2l-0.1,0.2l-1-0.8
	c-0.1,0-0.2,0.1-0.4,0.2c-0.4,0.2-1,0.2-1.4,0c-0.3-0.2-0.8-0.3-1.2-0.1C338.9,84.3,338.5,84.3,338.1,84.1z"/>
<path class="st0" d="M242.7,62.6l0.6,0.4c0.4-0.8-0.1-1.6,0.3-2.4c0.5,0.5,0,1,0.1,1.6l0.6,0.3c0.3-0.5,0.5-1,0.5-1.6
	c0.1-0.5,0.1-0.8,0.7-0.9c0-0.2,0-0.5,0-0.7c0-0.5,0.1-1,0.3-1.5c0.2-0.7,0.4-1.4,0.6-2.1c0.2-0.7,0.5-1.5,0.8-2.2
	c0.3-0.6,0.6-1.2,0.9-1.8c0.3-0.5,0.6-1,0.9-1.5c0.2-0.4,0.3-0.7,0.4-1.1c0.1-0.5,0.5-0.8,0.9-1.1c0.5-0.5,1.1-1,1.6-1.5
	c1-0.9,2-1.7,3.2-2.4c0.4-0.2,0.7-0.5,1.1-0.6c0.2-0.1,0.4-0.2,0.6-0.2c0.1,0,0.2,0,0.3-0.1c0.2-0.4,0.6-0.4,0.9-0.5
	s0.8-0.3,1.2-0.4c1.4-0.5,2.9-0.7,4.5-0.7c0.3,0,0.5-0.1,0.8-0.1c0.3,0,0.6,0,0.9,0.1c0.1,0,0.3,0.1,0.4,0.1l3.1,0.1
	c1.2,0,2.3,0.2,3.5,0.5c1,0.3,2,0.6,3,1c0.6,0.3,1.2,0.7,1.8,1.1c0.3,0.2,0.6,0.3,0.9,0.2c0.5-0.1,0.8,0,0.8,0.6
	c0.1,0.5,0.3,0.9,0.7,1.2c0.5,0.5,0.9,1.1,1.4,1.6s0.8,0.7,1.1,1.1c0.2,0.3,0.4,0.6,0.6,0.9c0.2,0.3,0.3,0.7,0.5,1
	c0.2,0.3,0.2,0.7,0.1,1c0,0.2,0,0.4,0,0.5c0.1,0.3,0.2,0.6,0.3,0.9s0.2,0.9,0.4,1.3c0.4,1.2,0.5,2.6,0.3,3.9c0,0.2,0,0.4-0.1,0.6
	c0,0.2,0,0.3-0.1,0.3c-0.6,0.2-0.5,0.8-0.7,1.3c-0.5,1.2-0.5,2.6-1.3,3.8c-0.5,1.6-1.6,2.7-2.5,4c-0.3,0.4-0.7,0.6-0.8,1.1
	c0,0.1-0.1,0.1-0.1,0.1c-0.7,0.3-0.9,1-1.3,1.6c0,0,0,0.1-0.1,0.1c-0.5,0.2-0.6,0.7-1,0.9c-0.5,0.3-0.9,0.7-1.3,1.1
	c-0.2,0.2-0.5,0.4-0.7,0.5c-0.7,0.3-1.3,0.7-1.8,1.2c-0.1,0.2-0.2,0.3-0.2,0.5c0,0.2,0,0.4,0,0.7c-0.9,0.3-0.9,0.3-1.1,1.2
	c-0.2,0-0.4,0-0.5-0.1c-0.4-0.2-0.8-0.2-1.2-0.1c-0.4,0.1-0.8,0.1-1.2-0.1c-0.2,0-0.4-0.1-0.6-0.1l0.5,0.9c-0.4,0.2-0.8,0.1-1.2-0.1
	c-0.3-0.2-0.7-0.3-1.1-0.3c-0.1,0-0.2,0.1-0.3,0.2c0,0.2-0.1,0.4-0.1,0.6c-0.7,0.1-1.4,0.2-2.1,0.1c-0.4,0-0.7-0.2-1.1,0
	c-0.1,0.1-0.4-0.1-0.6-0.2l-0.6-0.2c-0.1,0.5,0.3,1,0.8,1.1c0.5,0.1,1,0.2,1.5,0.2c0.2,0,0.4,0.1,0.6,0.2c-0.5,0-1-0.2-1.2,0.4
	l-1.5-0.4c-0.4-0.6-1.2-0.9-1.9-0.9c-0.4-0.1-0.8-0.2-1.2-0.3c-1-0.4-2-0.8-3-1c-0.1,0-0.2-0.1-0.3-0.1c-0.4-0.3-0.9-0.2-1.2,0.1
	c-0.2,0.2-0.7,0.2-1.1,0.2c0.1,0.1,0.2,0.3,0.4,0.4c0.2,0.1,0.5,0.2,0.8,0.3c0.6,0.3,1.2,0.7,1.7,1.1c0.2,0.1,0.2,0.3,0.4,0.6
	c-0.1,0-0.2,0-0.3,0l-3-0.8c-1.6-0.4-3-1.4-3.9-2.7c-0.3-0.5-0.8-0.9-1.2-1.3c-0.6-0.4-1-1-1.3-1.6c-0.3-0.4-0.5-0.9-0.6-1.3
	c-0.6-1.7-1.1-3.5-1.4-5.2c-0.3-1.4-0.8-2.7-1.1-4C242.8,63.2,242.8,62.9,242.7,62.6z M272.3,54.3c-0.8-0.4-1.6-0.6-2.5-0.7
	c-0.6-0.2-1.2-0.1-1.8,0.1c-0.2,0-0.3,0-0.5,0c-0.2,0-0.3,0-0.5,0c-0.8,0.1-1.6,0.2-2.4,0.2c-1,0-2,0.2-2.9,0.7c-1,0.5-2,1.1-3,1.7
	c-0.1,0.1-0.2,0.2-0.2,0.3c-0.3,0.3-0.6,0.6-0.9,0.8c-0.8,0.5-1.3,1.3-1.7,2.1c-0.5,1.1-0.8,2.3-0.7,3.5c0,0.2,0,0.3,0,0.5
	c-0.1,0.6,0.3,1.2,0.8,1.4c0.8,0.3,1.7,0.7,2.5,1l2.7,1.1c0.4,0.2,0.8,0.4,1.2,0.5c0.7,0.2,1.4,0.4,2,0.8c0.4,0.3,1,0.4,1.5,0.3
	c0.8-0.2,1.6-0.5,2.3-0.9c0.5-0.4,1.1-0.7,1.8-0.7c0.4-0.1,0.8-0.2,1.1-0.4c0.2-0.1,0.3-0.3,0.4-0.4c0.2-0.3,0.5-0.6,0.7-0.8
	c0.8-0.5,1.5-1.1,2.1-1.8c0.1-0.1,0.3-0.3,0.4-0.4c0.5-0.3,0.8-0.8,1.2-1.2c0.1-0.2,0.3-0.3,0.4-0.4c0.5-0.4,0.9-1,1-1.7
	c0.1-0.2,0.1-0.4,0-0.6c-0.4-0.4-0.1-0.8-0.2-1.2c0.6-0.2,0.6-0.3,0.4-0.8c-0.4-0.8-1-1.5-1.7-2l-0.2,0.5c-0.3-0.3-0.6-0.6-1-0.8
	c-0.2-0.2-0.5-0.4-0.8-0.5c-0.2-0.1-0.5-0.1-0.7-0.2C273.1,54,272.6,54.1,272.3,54.3z M246.3,67.1c0.3,0.6,0.3,0.6,0.6,0.8
	c0-0.4-0.1-0.7-0.1-1.1L246.3,67.1z"/>
<path class="st0" d="M266.3,80c0.1-0.3,0.1-0.5,0.4-0.5c0.7-0.1,1.4-0.3,2.1-0.7c0.2-0.1,0.5-0.3,0.7,0.1
	C268.5,79.4,267.5,79.8,266.3,80z"/>
<path class="st0" d="M304,79.8c0.9,0.5,1.1,1.3,0.7,1.8c-0.3-0.2-0.2-0.6-0.3-0.9L304,79.8z"/>
<path class="st0" d="M259.6,81.2c-0.6,0.2-1.2,0-1.6-0.4C258.6,80.6,259,81.2,259.6,81.2z"/>
<path class="st0" d="M264.5,80.2c0.1,0,0.1,0,0.2,0l0.3,0.1C264.9,80.4,264.8,80.4,264.5,80.2z"/>
<path class="st0" d="M246.3,67.1l0.4-0.3c0.1,0.5,0.1,0.8,0.1,1.1C246.6,67.7,246.6,67.7,246.3,67.1z"/>
<path class="st0" d="M92.8,84.4c-1.2-0.4-1.2-0.4-1.6,0.3l-1-0.3c-0.7-0.2-0.7-0.2-1.2,0.3c-0.5,0-0.7-0.7-1.3-0.6l0.1,0.6
	c-0.2,0.2-0.4,0.1-0.6,0c-0.8-0.8-1.7-1.6-2.4-2.6c-0.8-0.8-1.6-1.5-2.5-2.2c-1-0.8-1.8-1.7-2.8-2.5c-0.5-0.5-1-0.9-1.7-1.3
	c-0.2-0.1-0.4-0.4-0.6-0.6c-0.2-0.3-0.4-0.6-0.6-0.9c-0.2-0.4-0.5-0.7-0.9-1c-0.1-0.1-0.1-0.2-0.2-0.2l-2.5-4.3h-0.6
	c-0.1-0.2-0.2-0.5-0.2-0.8c0.1-0.2,0.1-0.4,0-0.5c-0.5-1.2-0.9-2.4-1.4-3.7c-0.1-0.1-0.2-0.2-0.3-0.2c0,0.4,0.1,0.7,0.2,1.1
	c0.1,0.4,0.2,0.7,0.3,1.1c0.1,0.3,0.2,0.7,0.3,1.1c-0.4-0.3-0.7-0.6-0.9-1.1c-0.1-0.2-0.2-0.6-0.6-0.6s-0.4,0.4-0.5,0.7
	c0,0.1,0,0.3,0,0.4c0.1,0.2,0,0.5-0.3,0.6c-0.1,0.2-0.3,0.3-0.3,0.5c-0.4,0.8-0.8,1.6-1.3,2.4c-0.3,0.4-0.5,0.8-0.7,1.3
	c-0.2,0.4-0.4,0.7-0.7,1c-0.7,0.5-1.2,1.2-1.7,1.9c-0.4,0.5-0.9,0.9-1.4,1.3c-0.4,0.5-0.8,0.9-1.2,1.3c-0.2,0.2-0.4,0.5-0.6,0.7
	s-0.4,0.3-0.5,0.5s-0.1,0.1-0.1,0.1c0,0.5-0.5,0.6-0.8,0.9c-0.9,0.7-1.7,1.4-2.6,2.1S55.8,82.4,55,83c-0.3,0.2-0.6,0.5-0.9,0.7
	s-0.8,0.5-1.2,0.8c-0.2,0.2-0.4,0.3-0.6,0.5c-0.2,0.2-0.3,0.3-0.5,0.4c-0.6,0.2-1.1,0.6-1.5,1c-0.4,0.3-0.8,0.5-1.2,0.7l-4.3,2.9
	c-0.3,0.2-0.7,0.3-1,0.6c-0.2,0.2-0.5,0.4-0.7,0.7c-0.7,0.1-0.7,0.1-0.8,0.7c-0.8-0.1-1.7,0.2-1.8,0.9c0,0-0.1,0.1-0.1,0.1
	c-1,0.1-1.9,0.4-2.7,1c-1,0.6-2.1,1-3.2,1.5s-1.8,0.9-2.8,1.4c-0.5,0.3-1.1,0.5-1.6,0.7c-0.8,0.4-1.6,0.6-2.4,0.9
	c-0.8,0.2-1.6,0.2-2.4,0.1c-0.8-0.1-1.6,0-2.3,0.3c-0.1,0-0.1,0.1-0.2,0.1c-0.6,0.1-0.8,0.1-0.8-0.6c0-0.2,0-0.3-0.1-0.5h-3.1
	c-0.2,0-0.5-0.1-0.6-0.3c-0.3-0.3-0.6-0.5-1-0.7c-0.4-0.3-0.8-0.6-1.2-0.9c-0.1-0.1-0.1-0.3-0.1-0.4c0.1-0.5,0-1-0.3-1.4
	c-0.1-0.2-0.1-0.4-0.1-0.6c0.1-0.2,0.1-0.5-0.2-0.6c0,0-0.1,0-0.2-0.1c0.4-0.6-0.2-1-0.4-1.4c0-0.3,0.1-0.7,0.1-1
	c0.1-0.3,0.2-0.5,0.3-0.8c0.2-0.4,0.1-0.6-0.3-0.8c-0.2-0.1-0.4-0.3-0.6-0.4c-0.4-0.5-0.5-1.1-0.3-1.7c0.2-0.3,0.5-0.5,0.8-0.7
	c-0.1-0.4,0.2-0.9,0.6-0.9c0.5-0.2,0.6-0.7,0.9-1s0.4-0.5,0.6-0.8c0.2-0.3,0.4-0.5,0.6-0.7c0.3-0.3,0.7-0.6,1.1-0.8
	c0.2-0.1,0.4-0.4,0.4-0.5c-0.1-0.5,0.3-0.8,0.6-1.2c0.6-0.7,1.4-1.2,2.4-1.3c1.5-0.2,3-0.7,4.3-1.6c0-0.3-0.1-0.6-0.2-0.8
	c-0.1-0.3-0.2-0.7-0.4-1.1s-0.3-0.7-0.4-1.1c-0.1-0.2-0.1-0.4-0.1-0.6c-0.1-0.7-0.3-1.4-0.6-2.1c-0.1-0.2-0.1-0.5-0.1-0.8
	c0-0.2,0-0.3-0.1-0.5c-0.2-0.4-0.3-0.9-0.4-1.4c-0.1-0.5-0.2-1-0.3-1.6c-0.1-0.5-0.3-1-0.5-1.4v-0.1c-0.1-0.8-0.2-1.6-0.3-2.4
	c0-0.1,0-0.3-0.1-0.4c-0.6-0.5-0.4-1.3-0.5-1.9V61c-0.3-0.7-0.4-1.5-0.5-2.3c-0.1-0.7-0.3-1.3-0.5-2c0-0.1,0-0.3,0-0.4
	c0-0.7-0.1-1.4-0.3-2.1c-0.1-0.5-0.1-1,0-1.5c0-0.3,0-0.5,0-0.8c0-0.5-0.1-1-0.2-1.4c0-0.2,0-0.4-0.1-0.6c-0.2-0.5-0.2-1-0.1-1.5
	c0.2-0.7-0.3-1-1-0.8l-2.9,0.9c-0.7,0.2-1.5,0.3-2.2,0.5c-0.3,0.1-0.7,0.2-1,0.4c-0.4,0.1-0.9,0.3-1.2,0.6c-0.4,0.4-0.9,0.7-1.4,1
	l-2.4,1.7c-0.5,0.4-0.9,0.9-1.2,1.5c-0.3,0.6-0.7,1.1-1.2,1.4C6,55.7,5.9,55.8,5.8,56L5,57.5c-0.3-0.3-0.6-0.5-0.7-1
	c0-0.3-0.3-0.5-0.5-0.6H3.7c-1-0.3-1.9-1-2.3-2c-0.1-0.3-0.2-0.6-0.3-0.8c-0.1-0.2-0.3-0.4-0.4-0.5c-0.2-0.2-0.3-0.4-0.1-0.6
	c0.1-0.2,0.1-0.4,0.1-0.5c-0.1-0.3-0.1-0.5-0.1-0.8c0.1-0.3,0-0.7-0.2-0.9c0.1-0.5,0.2-0.9,0.4-1.3c0.3-0.8,0.5-1.6,0.6-2.4
	c0.2-0.5,0.4-0.9,0.5-1.4c0.3-0.7,0.7-1.4,1.3-2c0.6-0.8,1.4-1.3,2-2c0.6-0.8,1.5-1.4,2.4-1.8c0.2-0.1,0.3-0.2,0.4-0.3
	c0.2-0.3,0.5-0.6,0.9-0.7c0.4-0.2,0.8-0.6,1.1-1c0.4-0.7,1-1.3,1.8-1.7l1.1-0.5c0.1,0,0.1-0.1,0.2-0.1c0.4,0.2,0.8-0.1,1.1-0.3
	c0.6-0.3,1.3-0.4,1.9-0.5c0.6-0.1,1.2-0.3,1.7-0.5c0.4-0.1,0.9-0.2,1.3-0.3c0.2,0,0.4,0,0.6-0.1c0.5-0.2,1-0.4,1.5-0.5l1-0.3
	l1.1-0.3l1-0.8c0.2-0.1,0.4-0.2,0.5-0.4c0.5-0.7,1.2-0.5,1.9-0.3c0.3,0.1,0.5,0.2,0.8,0c0.1-0.1,0.2-0.1,0.4,0
	c0.2,0.1,0.4,0.2,0.6,0.3c0.4,0.4,1,0.6,1.6,0.3c0.3-0.1,0.6-0.1,0.9-0.1c0.3,0,0.6-0.1,0.9-0.1h1.5c0.2,0,0.3,0,0.5,0
	c1.1,0,2.1,0,3.2,0.1c0.6,0,1.1,0.1,1.7,0.2c0.3,0,0.5,0,0.8,0h0.2c1,0.5,2.2,0.2,3.3,0.7c0.5,0.2,1.1,0.3,1.7,0.4l2.4,0.5
	c0.8,0.2,1.3,0.3,1.9,0.5c0.3,0.1,0.5,0.3,0.8,0.3c0.6,0.2,1.2,0.4,1.8,0.6s1.3,0.5,2,0.8c1,0.5,2,0.9,2.9,1.4
	c0.6,0.3,1.2,0.7,1.8,1.1c1.7,1.2,3.2,2.7,4.8,4.1c0.5,0.5,1,1,1.6,1.5c0.1,0.1,0.2,0.3,0.3,0.5c0.2,0.3,0.4,0.6,0.6,0.8
	c0.9,1.1,1.7,2.3,2.2,3.7c0.3,0.7,0.7,1.3,1.1,2c0.1,0.1,0.2,0.2,0.3,0.3c0.1-0.2,0.2-0.4,0.3-0.6c0.1-0.3,0.1-0.6,0.2-1
	s0.2-0.6,0.2-0.9s0.1-0.4,0.1-0.5s0.1-0.5,0.1-0.7c0.2-0.6,0.3-1.2,0.4-1.8c0-0.2,0.2-0.5,0.4-0.7c0.2-0.2,0.3-0.4,0.4-0.6
	c0.3-0.8,0.9-1.4,1.3-2.1c0.1-0.2,0.2-0.5,0.3-0.7l1.8-3c0.2-0.2,0.5-0.4,0.6-0.6c0.4-0.6,0.9-1.1,1.5-1.5c0.5-0.4,0.9-0.7,1.5-1
	c0.9-0.5,1.8-0.9,2.6-1.3c0.6-0.3,1.3-0.6,2-0.8c1-0.3,2-0.4,3.1-0.4c0.5,0.1,1,0.1,1.5-0.2c0.2-0.1,0.6,0,0.9,0
	c0.4,0,0.9,0,1.3,0.1c0.7,0.1,1.3,0,1.9,0.1c1.3,0.1,2.5,0.5,3.7,1c0.8,0.4,1.5,0.9,2.1,1.5c0.5,0.5,1,1,1.5,1.5
	c0.3,0.3,0.6,0.7,0.9,1.1c0.1,0.2,0.3,0.3,0.4,0.5c0.1,0.2,0.4,0.3,0.7,0.2c0,0,0,0,0,0l0.1-0.1c0.6,0.6,1.2,1,1.9,1.3
	c1.3,0.5,2.4,1.5,3.1,2.7c0.7,1.1,1.2,2.3,1.5,3.6c0.1,0.9,0.1,1.8,0,2.7c0,0.1-0.1,0.1-0.1,0.2c0.2,0.6-0.2,1.1-0.2,1.7
	c0,0.2-0.1,0.4-0.2,0.5c-0.6,0.6-1.1,1.2-1.4,2c0,0.1-0.1,0.1-0.1,0.2c-0.8,0.8-1.5,1.5-2.4,2.2c-0.6,0.4-1.1,0.8-1.7,1.2
	c-0.8,0.6-1.6,1.2-2.4,1.7c-0.3,0.2-0.7,0.4-1,0.5c-0.7,0.4-1.3,0.8-2,1.1c-0.3,0.1-0.6,0.2-0.8,0.3c-0.7,0.2-1.4,0.4-2.1,0.7
	c-1,0.6-2.2,0.9-3.4,1c-0.4,0-0.8,0.1-1.2,0.3c-0.5,0.2-0.5,0.3-0.3,0.7c0.3,0.7,0.6,1.3,1,1.9c0.8,1.2,1.7,2.3,2.5,3.5
	c0.6,0.9,1.2,1.8,1.9,2.7c0.6,0.7,1.3,1.4,2,2.1c0.2,0.2,0.5,0.4,0.8,0.5c0.3,0.1,0.6,0.3,0.8,0.6c0.2,0.4,0.6,0.7,1.1,0.8
	c0.5,0.1,1,0.3,1.5,0.5c0.2,0.1,0.4,0.2,0.4,0.4c0.2,0.9,0.7,1.1,1.5,0.7c0.6,0.2,1,0.8,0.9,1.4c0,0.1,0.1,0.2,0,0.3
	c-0.1,0.4,0.2,0.8,0.6,0.9l-0.6,1.4c0,0.1,0,0.2-0.1,0.2c-0.5,0.2-0.4,0.6-0.4,1.1c-0.8,0.3-1.4,0.9-1.6,1.8
	c-0.4-0.2-0.8-0.3-1.1-0.5s-0.4-0.2-0.6-0.1s-0.2,0.3-0.2,0.5c0,0.1,0,0.3,0,0.4c-0.2,0.6,0.1,0.9,0.5,1.2c0.2,0.1,0.3,0.3,0.5,0.4
	l-0.1,0.1c-0.2-0.2-0.4-0.3-0.7-0.4s-0.3-0.2-0.4-0.1S98,84.7,98,84.9c0,0.6-0.4,0.8-0.9,0.4c-0.1-0.1-0.3-0.2-0.4-0.3
	c-0.4-0.6-1.1-0.9-1.9-0.8c-0.3,0.1-0.6-0.1-0.8-0.3c-0.2-0.3-0.5-0.4-0.8-0.2c-0.1,0-0.1,0.1-0.2,0.2C93,84,92.9,84.2,92.8,84.4z
	 M42,68.3c0.6,0.1,1.1-0.2,1.3-0.7c0-0.2,0.1-0.3,0.2-0.4c0.5-0.4,1.1-0.9,1.7-1.3c0.2-0.1,0.5-0.1,0.6-0.3c0.3-0.3,0.5-0.5,0.9-0.7
	c0.7-0.5,1.4-1,2-1.6c0.6-0.5,1.2-1.1,1.8-1.7c0.9-1,1.8-2.2,2.7-3.2c0.7-0.7,0.9-1.7,0.5-2.7c-0.1-0.2-0.1-0.4-0.1-0.6
	c-0.1-0.4-0.2-1-0.5-1.3c-0.5-0.5-1-1-1.3-1.6c-0.1-0.1-0.2-0.2-0.4-0.3c-0.7-0.6-1.5-1.1-2.3-1.5c-1.1-0.6-2.3-1.1-3.4-1.6
	c-0.7-0.3-1.5-0.5-2.2-0.8s-1.2-0.5-1.8-0.6c-1.3-0.3-2.7-0.6-4-0.9c-0.7-0.1-1.4-0.2-2.1-0.2c-0.3,0-0.6,0-0.8,0.1
	c-0.1,0.1-0.2,0.2-0.2,0.4c0.1,0.4,0.3,0.8,0.4,1.2c0,0.1,0.1,0.2,0.1,0.2c-0.3,0.6,0.1,1.1,0.2,1.7c0.1,1,0.5,1.9,0.6,2.9
	c0.2,0.9,0.5,1.8,0.8,2.7c0.3,0.6,0.4,1.3,0.5,2c0,0.4,0.1,0.8,0.2,1.1l0.6,2.3c0.2,0.8,0.3,1.3,0.5,1.9c0.3,1.1,0.6,2.1,0.9,3.2
	c0.1,0.5,0.2,0.9,0.4,1.4c0.2,0.5,0.5,1,0.8,1.4c0.2,0.3,0.5,0.3,0.7,0.1S41.7,68.5,42,68.3z M70.4,47.9c0,0.3,0,0.6,0,0.9
	c-0.1,0.4,0.2,0.8-0.1,1.1c0,0,0.1,0.1,0.1,0.2c0,0.1,0,0.3,0,0.4v1c0,0.8,0,1.7,0.1,2.5c0,0.9,0.1,1.8,0.3,2.6
	c0.2,0.5,0.3,1.1,0.4,1.6c0.1,0.5,0.1,0.9,0.2,1.4c0.1,0.7,0.3,1.3,0.5,2c0.3,0.8,0.7,1.6,1.1,2.4c0.2,0.5,0.6,0.9,1.2,1.1
	c0-0.2-0.1-0.4-0.1-0.6c-0.3-0.8-0.6-1.5-0.8-2.3c-0.3-1.1-0.5-2.1-0.6-3.2c-0.3-1.8-0.3-3.7-0.2-5.6c0-1.2,0-2.4,0.1-3.6
	c0-0.6,0.1-1.1,0.2-1.6c0-0.3,0.1-0.6,0.2-0.9c0.1-0.7,0.2-1.4,0.3-2.1L72.7,45c0.1-0.2,0.1-0.3,0.2-0.5c0.1-0.1,0.2-0.4,0.3-0.6
	c0.3-0.7,0.6-1.3,1-2c0.7-1.1,1.3-2.2,2.1-3.3c0.2-0.3,0.2-0.7,0.2-1c-0.6,0-0.7,0.1-2,2.1c-0.4-0.1-0.7,0.1-0.7,0.5
	c0,0.2-0.2,0.3-0.2,0.4c-0.3,0.4-0.6,0.9-0.8,1.4c-0.2,0.8-0.5,1.4-1.1,2c-0.6,0.6-0.9,1.5-0.8,2.3v0.2c-0.4,0.2-0.2,0.5-0.1,0.8
	c0,0.1,0,0.1,0,0.2L70.4,47.9z M86.7,51.6H87c1.1-0.3,2.2-0.8,3.2-1.3c0.5-0.2,1-0.4,1.4-0.7c0.4-0.3,1.1-0.7,1.7-1
	c0.5-0.3,1-0.7,1.3-1.2c0.4-0.3,0.4-0.9,0.1-1.3c-0.5-0.5-1.1-0.9-1.8-1.1c-0.6-0.1-1.2,0-1.8,0.2c-1.1,0.1-2.1,0.6-2.9,1.5
	c-0.6,0.3-0.8,1-1.2,1.6c-0.4,0.7-0.6,1.4-0.7,2.2c0,0.2,0,0.4,0.1,0.5C86.6,51.3,86.7,51.4,86.7,51.6L86.7,51.6z M81.9,36
	c0.8-0.2,1.5-0.4,2.3-0.7c1.1-0.4,2.3-0.7,3.4-1H88c0.3,0,0.6,0,0.9-0.1c0.4-0.3,0.9-0.4,1.4-0.3c-0.2-0.2-0.3-0.3-0.4-0.4
	c-0.2,0-0.5-0.1-0.7-0.1c-0.4-0.1-0.8-0.2-1.3-0.2c-0.9,0.1-1.9,0.3-2.8,0.5c-0.4,0.1-0.7,0.2-1.1,0.4l-2.4,1L81.9,36z"/>
<path class="st0" d="M121.3,78.4c-0.4,0-0.8-0.2-1.1-0.6c-0.1-0.2-0.2-0.4-0.3-0.6c-0.1-0.3-0.2-0.4-0.5-0.4c-0.3,0-0.6-0.1-0.8-0.4
	c-0.5-0.5-1-0.9-1.4-1.5c-0.2-0.3-0.5-0.4-0.9-0.4c-0.1,0.3-0.2,0.6-0.2,0.9c-0.1,0.3,0.1,0.7,0.4,0.9c0.2,0.2,0.3,0.3,0.5,0.6
	c-0.4,0.1-0.8,0-1.1-0.4c-0.3-0.3-0.4-0.6-0.5-1c-0.1-0.7-0.3-1.3-0.6-1.9c-0.1-0.2-0.2-0.5-0.2-0.8c0-0.4-0.1-0.9-0.2-1.3
	c-0.1-0.3-0.1-0.6-0.1-0.9v-2.2c-0.1-0.6-0.1-1.3,0-1.9c0-0.1,0-0.3-0.1-0.4c0-0.3-0.1-0.6-0.1-0.9c-0.1-1.4-0.2-2.7-0.2-4.1
	c-0.1-1.5-0.2-3-0.4-4.6c-0.1-0.6-0.2-1.2-0.2-1.8c0-0.9-0.1-1.7-0.3-2.5c-0.2-1.3-0.4-2.6-0.5-3.9c-0.1-0.9-0.2-1.8-0.2-2.7
	c-0.1-0.5-0.2-0.9-0.2-1.4c-0.2-1.2-0.4-2.4-0.5-3.6c-0.1-1-0.1-2-0.2-3c0-0.4-0.1-0.8-0.1-1.2c-0.1-1.1-0.2-2.2-0.2-3.2
	c0-0.6-0.1-1.2-0.1-1.8c-0.1-0.3-0.2-0.7-0.2-1c0.1-1.4,0-2.9,0-4.3c0-0.9,0.1-1.7,0.2-2.6c0-0.7,0.1-1.4,0.1-2.1
	c0-0.7,0-1.4,0.1-2.1c0.3-1,0.2-2,0.5-2.9c0.2-0.6,0.3-1.3,0.4-1.9c0.1-0.3,0.2-0.7,0.5-0.9c0.6-0.6,1-1.4,1-2.3
	c0-0.3,0.2-0.5,0.4-0.6c0.3-0.3,0.5-0.8,0.7-1.2c0.1-0.4,0.2-0.8,0.5-1.1c0.1-0.1,0.1-0.1,0.1-0.2c0-0.5,0.3-0.7,0.6-1
	c0.2-0.3,0.4-0.6,0.5-0.9c0.2-0.5,0.4-0.9,0.8-1.3C117,5,117.4,5,117.7,5c0.3-0.1,0.5-0.4,0.8-0.7c0.4,0.9,1.1,1.6,1.9,2l0.4-0.2
	c0.2-0.1,0.5-0.1,0.7,0c0.1,0,0.2,0.1,0.2,0.1c0.6,0.1,0.9,0.3,1,0.9c0.2,0.6,0.3,1.2,0.3,1.8c0,0.1,0,0.1,0,0.2
	c0.5,1.8,0.8,3.7,1,5.6c0,0.3,0,0.6,0,0.8c0.1,1.3,0.2,2.5,0.2,3.8c0,1.1,0.1,2.2,0.2,3.3c0.3,1.8,0.3,3.7,0.6,5.5
	c0.1,0.5,0.2,1,0.3,1.6s0.1,0.8,0.1,1.2c0.2,0.9,0.3,1.8,0.4,2.8c0,0,0,0.1,0,0.1c0.3,2,0.7,4,1,6c0.2,1,0.3,2,0.5,3
	c0.2,1.3,0.4,2.5,0.7,3.8c0.2,1.4,0.5,2.7,0.8,4.1c0.1,0.9,0.1,1.8,0.3,2.7s0.2,1.7,0.4,2.6s0.2,1.5,0.3,2.2
	c0.1,0.4,0.1,0.9,0.2,1.3c0.1,0.2,0.2,0.3,0.3,0.5c0,0.5,0.1,1,0.4,1.5c0.1,0.1,0.1,0.3,0.1,0.5c-0.1,0.5-0.1,1.1,0,1.7
	c0,0.3,0,0.6,0.2,0.8c0.3,0.7,0.5,1.5,0.5,2.3c0,0.5,0.2,0.9,0.5,1.2c0.5,0.5,0.8,1.2,0.8,1.9c0.1,0.9-0.1,1.8-0.6,2.6
	c-0.1,0.3-0.2,0.6-0.2,0.9c-0.2,0-0.4-0.2-0.5-0.4c-0.1-0.4-0.4-0.7-0.7-0.7c-0.3,0-0.4,0-0.5,0.3c0,0.1,0,0.1,0,0.2
	c0.1,1,0.2,2,0.3,3c0.1,0.6-0.1,0.8-0.7,0.7c-0.4-0.1-0.8-0.2-1.2-0.4c-0.2-0.2-0.4-0.4-0.6-0.6c-0.1-0.2-0.3-0.3-0.5-0.2
	c-0.3,0.1-0.6,0.1-0.9,0h-0.3c-0.3,0.5,0.2,1-0.1,1.5c-0.4-0.2-0.8-0.3-1.3-0.2c-0.4,0-0.7,0.3-0.7,0.7c0,0,0,0,0,0.1v0.8
	c-0.1,0-0.3-0.1-0.4-0.1c-0.8,0-1-0.6-1.2-1.2c-0.2-0.4-0.4-0.8-0.6-1.1c-0.2-0.2-0.5-0.4-0.7-0.3c-0.3,0.2-0.5,0.5-0.6,0.8
	c-0.1,0.6,0.1,1.2,0.4,1.6C121.1,77.9,121.2,78.2,121.3,78.4z"/>
<path class="st0" d="M155,66.6c-0.3,0-0.6-0.1-0.7-0.4c-0.2-0.2-0.4-0.4-0.7-0.2c0.2,1.5,0.5,3.1,1,4.5c-0.4-0.1-0.4-0.3-0.5-0.5
	c-0.1-0.5-0.3-1-0.5-1.5c-0.2-0.5-0.3-0.5-0.8-0.4s-1.1,0.3-1.7-0.2c-0.2-0.1-0.4-0.1-0.6-0.1c-0.1,0-0.1,0.3-0.1,0.5
	c0,0.2,0,0.3,0,0.5c-0.1,0.4-0.2,0.9-0.4,1.4c-0.3,0-0.6-0.1-0.8-0.1c-0.2-0.1-0.3-0.2-0.4-0.4c-0.2-0.4-0.3-0.8-0.4-1.2
	c-0.1-0.2-0.2-0.4-0.4-0.5c-0.1-0.1-0.3-0.1-0.4,0c-0.1,0.1-0.1,0.2-0.1,0.4c0.1,0.3,0.2,0.6,0.3,0.9c0.3,0.6,0.1,1.1,0,1.8
	c-0.3-0.3-0.4-0.4-0.6-0.6c-0.1-0.1-0.1-0.2-0.2-0.3c-0.1-0.3-0.4-0.7-0.7-0.6c-0.4,0-0.8,0.4-0.9,0.8c-0.1,0.3-0.1,0.6,0,0.9
	c0.1,0.2,0.1,0.4,0.1,0.5c-0.3,0-0.6-0.1-0.8-0.3c-0.2-0.4-0.5-0.8-0.9-1.1c-0.5-0.4-0.8-1-1.1-1.5c-0.9-1.2-1.7-2.4-2.6-3.6
	c-0.2-0.2-0.3-0.3-0.5-0.5c-0.3,0.2-0.1,0.3-0.1,0.5c0.2,0.7,0.4,1.5,0.7,2.2c0,0.1,0,0.1-0.1,0.2c-0.1-0.2-0.2-0.4-0.3-0.6
	c-0.2-0.7-0.3-1.3-0.5-2c-0.1-0.4-0.2-0.8-0.3-1.2c-0.3-1.2-0.5-2.4-0.7-3.6c-0.1-0.6-0.1-1.2-0.2-1.8s-0.2-1.2-0.2-1.8
	c-0.1-1-0.2-1.9-0.3-2.9s0-2,0-3c0-0.1,0-0.1,0-0.2c0.4-0.6,0.2-1.3,0.3-2s0.2-1.3,0.3-2c0.3-1.6,0.6-3.2,0.8-4.8
	c0.1-0.8,0.3-1.6,0.5-2.4c0.1-0.4,0-0.7,0.1-1.1c0.1-0.7,0.2-1.4,0.2-2.2c0-0.4,0-0.9,0.1-1.3c0.1-0.9,0.6-1.7,1.4-2.2
	c0.4-0.3,0.6-0.7,0.6-1.2c0-0.3,0.1-0.6,0.4-0.8c0.5-0.4,0.9-0.8,1.3-1.2c0.1-0.1,0.1-0.1,0.1-0.2c0.3-0.9,0.6-1.8,0.9-2.7
	c0.1-0.2,0.3-0.4,0.4-0.6c0.2-0.3,0.7-0.4,1-0.2c0,0,0,0,0,0l0.1,0.1c0.2,0.1,0.4,0.2,0.6,0.2l0.5-0.8c0.2,0.3,0.4,0.6,0.5,0.9
	s0.4,0.6,0.6,0.8c0.1,0.1,0.1,0.2,0.1,0.3c0.4,0.7,0.5,0.7,1,0.1c0.2-0.3,0.5-0.4,0.9-0.5c0.4,0,0.7,0.3,0.7,0.6
	c0.1,0.4,0.3,0.7,0.4,1s0.1,0.7,0.2,1c0.1,0.3,0.2,0.6,0.3,0.8c0.5,1.1,0.8,2.3,0.9,3.6c0,0.1,0,0.3,0,0.4c0.2,0.8,0.3,1.6,0.2,2.5
	c0,0.3,0,0.6,0.1,0.9c0.3,1.3,0.4,2.7,0.3,4c0,0.6,0.2,1.2,0.2,1.8c0.1,1.8,0.2,3.7,0.4,5.5c0.1,1.5,0.4,2.9,0.6,4.4
	c0.1,1,0.3,2,0.5,3c0,0.1,0,0.3,0.1,0.4c0.3,1.1,0.5,2.1,0.5,3.2c0.1,0.9,0,1.8,0,2.7c0,0.8-0.1,1.7-0.4,2.4c0,0.2,0,0.3,0,0.5
	C155.2,66,155.1,66.3,155,66.6z"/>
<path class="st0" d="M102.1,26.5c-1,0-1.3,0.7-1.6,1.5c-0.1-0.2-0.1-0.3-0.2-0.4c-0.1-0.1-0.3-0.1-0.5-0.1c-0.4,0-0.4,0.1-0.8,0.9
	l-0.6,0.1l-0.2,0.5l-1.5-1.5c-0.2-0.2-0.5-0.4-0.7-0.5c-0.3-0.2-0.5-0.4-0.8-0.5c-0.1-0.1-0.3-0.1-0.4-0.1c-0.2,0-0.2,0.2-0.1,0.4
	c0,0.2,0,0.3,0,0.5c-0.2,0.2-0.4,0.1-0.6,0c0,0,0,0,0-0.1c-0.3-0.5-0.8-0.9-1.3-1.2c-0.4-0.3-0.8-0.5-1.2-0.7
	c-0.3-0.1-0.5-0.4-0.5-0.8c0-0.4-0.2-0.8-0.6-1.1c-0.1-0.1-0.1-0.2-0.2-0.3c0-0.5-0.1-1-0.1-1.5c0-0.2,0-0.5-0.1-0.7
	c-0.2-0.3-0.2-0.7-0.2-1c0-1.2,0.1-2.4,0.1-3.5c0.1-0.4,0.2-0.9,0.4-1.3c0.2-0.4,0.6-0.5,1-0.6l0.3-0.1c0.4-0.6,0.7-1.3,1.1-2
	c0.2-0.3,0.4-0.5,0.7-0.7l1-0.9c0.3-0.3,0.6-0.7,1-0.9c0.6-0.2,1.2-0.8,1.9-0.4c0.1,0,0.2,0.1,0.2,0c0.6-0.4,1.3-0.1,1.9-0.5
	c0.1-0.1,0.3,0,0.4-0.1c0.2,0,0.4,0,0.6-0.1c0.9-0.3,1.1-0.2,1.7,0.6c-0.3,0.4-0.3,0.4-1.1,0.6c0,0.4,0.2,0.7,0.6,0.7
	c0.5,0.1,1,0.4,1.3,0.8c0.1,0.2,0.2,0.4,0.3,0.6c0.1,0.3,0.2,0.6,0.4,0.9c0.2,0.3,0.2,0.7,0,1c-0.3,0.5-0.4,1-0.4,1.6
	c-0.1,1.3-0.1,2.7,0,4c0,0,0,0,0,0.1c-0.1,1.2-0.3,2.5-0.4,3.7C102.5,24.6,102.3,25.6,102.1,26.5z"/>
<path class="st0" d="M140.4,22.3l-0.5-0.7c-0.2-0.5-0.8-0.7-1.2-0.5c0,0-0.1,0-0.1,0.1c-0.1,0-0.2,0.1-0.3,0.1c-0.7,0-1.4,0-2.1,0
	c-0.2,0-0.4,0-0.6,0.1c-0.3-0.5-0.4-1-0.4-1.6c0-0.3-0.1-0.5-0.4-0.7l-0.5,0.4c-0.2,0.1-0.3,0.2-0.5,0v-0.1c0.1-0.3,0.2-0.6,0.3-0.8
	c0.2-0.3,0.5,0.2,0.9,0c-0.1-0.6-0.1-1.1-0.6-1.4c0.2-0.6,0.5-1.1,0.6-1.7c0.1-0.4,0.1-0.8,0.1-1.2c0-0.3,0.1-0.4,0.4-0.4
	c0.3,0,0.5-0.2,0.5-0.5c0,0,0,0,0,0c0-0.4,0.2-0.7,0.6-0.8c0.2-0.1,0.3-0.2,0.3-0.4c0.1-0.3,0.2-0.7,0.2-1.1
	c0.3-0.2,0.6-0.4,0.9-0.5c0.2-0.1,0.5-0.1,0.8,0c0.2,0.1,0.4,0.2,0.6,0.2l0.2-0.5c0.1-0.2,0.1-0.4,0.2-0.7c0.3-0.8,1-1.2,1.8-1.1
	c0.3,0.1,0.6-0.1,0.7-0.3V8c0.1-0.1,0.1-0.3,0.2-0.4c0.3-0.3,0.5-0.3,0.7,0.1c0.2,0.3,0.3,0.5,0.4,0.8c0.2,0.5,0.5,0.9,0.9,1.2
	c0.1,0.2,0.4,0.2,0.6,0.1c0,0,0,0,0,0l0.1-0.1c0.1-0.1,0.3-0.2,0.4-0.2c0.5,0.3,1.2,0.4,1.5,1c0.1,0.1,0.1,0.3,0.2,0.4
	c0.3,0.5,0.4,1.1,0.2,1.7c-0.1,0.5-0.2,0.9-0.4,1.4c-0.1,0.2-0.2,0.3-0.3,0.5c-0.3,0.3-0.4,0.8-0.2,1.3c0.2,0.3,0.1,0.8-0.2,1
	c-0.5,0.6-0.9,1.2-1.3,1.9h-0.6c-0.6,0-0.6,0-0.7,0.6c-0.1,0.3-0.2,0.4-0.5,0.3l-0.3-0.1c-0.4-0.1-0.5,0-0.5,0.4V20
	c0,0.3,0.1,0.6,0,0.8c-0.2,0.3-0.6,0.5-0.9,0.5c-0.5,0-0.9,0.3-0.9,0.8c0,0.1,0,0.2-0.1,0.2L140.4,22.3z M140.7,20.6
	c0.1-0.1,0.1-0.1,0.1-0.2c0,0-0.1-0.1-0.1-0.1c-0.1,0-0.1,0.1-0.1,0.2C140.6,20.5,140.6,20.6,140.7,20.6L140.7,20.6z"/>
<path class="st0" d="M140.7,20.6c-0.1-0.1-0.1-0.1-0.1-0.1c0-0.1,0.1-0.1,0.1-0.2c0,0,0.1,0.1,0.1,0.1
	C140.8,20.5,140.7,20.5,140.7,20.6z"/>
</svg>
