<?xml version="1.0" standalone="no"?>
<!DOCTYPE svg PUBLIC "-//W3C//DTD SVG 20010904//EN"
 "http://www.w3.org/TR/2001/REC-SVG-20010904/DTD/svg10.dtd">
<svg version="1.0" xmlns="http://www.w3.org/2000/svg"
 width="700.000000pt" height="700.000000pt" viewBox="0 0 700.000000 700.000000"
 preserveAspectRatio="xMidYMid meet">
<metadata>
Created by potrace 1.11, written by Peter Selinger 2001-2013
</metadata>
<g transform="translate(0.000000,700.000000) scale(0.100000,-0.100000)"
fill="#000000" stroke="none">
<path d="M0 3500 l0 -3500 3500 0 3500 0 0 3500 0 3500 -3500 0 -3500 0 0
-3500z m6458 2844 c31 -21 28 -44 -8 -57 -46 -17 -37 -45 20 -62 38 -11 64
-39 95 -104 l28 -60 -22 -51 c-19 -44 -22 -68 -22 -188 1 -75 -4 -186 -10
-247 -12 -112 -53 -308 -66 -313 -33 -11 -58 -32 -73 -60 -15 -27 -19 -30 -30
-17 -20 24 -49 18 -68 -15 -9 -16 -23 -30 -29 -30 -7 0 -18 -9 -25 -19 -11
-18 -16 -16 -78 43 -36 34 -86 72 -111 84 l-44 22 -3 -27 c-6 -47 -19 -50 -58
-12 -19 18 -65 52 -102 75 -54 33 -69 47 -77 76 -5 19 -17 43 -25 53 -34 41
-44 404 -14 497 14 42 20 49 55 59 33 10 44 22 73 73 38 67 171 204 225 231
19 10 53 17 75 17 39 -1 71 5 191 32 78 19 77 19 103 0z m-4642 -1287 c26 -1
50 -10 63 -22 25 -21 30 -22 237 -10 211 12 464 -12 674 -65 41 -10 142 -35
225 -55 82 -21 163 -43 180 -51 16 -7 75 -30 130 -50 110 -40 271 -117 350
-167 27 -17 86 -60 130 -95 87 -70 335 -293 335 -301 0 -4 27 -42 61 -86 33
-44 90 -138 125 -210 36 -71 70 -134 75 -140 18 -18 30 12 55 131 40 195 47
216 107 309 32 50 92 147 134 217 88 150 199 265 305 320 117 60 229 108 286
124 166 44 534 38 688 -10 111 -35 152 -65 286 -205 65 -68 123 -121 130 -118
7 2 33 -10 58 -28 25 -18 73 -47 108 -65 84 -44 156 -124 202 -225 50 -107 62
-161 59 -269 -3 -128 -16 -184 -55 -228 -18 -20 -42 -55 -53 -76 -62 -121
-496 -428 -696 -492 -38 -12 -100 -35 -136 -51 -36 -16 -99 -33 -140 -39 -93
-14 -139 -28 -139 -43 0 -29 77 -157 200 -332 132 -189 248 -323 305 -352 17
-8 46 -32 65 -52 25 -27 55 -44 102 -60 58 -19 69 -27 85 -59 17 -36 20 -37
65 -34 39 2 49 -1 62 -20 9 -12 16 -41 16 -65 0 -25 6 -48 16 -58 15 -15 15
-19 0 -60 -10 -24 -24 -49 -32 -55 -7 -7 -14 -23 -14 -35 0 -14 -12 -31 -35
-46 -19 -13 -42 -39 -50 -56 l-16 -33 -37 16 c-67 30 -77 26 -80 -32 -3 -48
-1 -54 28 -74 37 -26 33 -39 -4 -15 -29 19 -46 13 -46 -16 0 -27 -26 -34 -53
-15 -12 9 -37 28 -56 41 -20 15 -48 25 -68 25 -19 0 -48 9 -63 20 -34 24 -55
18 -75 -21 -14 -25 -18 -27 -47 -18 -28 8 -36 6 -49 -10 -15 -18 -18 -19 -64
-4 -37 13 -52 14 -66 5 -25 -16 -44 -15 -59 3 -18 21 -40 19 -40 -5 0 -38 -29
-20 -122 78 -51 54 -133 132 -183 174 -49 41 -126 108 -170 148 -43 39 -98 85
-121 101 -23 15 -56 52 -75 81 -18 29 -42 62 -54 73 -11 11 -56 82 -100 157
-56 98 -85 138 -99 140 -17 2 -22 12 -27 48 -4 41 -67 222 -89 260 -17 28 -11
-41 9 -113 20 -73 11 -76 -30 -11 -31 51 -69 42 -69 -16 0 -10 -13 -40 -29
-67 -16 -26 -59 -102 -96 -168 -57 -104 -84 -139 -187 -245 -65 -69 -152 -162
-193 -208 -84 -94 -328 -286 -507 -398 -27 -18 -62 -43 -76 -57 -15 -13 -44
-35 -64 -48 -102 -66 -467 -311 -492 -331 -16 -13 -38 -26 -48 -30 -10 -4 -18
-14 -18 -21 0 -9 -16 -17 -41 -21 -26 -4 -50 -17 -67 -35 -15 -16 -43 -31 -62
-35 -19 -3 -140 -59 -270 -122 -129 -64 -287 -137 -350 -162 -112 -45 -119
-46 -255 -53 -77 -3 -155 -12 -173 -19 -42 -16 -60 -8 -64 27 l-3 28 -105 5
c-101 5 -107 6 -150 40 -25 19 -62 46 -83 60 -30 20 -37 31 -37 57 0 17 -5 44
-11 60 -7 15 -11 40 -10 55 1 15 -3 29 -9 33 -5 3 -10 17 -10 31 0 14 -7 35
-15 48 -15 22 -14 31 1 94 l17 70 -42 40 c-67 64 -59 97 59 220 25 26 63 70
84 99 22 29 59 66 83 83 25 18 46 42 50 58 9 37 49 88 88 112 18 11 75 29 126
40 120 26 239 80 239 110 0 11 -15 69 -34 128 -44 137 -67 223 -111 401 -20
79 -37 147 -40 151 -2 4 -9 45 -14 92 -5 47 -16 100 -24 119 -17 38 -79 364
-97 506 -6 51 -9 106 -5 121 3 16 1 69 -6 118 -7 49 -13 110 -14 137 -3 66 -3
65 -24 72 -21 6 -318 -71 -411 -107 -51 -20 -168 -94 -297 -190 -29 -21 -71
-66 -94 -101 -23 -34 -53 -71 -66 -82 -13 -11 -38 -46 -56 -78 -31 -55 -34
-57 -49 -40 -9 10 -21 29 -26 43 -6 16 -23 30 -48 39 -63 22 -104 59 -134 122
-15 33 -34 66 -41 75 -9 11 -12 40 -10 89 1 41 -2 82 -7 92 -7 13 -4 36 9 78
11 33 26 89 35 125 31 131 73 200 196 326 62 64 133 128 158 142 68 39 105 69
199 163 83 84 150 129 189 129 11 0 39 9 63 19 24 11 71 24 104 31 33 6 84 20
113 31 29 10 65 19 80 19 15 0 84 20 154 44 103 35 139 52 195 95 63 49 71 52
108 46 22 -4 59 -7 81 -8z"/>
<path d="M5474 4822 c-39 -10 -116 -38 -171 -61 -85 -36 -100 -46 -96 -62 3
-11 9 -22 14 -25 5 -3 71 15 146 40 76 24 174 51 218 60 44 8 96 19 115 24 33
8 34 9 14 20 -39 21 -163 23 -240 4z"/>
<path d="M4830 4538 c-12 -13 -33 -42 -48 -65 -15 -23 -36 -44 -46 -45 -11 -2
-23 -12 -26 -23 -3 -11 -17 -40 -32 -65 -15 -25 -34 -66 -43 -90 -9 -25 -28
-61 -44 -80 -43 -53 -61 -95 -61 -139 0 -22 -5 -43 -10 -46 -6 -4 -8 -16 -5
-26 4 -11 1 -27 -6 -35 -20 -24 -4 -436 20 -539 11 -44 24 -114 30 -155 6 -41
18 -99 27 -128 23 -82 92 -219 119 -236 33 -22 33 -8 0 81 -36 98 -63 222 -76
359 -17 169 -6 494 21 652 16 95 19 127 10 137 -14 17 46 141 155 320 36 59
65 116 65 126 0 26 -25 24 -50 -3z"/>
<path d="M5775 4086 c-27 -7 -63 -20 -80 -29 -121 -66 -223 -254 -181 -336
l16 -30 53 18 c218 75 431 204 453 274 8 27 -24 67 -76 94 -49 26 -106 29
-185 9z"/>
<path d="M2283 4013 c-26 -5 -29 -26 -12 -70 7 -15 13 -44 15 -63 4 -50 70
-332 99 -420 13 -41 31 -115 40 -165 35 -194 134 -553 177 -637 16 -33 35 -58
44 -58 8 0 30 11 48 25 18 14 42 25 53 25 19 0 73 44 73 60 0 9 103 88 127 97
39 15 235 178 309 256 108 114 202 241 210 282 4 21 -1 63 -11 105 -18 75 -56
131 -145 217 -72 70 -293 176 -545 261 -146 50 -418 98 -482 85z"/>
</g>
</svg>
